<svg width="317" height="105" viewBox="0 0 317 105" fill="none" xmlns="http://www.w3.org/2000/svg">
<path d="M291.774 0H25.5591C24.5867 0 23.6337 0 22.6612 0C21.8444 0 21.047 0.0192908 20.2301 0.0385817C18.4603 0.0771633 16.6904 0.192908 14.9206 0.501562C13.1508 0.810215 11.4976 1.33107 9.88336 2.14128C8.308 2.9515 6.84935 3.9932 5.60463 5.22782C4.34045 6.46243 3.29021 7.90924 2.4928 9.49109C1.67595 11.0922 1.15082 12.7319 0.839643 14.4874C0.528462 16.2236 0.411788 17.9791 0.37289 19.7345C0.353441 20.5447 0.353433 21.355 0.333984 22.1459V82.8155C0.333984 83.6258 0.333993 84.4167 0.37289 85.2269C0.411788 86.9824 0.528462 88.7378 0.839643 90.474C1.15082 92.2295 1.67595 93.8885 2.4928 95.4703C3.29021 97.0329 4.34045 98.4797 5.60463 99.7143C6.84935 100.968 8.308 102.01 9.88336 102.801C11.4976 103.63 13.1508 104.132 14.9206 104.46C16.671 104.769 18.4603 104.884 20.2301 104.923C21.047 104.923 21.8444 104.942 22.6612 104.942C23.6337 104.942 24.5867 104.942 25.5591 104.942H291.794C292.747 104.942 293.719 104.942 294.653 104.942C295.45 104.942 296.287 104.942 297.084 104.923C298.854 104.865 300.643 104.769 302.374 104.46C304.144 104.151 305.797 103.63 307.431 102.801C309.006 102.01 310.465 100.968 311.709 99.7143C312.974 98.4797 314.024 97.0329 314.841 95.4703C315.658 93.8692 316.183 92.2295 316.474 90.474C316.805 88.7378 316.902 86.9824 316.961 85.2269C316.961 84.4167 316.961 83.6258 316.961 82.8155C316.98 81.8703 316.98 80.9057 316.98 79.9412V25.0395C316.98 24.075 316.98 23.1297 316.961 22.1652C316.961 21.355 316.961 20.5447 316.961 19.7538C316.902 17.9983 316.786 16.2429 316.474 14.5067C316.183 12.7512 315.638 11.1115 314.841 9.51038C314.024 7.94782 312.974 6.50101 311.709 5.24711C310.465 4.01249 309.006 2.9515 307.431 2.16057C305.797 1.35036 304.163 0.829506 302.374 0.520852C300.624 0.212199 298.854 0.0964542 297.084 0.0578725C296.287 0.0578725 295.45 0.0385817 294.653 0.0192908C293.7 0.0192908 292.727 0.0192908 291.794 0.0192908L291.774 0Z" fill="#B7B7B6"/>
<path d="M22.6612 102.705C21.8638 102.705 21.0664 102.705 20.269 102.685C18.7909 102.647 17.0405 102.57 15.329 102.261C13.7147 101.972 12.2755 101.509 10.953 100.814C9.57213 100.12 8.32739 99.213 7.2577 98.152C6.16857 97.091 5.25448 95.8564 4.55432 94.4868C3.87361 93.1557 3.40686 91.7475 3.11513 90.1463C2.7845 88.3716 2.70668 86.5968 2.66778 85.2272C2.66778 84.6678 2.62891 82.8351 2.62891 82.8351V22.1655C2.62891 22.1655 2.64833 20.3521 2.66778 19.812C2.70668 18.4423 2.7845 16.6483 3.11513 14.8928C3.40686 13.2724 3.87361 11.8642 4.55432 10.5331C5.25448 9.16343 6.16858 7.92882 7.23827 6.86783C8.3274 5.78754 9.57213 4.88087 10.953 4.1864C12.3144 3.51122 13.7536 3.02895 15.329 2.75888C17.1183 2.45022 18.927 2.35377 20.2884 2.33448L22.6806 2.2959H294.653L297.064 2.33448C298.426 2.37306 300.235 2.45022 301.985 2.75888C303.58 3.02895 305.019 3.51122 306.4 4.20569C307.761 4.90016 309.006 5.78754 310.076 6.86783C311.165 7.92882 312.06 9.16343 312.779 10.5524C313.46 11.9027 313.927 13.311 314.199 14.8735C314.51 16.5325 314.607 18.2301 314.666 19.8313C314.666 20.5836 314.666 21.3745 314.666 22.1655C314.685 23.1493 314.685 24.0945 314.685 25.0398V79.9801C314.685 80.9253 314.685 81.8706 314.666 82.7965C314.666 83.6453 314.666 84.4363 314.666 85.2465C314.607 86.7897 314.51 88.4873 314.218 90.1078C313.946 91.7089 313.479 93.1364 312.799 94.4868C312.079 95.8564 311.184 97.091 310.115 98.1327C309.026 99.2323 307.781 100.12 306.419 100.814C305.038 101.509 303.638 101.972 302.004 102.261C300.312 102.57 298.562 102.647 297.064 102.685C296.286 102.685 295.47 102.705 294.692 102.705H291.833H22.7195H22.6612Z" fill="#010101"/>
<path d="M65.8765 53.2819C65.8181 46.0672 71.8278 42.5562 72.1196 42.3826C68.716 37.4442 63.4065 36.769 61.5588 36.7111C57.1245 36.2481 52.8069 39.354 50.5508 39.354C48.2948 39.354 44.7551 36.769 41.0015 36.8462C36.1587 36.9233 31.6466 39.7012 29.1571 44.0031C24.0421 52.7997 27.8541 65.7052 32.7552 72.8236C35.2057 76.2959 38.0841 80.1927 41.8183 80.0576C45.4941 79.9033 46.8555 77.7427 51.2899 77.7427C55.7242 77.7427 56.9689 80.0576 60.8003 79.9805C64.7485 79.9226 67.2185 76.4888 69.5912 72.9779C72.4307 68.9847 73.5588 65.0686 73.6171 64.8564C73.5199 64.8179 65.9737 61.9628 65.896 53.3012L65.8765 53.2819Z" fill="white"/>
<path d="M58.6426 32.0616C60.6069 29.6116 61.9684 26.2743 61.5988 22.8984C58.7399 23.0335 55.1613 24.8661 53.1191 27.2582C51.291 29.3609 49.6767 32.8332 50.0851 36.0741C53.2942 36.3056 56.581 34.4729 58.6426 32.0616V32.0616Z" fill="white"/>
<path d="M112.263 71.2417H99.738L96.7234 80.0576H91.4139L103.278 47.4561H108.782L120.645 80.0576H115.258L112.244 71.2417H112.263ZM101.041 67.1713H110.979L106.078 52.8768H105.942L101.041 67.1713V67.1713Z" fill="white"/>
<path d="M146.299 68.174C146.299 75.5624 142.312 80.3079 136.302 80.3079C132.879 80.3079 130.176 78.7839 128.756 76.1411H128.639V87.9085H123.719V56.2908H128.484V60.2454H128.581C129.942 57.6991 132.86 56.04 136.205 56.04C142.292 56.04 146.299 60.8049 146.299 68.174V68.174ZM141.242 68.174C141.242 63.3706 138.733 60.2069 134.902 60.2069C131.07 60.2069 128.62 63.4284 128.62 68.174C128.62 72.9195 131.148 76.1604 134.902 76.1604C138.655 76.1604 141.242 73.016 141.242 68.174Z" fill="white"/>
<path d="M172.671 68.174C172.671 75.5624 168.684 80.3079 162.674 80.3079C159.251 80.3079 156.548 78.7839 155.128 76.1411H155.011V87.9085H150.091V56.2908H154.856V60.2454H154.953C156.314 57.6991 159.232 56.04 162.577 56.04C168.664 56.04 172.671 60.8049 172.671 68.174V68.174ZM167.614 68.174C167.614 63.3706 165.105 60.2069 161.274 60.2069C157.442 60.2069 154.992 63.4284 154.992 68.174C154.992 72.9195 157.52 76.1604 161.274 76.1604C165.027 76.1604 167.614 73.016 167.614 68.174Z" fill="white"/>
<path d="M190.097 70.9714C190.466 74.2123 193.636 76.3343 197.954 76.3343C202.272 76.3343 205.072 74.2123 205.072 71.2994C205.072 68.7723 203.283 67.2483 199.024 66.2066L194.765 65.1842C188.735 63.7374 185.935 60.9402 185.935 56.3876C185.935 50.7547 190.875 46.8965 197.896 46.8965C204.917 46.8965 209.604 50.7547 209.76 56.3876H204.8C204.508 53.1274 201.786 51.1791 197.837 51.1791C193.889 51.1791 191.166 53.166 191.166 56.0596C191.166 58.3552 192.897 59.7249 197.137 60.7666L200.755 61.654C207.503 63.2358 210.304 65.9172 210.304 70.6821C210.304 76.778 205.403 80.5976 197.623 80.5976C190.33 80.5976 185.41 76.8744 185.098 70.9714H190.136H190.097Z" fill="white"/>
<path d="M220.885 50.6582V56.2911H225.436V60.1493H220.885V73.2478C220.885 75.2926 221.799 76.2378 223.802 76.2378C224.308 76.2378 225.105 76.1607 225.417 76.1221V79.961C224.872 80.096 223.783 80.1925 222.694 80.1925C217.851 80.1925 215.945 78.3791 215.945 73.7686V60.1493H212.464V56.2911H215.945V50.6582H220.885V50.6582Z" fill="white"/>
<path d="M228.081 68.1745C228.081 60.6896 232.515 56.002 239.439 56.002C246.363 56.002 250.797 60.7089 250.797 68.1745C250.797 75.64 246.402 80.347 239.439 80.347C232.476 80.347 228.081 75.6593 228.081 68.1745ZM245.799 68.1745C245.799 63.0431 243.426 60.0144 239.439 60.0144C235.452 60.0144 233.079 63.0624 233.079 68.1745C233.079 73.2865 235.452 76.3345 239.439 76.3345C243.426 76.3345 245.799 73.3251 245.799 68.1745Z" fill="white"/>
<path d="M254.862 56.2908H259.549V60.3419H259.666C260.424 57.6605 262.603 56.04 265.423 56.04C266.123 56.04 266.726 56.1365 267.115 56.2137V60.7856C266.726 60.6313 265.87 60.4962 264.898 60.4962C261.727 60.4962 259.763 62.6182 259.763 65.9555V80.0571H254.843V56.2908H254.862Z" fill="white"/>
<path d="M289.792 73.0743C289.13 77.3955 284.891 80.347 279.484 80.347C272.521 80.347 268.184 75.7172 268.184 68.2902C268.184 60.8632 272.541 56.002 279.27 56.002C285.999 56.002 290.064 60.516 290.064 67.7308V69.4091H273.144V69.6984C273.144 73.7688 275.711 76.4309 279.581 76.4309C282.304 76.4309 284.463 75.1385 285.105 73.0936H289.772L289.792 73.0743ZM273.163 65.9753H285.143C285.027 62.3293 282.673 59.9373 279.27 59.9373C275.866 59.9373 273.416 62.3872 273.163 65.9753V65.9753Z" fill="white"/>
<path d="M94.0771 30.7491C94.0771 25.6757 96.8 22.5312 101.195 22.5312C104.677 22.5312 107.361 24.769 107.769 27.952H105.319C104.852 26.0229 103.276 24.7883 101.195 24.7883C98.3559 24.7883 96.5861 27.0839 96.5861 30.7299C96.5861 34.3758 98.3559 36.6714 101.195 36.6714C103.276 36.6714 104.871 35.5526 105.319 33.7778H107.769C107.322 36.8643 104.735 38.9285 101.215 38.9285C96.8194 38.9285 94.0966 35.7841 94.0966 30.7299L94.0771 30.7491Z" fill="white"/>
<path d="M110.434 32.6589C110.434 28.8393 112.573 26.5244 116.054 26.5244C119.536 26.5244 121.675 28.8393 121.675 32.6589C121.675 36.4785 119.536 38.7934 116.054 38.7934C112.573 38.7934 110.434 36.4785 110.434 32.6589ZM119.263 32.6589C119.263 30.0932 118.096 28.6078 116.074 28.6078C114.051 28.6078 112.884 30.1125 112.884 32.6589C112.884 35.2053 114.032 36.7293 116.074 36.7293C118.116 36.7293 119.263 35.2246 119.263 32.6589Z" fill="white"/>
<path d="M124.826 26.7559H127.082V28.6271H127.257C127.841 27.3153 129.027 26.5244 130.816 26.5244C133.481 26.5244 134.94 28.1063 134.94 30.9227V38.5812H132.586V31.5207C132.586 29.6302 131.75 28.685 130.019 28.685C128.288 28.685 127.18 29.8424 127.18 31.6751V38.5812H124.826V26.7559Z" fill="white"/>
<path d="M142.952 26.5242C145.636 26.5242 147.386 27.7588 147.619 29.8422H145.363C145.149 28.9741 144.294 28.4147 142.952 28.4147C141.61 28.4147 140.637 29.032 140.637 29.9579C140.637 30.6717 141.24 31.1154 142.524 31.4048L144.507 31.8677C146.783 32.3886 147.833 33.3531 147.833 35.0893C147.833 37.3078 145.752 38.7931 142.893 38.7931C140.034 38.7931 138.206 37.52 137.992 35.4365H140.345C140.637 36.3432 141.512 36.9026 142.932 36.9026C144.352 36.9026 145.441 36.2468 145.441 35.3015C145.441 34.5877 144.877 34.1441 143.691 33.8547L141.61 33.3724C139.334 32.8323 138.303 31.8292 138.303 30.0737C138.303 27.971 140.248 26.5049 142.932 26.5049L142.952 26.5242Z" fill="white"/>
<path d="M150.809 24.7883L153.552 21.0459H156.313L153.24 24.7883H150.809ZM151.043 26.756H153.377V38.5813H151.043V26.756Z" fill="white"/>
<path d="M157.053 39.7584H159.464C159.659 40.6072 160.651 41.1666 162.246 41.1666C164.21 41.1666 165.357 40.2407 165.357 38.6781V36.4018H165.182C164.463 37.675 163.14 38.3888 161.506 38.3888C158.472 38.3888 156.586 36.0546 156.586 32.5243C156.586 28.9941 158.492 26.5635 161.526 26.5635C163.16 26.5635 164.599 27.3737 165.26 28.6469H165.455V26.7564H167.711V38.6781C167.711 41.3788 165.571 43.0957 162.207 43.0957C159.231 43.0957 157.306 41.7647 157.053 39.7584ZM165.396 32.5243C165.396 30.1709 164.171 28.6662 162.168 28.6662C160.165 28.6662 158.998 30.1709 158.998 32.5243C158.998 34.8778 160.126 36.3825 162.168 36.3825C164.21 36.3825 165.396 34.8778 165.396 32.5243Z" fill="white"/>
<path d="M181.499 38.5811H179.223V36.7099H179.029C178.446 38.0603 177.24 38.8126 175.431 38.8126C172.786 38.8126 171.327 37.2115 171.327 34.4336V26.7559H173.681V33.8163C173.681 35.7261 174.459 36.6328 176.189 36.6328C178.095 36.6328 179.126 35.5139 179.126 33.662V26.7559H181.48V38.5811H181.499Z" fill="white"/>
<path d="M195.328 35.3789C194.783 37.5009 192.897 38.7934 190.174 38.7934C186.751 38.7934 184.67 36.4785 184.67 32.6975C184.67 28.9165 186.809 26.5244 190.174 26.5244C193.538 26.5244 195.483 28.7622 195.483 32.4853V33.2955H187.062V33.4305C187.14 35.4947 188.346 36.8257 190.232 36.8257C191.652 36.8257 192.624 36.3242 193.072 35.3982H195.328V35.3789ZM187.062 31.5786H193.072C193.013 29.7267 191.885 28.5114 190.135 28.5114C188.384 28.5114 187.179 29.7267 187.042 31.5786H187.062Z" fill="white"/>
<path d="M198.731 22.1455H201.085V38.5813H198.731V22.1455Z" fill="white"/>
<path d="M204.352 32.6589C204.352 28.8393 206.491 26.5244 209.972 26.5244C213.454 26.5244 215.593 28.8393 215.593 32.6589C215.593 36.4785 213.454 38.7934 209.972 38.7934C206.491 38.7934 204.352 36.4785 204.352 32.6589ZM213.181 32.6589C213.181 30.0932 212.014 28.6078 209.992 28.6078C207.969 28.6078 206.802 30.1125 206.802 32.6589C206.802 35.2053 207.95 36.7293 209.992 36.7293C212.034 36.7293 213.181 35.2246 213.181 32.6589Z" fill="white"/>
<path d="M235.295 35.3789C234.75 37.5009 232.864 38.7934 230.141 38.7934C226.718 38.7934 224.637 36.4785 224.637 32.6975C224.637 28.9165 226.776 26.5244 230.141 26.5244C233.505 26.5244 235.45 28.7622 235.45 32.4853V33.2955H227.029V33.4305C227.107 35.4947 228.313 36.8257 230.199 36.8257C231.619 36.8257 232.591 36.3242 233.039 35.3982H235.295V35.3789ZM227.029 31.5786H233.039C232.98 29.7267 231.852 28.5114 230.102 28.5114C228.351 28.5114 227.146 29.7267 227.009 31.5786H227.029Z" fill="white"/>
<path d="M238.601 26.7559H240.857V28.6271H241.032C241.615 27.3153 242.802 26.5244 244.591 26.5244C247.255 26.5244 248.714 28.1063 248.714 30.9227V38.5812H246.361V31.5207C246.361 29.6302 245.524 28.685 243.793 28.685C242.063 28.685 240.954 29.8424 240.954 31.6751V38.5812H238.601V26.7559Z" fill="white"/>
<path d="M268.903 35.3789C268.359 37.5009 266.472 38.7934 263.749 38.7934C260.326 38.7934 258.245 36.4785 258.245 32.6975C258.245 28.9165 260.384 26.5244 263.749 26.5244C267.114 26.5244 269.059 28.7622 269.059 32.4853V33.2955H260.637V33.4305C260.715 35.4947 261.921 36.8257 263.808 36.8257C265.227 36.8257 266.2 36.3242 266.647 35.3982H268.903V35.3789ZM260.637 31.5786H266.647C266.589 29.7267 265.461 28.5114 263.71 28.5114C261.96 28.5114 260.754 29.7267 260.618 31.5786H260.637Z" fill="white"/>
<path d="M272.306 22.1455H274.659V38.5813H272.306V22.1455Z" fill="white"/>
</svg>
