<svg width="105" height="113" viewBox="0 0 105 113" fill="none" xmlns="http://www.w3.org/2000/svg">
<g clip-path="url(#clip0_2507_1391)">
<path d="M32.6896 41.567C30.5977 40.9363 27.6126 39.2245 26.0522 36.8821C22.219 31.1161 16.4861 27.9853 11.1038 30.4742C5.43886 33.0982 5.07702 40.2043 6.2756 45.4748C6.84097 47.9636 6.89751 50.5876 5.45017 52.6935C1.01769 59.1803 3.75406 66.5229 12.6077 67.5815H40.7178C46.0548 58.4933 42.1877 44.4725 32.6896 41.5782V41.567Z" fill="url(#paint0_linear_2507_1391)"/>
<path d="M97.187 33.8077C96.0675 32.2085 93.9757 31.6229 92.1891 32.4C88.1863 34.1456 70.8296 41.3193 73.9052 60.543L98.9283 59.4506C104.797 51.7701 100.59 38.6728 97.187 33.8077Z" fill="url(#paint1_linear_2507_1391)"/>
<path d="M55.5756 38.1208C53.7325 37.1523 52.8053 35.6995 52.3756 33.6724C50.9961 27.2533 46.3036 22.1742 40.0619 22.8274C34.4309 23.4243 31.4683 27.7938 30.9934 32.7377C30.6881 35.8347 30.8577 38.0983 28.5623 40.2268C22.479 45.8801 20.568 56.9391 28.144 60.5429H59.3748C67.6518 53.3692 63.2646 42.1638 55.5756 38.1321V38.1208Z" fill="url(#paint2_linear_2507_1391)"/>
<path d="M77.7041 27.6024L77.591 26.9717C77.1952 24.7644 76.4716 20.6652 76.5281 18.12C76.5281 17.6583 76.3698 17.2303 76.0532 16.9037C75.7366 16.5772 75.2956 16.397 74.8433 16.397C74.7416 16.397 74.6398 16.397 74.538 16.4195L72.955 16.701C72.22 16.8362 71.6433 17.4443 71.5755 18.1876L71.1797 22.0616C71.1232 22.163 71.0101 22.1968 70.931 22.1968C70.8857 22.1968 70.8518 22.1968 70.8179 22.1742L68.3303 19.1674C68.0024 18.7732 67.5275 18.5592 67.0186 18.5592C66.7812 18.5592 66.555 18.6043 66.3402 18.6944L64.8589 19.3363C64.384 19.539 64.0335 19.9331 63.8978 20.4287C63.7621 20.9129 63.8526 21.431 64.1466 21.8476C65.6165 23.9311 67.29 27.7488 68.1946 29.7984L68.4547 30.384C68.8843 31.3525 69.8455 31.9719 70.9084 31.9719C71.1684 31.9719 71.4398 31.9381 71.6886 31.8593L75.8271 30.6093C77.1274 30.2151 77.9302 28.92 77.6928 27.5911L77.7041 27.6024Z" fill="url(#paint3_linear_2507_1391)"/>
<path d="M83.6065 11.1941C83.3351 7.77058 80.4518 5.02272 77.0596 4.93263C76.4829 4.92137 75.7592 4.74118 75.4652 4.30197C73.7126 1.64421 70.5352 0 67.1882 0C66.2271 0 65.2886 0.135141 64.384 0.405422C60.2681 1.64421 57.3056 5.58581 57.3395 9.77516C57.3395 10.3045 56.842 10.845 56.3671 11.1716C53.5968 13.1199 52.7261 17.0052 54.4109 20.0008C55.5982 22.1293 57.8597 23.4469 60.3021 23.4469C60.3812 23.4469 60.4491 23.4469 60.5282 23.4469C62.8462 23.368 64.9607 22.163 66.1706 20.226C66.4646 19.753 67.1317 19.4264 67.9006 19.3814C68.6243 19.3364 69.3479 19.2012 70.0377 18.9985C70.7274 18.7845 71.4059 18.503 72.0278 18.1426C72.4575 17.8949 72.9098 17.7597 73.3281 17.7597C73.5543 17.7597 73.7578 17.8048 73.95 17.8836C74.8433 18.289 75.7931 18.4917 76.7769 18.4917C78.0546 18.4917 79.321 18.1314 80.4404 17.4444C82.5662 16.138 83.81 13.683 83.6065 11.1941Z" fill="url(#paint4_linear_2507_1391)"/>
<path d="M26.2444 21.6676C24.684 23.2217 22.185 23.4807 20.4776 23.4469C19.3243 23.4244 18.4875 22.591 18.4649 21.4423C18.431 19.7418 18.6911 17.253 20.2515 15.6989C21.8119 14.1447 24.3108 13.8857 26.0182 13.9195C27.1716 13.942 28.0083 14.7754 28.0309 15.9241C28.0649 17.6246 27.8048 20.1134 26.2444 21.6676Z" fill="url(#paint5_linear_2507_1391)"/>
<path d="M36.1265 8.66027C35.0297 6.75704 35.4368 4.27946 35.923 2.65777C36.2509 1.55413 37.2686 0.968518 38.388 1.25006C40.0389 1.66674 42.3795 2.56768 43.4763 4.48217C44.5731 6.39666 44.166 8.86298 43.6798 10.4847C43.3519 11.5883 42.3343 12.1739 41.2148 11.8924C39.564 11.4757 37.2233 10.5748 36.1265 8.66027Z" fill="url(#paint6_linear_2507_1391)"/>
<path d="M24.7518 63.0542C29.3168 63.0542 33.0174 59.3685 33.0174 54.8219C33.0174 50.2753 29.3168 46.5896 24.7518 46.5896C20.1867 46.5896 16.4861 50.2753 16.4861 54.8219C16.4861 59.3685 20.1867 63.0542 24.7518 63.0542Z" fill="url(#paint7_linear_2507_1391)"/>
<path d="M76.1776 37.4451L55.6887 56.117C60.2681 64.7772 69.8342 65.0926 75.6574 60.0248C78.4956 57.5585 80.4404 53.8984 80.8814 49.9005C81.3789 45.4521 80.1238 41.4092 76.1776 37.4451Z" fill="url(#paint8_linear_2507_1391)"/>
<path d="M76.1776 37.4451C79.2306 40.3957 78.5521 47.8735 73.7918 53.448C68.613 59.5293 60.8561 61.9619 55.6887 56.117C52.1947 52.1642 53.8456 44.495 59.454 39.6749C65.3565 34.5959 72.4462 33.8526 76.1776 37.4451Z" fill="url(#paint9_linear_2507_1391)"/>
<path d="M70.196 41.9723C71.6433 43.3687 71.3154 46.8936 69.0766 49.5289C66.6342 52.4006 62.9706 53.5493 60.5282 50.7902C58.8774 48.9208 59.6576 45.2945 62.3035 43.0196C65.0964 40.6209 68.4434 40.2718 70.2073 41.961L70.196 41.9723Z" fill="url(#paint10_linear_2507_1391)"/>
<path d="M85.6079 59.1015C85.4043 59.124 85.1895 59.1128 84.986 59.0677C84.0362 58.8425 83.4482 57.8853 83.6856 56.9393C85.1217 50.9818 87.5414 45.0131 87.6432 44.7654C88.005 43.8644 89.0453 43.4252 89.9499 43.7968C90.8545 44.1572 91.2955 45.1933 90.9223 46.0942C90.8997 46.1505 88.4913 52.0742 87.1231 57.7726C86.9422 58.5046 86.3316 59.0227 85.6192 59.1128L85.6079 59.1015Z" fill="url(#paint11_linear_2507_1391)"/>
<path d="M46.3149 59.8898C45.3764 59.8898 44.5962 59.1578 44.5509 58.2231C44.1213 49.957 42.2442 39.5512 42.2216 39.4498C42.052 38.4926 42.6852 37.5804 43.6463 37.4002C44.6075 37.22 45.5234 37.8619 45.7043 38.8192C45.7834 39.2584 47.6491 49.5516 48.0901 58.0429C48.1354 59.0114 47.3891 59.8448 46.4166 59.8898C46.3827 59.8898 46.3601 59.8898 46.3262 59.8898H46.3149Z" fill="url(#paint12_linear_2507_1391)"/>
<path d="M24.413 53.054C25.2747 53.054 25.9734 52.3582 25.9734 51.4999C25.9734 50.6416 25.2747 49.9458 24.413 49.9458C23.5512 49.9458 22.8525 50.6416 22.8525 51.4999C22.8525 52.3582 23.5512 53.054 24.413 53.054Z" fill="url(#paint13_linear_2507_1391)"/>
<path d="M5.89113 54.822H99.1089C102.365 54.822 105 57.446 105 60.6894V60.7119C105 89.5757 81.4807 113 52.5 113C23.5193 113 0 89.5644 0 60.7119L0 60.6894C0 57.4573 2.63461 54.822 5.89113 54.822Z" fill="url(#paint14_linear_2507_1391)"/>
</g>
<defs>
<linearGradient id="paint0_linear_2507_1391" x1="44.3612" y1="75.9317" x2="1.03876" y2="34.7192" gradientUnits="userSpaceOnUse">
<stop stop-color="#31477C"/>
<stop offset="1" stop-color="#81D187"/>
</linearGradient>
<linearGradient id="paint1_linear_2507_1391" x1="83.165" y1="77.6021" x2="91.6139" y2="30.9594" gradientUnits="userSpaceOnUse">
<stop stop-color="#31477C"/>
<stop offset="1" stop-color="#81D187"/>
</linearGradient>
<linearGradient id="paint2_linear_2507_1391" x1="55.5756" y1="98.5962" x2="37.2055" y2="26.3955" gradientUnits="userSpaceOnUse">
<stop stop-color="#31477C"/>
<stop offset="1" stop-color="#81D187"/>
</linearGradient>
<linearGradient id="paint3_linear_2507_1391" x1="73.4864" y1="33.0756" x2="68.5042" y2="12.3561" gradientUnits="userSpaceOnUse">
<stop stop-color="#7EC27C"/>
<stop offset="1" stop-color="#495B51"/>
</linearGradient>
<linearGradient id="paint4_linear_2507_1391" x1="71.044" y1="27.2533" x2="64.5593" y2="-7.44224" gradientUnits="userSpaceOnUse">
<stop stop-color="#31477C"/>
<stop offset="1" stop-color="#81D187"/>
</linearGradient>
<linearGradient id="paint5_linear_2507_1391" x1="23.2479" y1="-7.42144" x2="23.2479" y2="38.1322" gradientUnits="userSpaceOnUse">
<stop stop-color="#E7E09C"/>
<stop offset="1" stop-color="#C7B65F"/>
</linearGradient>
<linearGradient id="paint6_linear_2507_1391" x1="39.8014" y1="-9.9666" x2="39.8014" y2="35.587" gradientUnits="userSpaceOnUse">
<stop stop-color="#E7E09C"/>
<stop offset="1" stop-color="#C7B65F"/>
</linearGradient>
<linearGradient id="paint7_linear_2507_1391" x1="25.792" y1="60.1938" x2="23.3013" y2="47.3291" gradientUnits="userSpaceOnUse">
<stop stop-color="#DD3152"/>
<stop offset="1" stop-color="#ED845E"/>
</linearGradient>
<linearGradient id="paint8_linear_2507_1391" x1="81.4694" y1="62.7501" x2="68.3721" y2="49.5998" gradientUnits="userSpaceOnUse">
<stop stop-color="#FFDDD4"/>
<stop offset="1" stop-color="#FFA489"/>
</linearGradient>
<linearGradient id="paint9_linear_2507_1391" x1="66.849" y1="37.0172" x2="63.9102" y2="69.3967" gradientUnits="userSpaceOnUse">
<stop stop-color="#FFE0E3"/>
<stop offset="1" stop-color="#FFC9AE"/>
</linearGradient>
<linearGradient id="paint10_linear_2507_1391" x1="67.3712" y1="39.18" x2="64.2048" y2="50.7287" gradientUnits="userSpaceOnUse">
<stop stop-color="#FFA489"/>
<stop offset="1" stop-color="#FF6363"/>
</linearGradient>
<linearGradient id="paint11_linear_2507_1391" x1="86.6044" y1="56.4201" x2="89.9536" y2="33.0894" gradientUnits="userSpaceOnUse">
<stop stop-color="#31477C"/>
<stop offset="1" stop-color="#81D187"/>
</linearGradient>
<linearGradient id="paint12_linear_2507_1391" x1="46.5636" y1="57.5249" x2="42.3791" y2="30.9082" gradientUnits="userSpaceOnUse">
<stop stop-color="#31477C"/>
<stop offset="1" stop-color="#81D187"/>
</linearGradient>
<linearGradient id="paint13_linear_2507_1391" x1="24.7409" y1="52.9076" x2="23.8208" y2="48.8743" gradientUnits="userSpaceOnUse">
<stop stop-color="#DD3152"/>
<stop offset="1" stop-color="#ED845E"/>
</linearGradient>
<linearGradient id="paint14_linear_2507_1391" x1="52.5" y1="45.9928" x2="52.5" y2="140.107" gradientUnits="userSpaceOnUse">
<stop stop-color="#FFE0E3"/>
<stop offset="1" stop-color="#FFC9AE"/>
</linearGradient>
<clipPath id="clip0_2507_1391">
<rect width="105" height="113" fill="white"/>
</clipPath>
</defs>
</svg>
