<svg width="117" height="105" viewBox="0 0 117 105" fill="none" xmlns="http://www.w3.org/2000/svg">
<path d="M67.7328 23.7305L91.1526 23.8923L90.9156 58.1975C90.871 64.6584 85.5902 69.8757 79.1203 69.831C72.6593 69.7863 67.4421 64.5056 67.4868 58.0357L67.7238 23.7305L67.7328 23.7305Z" fill="url(#paint0_linear_2507_1364)"/>
<path d="M90.9371 55.0617L90.9155 58.1976C90.8708 64.6585 85.5902 69.8667 79.1202 69.822C72.6502 69.7773 67.451 64.4967 67.4957 58.0358L67.5173 54.8999C74.048 48.7631 81.0091 53.3801 84.9538 55.0204C88.8986 56.6517 90.9371 55.0617 90.9371 55.0617Z" fill="url(#paint1_linear_2507_1364)"/>
<path d="M78.3349 37.303C79.2396 39.4 80.8908 39.0869 81.8438 38.1113C82.7967 37.1446 81.7542 34.1276 79.4303 35.274C78.3361 35.8161 78.1043 36.7608 78.3349 37.294L78.3349 37.303Z" fill="url(#paint2_linear_2507_1364)"/>
<path d="M70.7227 10.883L87.9248 11.0018C90.9616 11.0228 93.4046 13.4998 93.3836 16.5366L93.348 21.6999C93.3396 22.9164 92.3506 23.8918 91.1341 23.8834L67.3268 23.719C66.1103 23.7106 65.1349 22.7216 65.1433 21.5051L65.1789 16.3417C65.1999 13.305 67.6769 10.862 70.7137 10.8829L70.7227 10.883Z" fill="url(#paint3_linear_2507_1364)"/>
<path d="M91.0962 31.8852L88.1495 31.8648C87.6539 31.8614 87.2512 31.4531 87.2546 30.9575C87.2581 30.4619 87.6664 30.0592 88.162 30.0626L91.1086 30.083C91.6042 30.0864 92.0069 30.4947 92.0035 30.9903C92.0001 31.4859 91.5918 31.8886 91.0962 31.8852Z" fill="#332C44"/>
<path d="M91.0444 39.6349L88.0978 39.6146C87.6022 39.6112 87.1995 39.2029 87.2029 38.7073C87.2063 38.2117 87.6146 37.809 88.1102 37.8124L91.0568 37.8327C91.5525 37.8362 91.9551 38.2445 91.9517 38.7401C91.9483 39.2357 91.54 39.6384 91.0444 39.6349Z" fill="#332C44"/>
<path d="M90.9897 47.3845L88.0431 47.3641C87.5475 47.3607 87.1448 46.9524 87.1482 46.4568C87.1516 45.9612 87.5599 45.5585 88.0555 45.5619L91.0022 45.5822C91.4978 45.5857 91.9005 45.994 91.897 46.4896C91.8936 46.9852 91.4853 47.3879 90.9897 47.3845Z" fill="#332C44"/>
<path d="M77.0737 42.9115C73.3647 42.8504 72.7385 45.5085 73.5294 47.5674C74.3284 49.6302 79.4868 50.0872 79.3263 45.8819C79.2542 43.9081 78.005 42.9287 77.0656 42.9076L77.0737 42.9115Z" fill="url(#paint4_linear_2507_1364)"/>
<path d="M40.0365 33.3529C41.0818 29.496 39.7481 21.8094 35.0442 22.7105C33.0527 23.089 31.674 24.5939 31.3316 26.6575C30.8449 29.5771 33.9719 30.4332 34.3503 33.7494C34.6477 36.3807 39.1534 36.6059 40.0365 33.3438V33.3529Z" fill="url(#paint5_linear_2507_1364)"/>
<path d="M26.3403 15.6185C23.1323 17.0964 23.691 19.6376 25.2229 21.0704C26.7548 22.5122 31.3686 20.773 29.5033 17.2316C28.6292 15.5645 27.1513 15.2401 26.3403 15.6185Z" fill="url(#paint6_linear_2507_1364)"/>
<path d="M44.3895 45.1306C45.7052 45.1306 46.7685 46.1939 46.7685 47.5096V66.4423C46.7685 67.4155 47.1199 68.3437 47.7687 69.0556C47.7687 69.0556 62.6284 82.942 67.7558 91.3586C70.7926 96.3418 68.3956 101.235 62.7275 102.614C56.2484 104.191 39.8208 104.191 34.5402 104.191C29.2595 104.191 12.8319 104.191 6.35282 102.614C0.684719 101.235 -1.71229 96.3418 1.32452 91.3586C6.45195 82.942 21.3116 69.0556 21.3116 69.0556C21.9604 68.3437 22.3118 67.4065 22.3118 66.4423V47.5096C22.3118 46.1939 23.3752 45.1306 24.6908 45.1306H44.3805H44.3895Z" fill="url(#paint7_linear_2507_1364)"/>
<path d="M67.7558 91.3768C66.314 88.9978 64.0882 86.1863 61.6461 83.3747H61.6371C56.2304 80.6083 50.1838 80.5272 45.0293 81.3562C36.0631 82.78 28.3494 87.6371 20.6267 88.2318C12.1201 88.8897 7.69551 85.5104 6.64118 84.3029C4.51452 86.799 2.61314 89.2591 1.32452 91.3768C-1.71229 96.351 0.684719 101.244 6.35282 102.632C12.841 104.209 29.2595 104.209 34.5402 104.209C39.8208 104.209 56.2484 104.209 62.7275 102.632C68.4046 101.244 70.7926 96.351 67.7558 91.3768Z" fill="url(#paint8_linear_2507_1364)"/>
<path d="M15.7978 79.7611C15.6536 79.7611 15.5094 79.7251 15.3742 79.653L12.5537 78.1391C12.1121 77.9048 11.9499 77.3551 12.1842 76.9226C12.4185 76.481 12.9682 76.3188 13.4007 76.5531L16.2213 78.067C16.6628 78.3013 16.825 78.851 16.5907 79.2835C16.4285 79.5899 16.1131 79.7611 15.7978 79.7611Z" fill="#332C44"/>
<path d="M20.1767 75.1385C20.0325 75.1385 19.8883 75.1024 19.7532 75.0304L17.0498 73.5795C16.6082 73.3452 16.446 72.7956 16.6803 72.363C16.9146 71.9215 17.4643 71.7593 17.8968 71.9935L20.6002 73.4444C21.0418 73.6787 21.204 74.2283 20.9697 74.6609C20.8075 74.9673 20.4921 75.1385 20.1767 75.1385Z" fill="#332C44"/>
<defs>
<linearGradient id="paint0_linear_2507_1364" x1="79.0723" y1="76.7785" x2="79.4182" y2="26.7039" gradientUnits="userSpaceOnUse">
<stop stop-color="#FFD3BD"/>
<stop offset="1" stop-color="white"/>
</linearGradient>
<linearGradient id="paint1_linear_2507_1364" x1="79.2343" y1="54.6114" x2="79.1071" y2="73.021" gradientUnits="userSpaceOnUse">
<stop stop-color="#FFD160"/>
<stop offset="1" stop-color="#ED7C38"/>
</linearGradient>
<linearGradient id="paint2_linear_2507_1364" x1="81.6085" y1="35.6495" x2="72.5442" y2="44.5984" gradientUnits="userSpaceOnUse">
<stop stop-color="#FFD160"/>
<stop offset="1" stop-color="#ED7C38"/>
</linearGradient>
<linearGradient id="paint3_linear_2507_1364" x1="79.2237" y1="24.7744" x2="79.3233" y2="10.3567" gradientUnits="userSpaceOnUse">
<stop stop-color="#473051"/>
<stop offset="0.18" stop-color="#483454"/>
<stop offset="0.37" stop-color="#4C4060"/>
<stop offset="0.56" stop-color="#535574"/>
<stop offset="0.75" stop-color="#5D718F"/>
<stop offset="0.94" stop-color="#6A96B3"/>
<stop offset="1" stop-color="#6FA4C0"/>
</linearGradient>
<linearGradient id="paint4_linear_2507_1364" x1="77.9897" y1="45.4803" x2="71.994" y2="47.5801" gradientUnits="userSpaceOnUse">
<stop stop-color="#FFD160"/>
<stop offset="1" stop-color="#ED7C38"/>
</linearGradient>
<linearGradient id="paint5_linear_2507_1364" x1="31.683" y1="24.4497" x2="42.9381" y2="35.7048" gradientUnits="userSpaceOnUse">
<stop stop-color="#DD3152"/>
<stop offset="1" stop-color="#ED845E"/>
</linearGradient>
<linearGradient id="paint6_linear_2507_1364" x1="26.9711" y1="14.2939" x2="26.9711" y2="24.4136" gradientUnits="userSpaceOnUse">
<stop stop-color="#DD3152"/>
<stop offset="1" stop-color="#ED845E"/>
</linearGradient>
<linearGradient id="paint7_linear_2507_1364" x1="34.5402" y1="108.777" x2="34.5402" y2="45.3649" gradientUnits="userSpaceOnUse">
<stop stop-color="#FFD3BD"/>
<stop offset="1" stop-color="white"/>
</linearGradient>
<linearGradient id="paint8_linear_2507_1364" x1="34.5402" y1="104.326" x2="34.5402" y2="83.4018" gradientUnits="userSpaceOnUse">
<stop stop-color="#DD3152"/>
<stop offset="1" stop-color="#ED845E"/>
</linearGradient>
</defs>
</svg>
