<svg width="53" height="53" viewBox="0 0 53 53" fill="none" xmlns="http://www.w3.org/2000/svg">
<path d="M46.7914 9.44538H49.2143C50.2554 9.44538 51.1071 8.59359 51.1071 7.55252C51.1071 6.51145 50.2554 5.65967 49.2143 5.65967H41.6429C40.6018 5.65967 39.75 6.51145 39.75 7.55252V15.124C39.75 16.165 40.6018 17.0168 41.6429 17.0168C42.6839 17.0168 43.5357 16.165 43.5357 15.124V11.4707C47.2079 15.6161 49.2143 20.8782 49.2143 26.4811C49.2143 39.0118 39.0307 49.1954 26.5 49.1954C13.9693 49.1954 3.78571 39.0118 3.78571 26.4811C3.78571 13.9504 13.9693 3.76681 26.5 3.76681C28.2793 3.76681 30.0396 3.97502 31.7432 4.37252C32.7464 4.61859 33.7875 3.97502 34.0146 2.97181C34.2607 1.94967 33.6171 0.927523 32.6139 0.70038C30.6264 0.227165 28.5632 2.25744e-05 26.5 2.25744e-05C11.8871 -0.018906 0 11.8682 0 26.4811C0 41.0939 11.8871 52.9811 26.5 52.9811C41.1129 52.9811 53 41.0939 53 26.4811C53 20.159 50.8043 14.2154 46.7914 9.44538Z" fill="#003970"/>
<path d="M24.6085 11.3389V25.8003L15.5796 36.6275C14.9171 37.4225 15.0117 38.615 15.8257 39.2964C16.1853 39.5993 16.6017 39.7318 17.0371 39.7318C17.586 39.7318 18.116 39.5046 18.4946 39.0503L27.9589 27.6932C28.2428 27.3525 28.3942 26.9171 28.3942 26.4818V11.3389C28.3942 10.2978 27.5424 9.44604 26.5014 9.44604C25.4603 9.44604 24.6085 10.2978 24.6085 11.3389Z" fill="#003970"/>
</svg>