<svg width="139" height="139" viewBox="0 0 139 139" fill="none" xmlns="http://www.w3.org/2000/svg">
<path d="M6.86945 42.2103L6.86952 42.2104C14.4607 58.6279 27.9407 76.9651 44.8399 93.8342C61.7289 110.733 80.066 124.213 96.4834 131.804C105.618 136.031 113.653 138.171 120.203 138.171C125.775 138.171 130.298 136.623 133.477 133.444C137.588 129.333 138.965 123.003 137.836 115.123C136.706 107.24 133.06 97.723 127.008 87.1128L127.006 87.11C126.429 86.1131 125.166 85.7702 124.167 86.3354L124.163 86.3378C123.166 86.915 122.823 88.1778 123.388 89.1768L123.389 89.1783C128.942 98.9142 132.359 107.66 133.558 114.782C134.76 121.922 133.72 127.317 130.53 130.507C127.884 133.149 123.667 134.319 118.137 133.921C112.613 133.523 105.851 131.562 98.2231 128.037L98.223 128.037C82.271 120.668 64.3583 107.488 47.7769 90.907C31.2056 74.3357 18.0159 56.413 10.6473 40.4611C7.12714 32.8331 5.16622 26.0714 4.76705 20.547C4.36747 15.0169 5.53543 10.8005 8.17695 8.15407C11.2464 5.08966 16.4123 4.02202 23.2328 5.04751C30.0375 6.07062 38.3817 9.16494 47.6612 14.268C48.6742 14.8326 49.9397 14.4631 50.4923 13.45C51.041 12.4441 50.6916 11.1783 49.6742 10.6224C39.5281 5.04528 30.4133 1.73264 22.8506 0.784447C15.291 -0.163335 9.20604 1.24558 5.23957 5.21724C1.77931 8.67766 0.247144 13.7316 0.543917 19.9917C0.840541 26.2487 2.96391 33.7566 6.86945 42.2103Z" fill="#F8BD03" stroke="#F8BD03"/>
<path d="M74.4507 134.281L74.4522 134.282C75.4637 134.833 75.8336 136.096 75.2928 137.098L75.2914 137.1C74.9117 137.794 74.2013 138.19 73.4628 138.19C73.1335 138.19 72.7912 138.112 72.4748 137.94C72.4747 137.94 72.4747 137.94 72.4746 137.94L72.7128 137.5C47.1228 123.65 15.0428 91.5705 1.19276 65.9805L74.4507 134.281ZM74.4507 134.281C61.9416 127.511 47.8199 116.268 35.1226 103.571C22.4257 90.8738 11.1831 76.7526 4.41325 64.2439C3.87262 63.2306 2.6091 62.849 1.59555 63.4003C0.582292 63.9414 0.201064 65.2056 0.753408 66.2192L74.4507 134.281Z" fill="#F8BD03" stroke="#F8BD03"/>
<path d="M46.5365 137.215L46.5371 137.214C47.1433 136.239 46.8403 134.951 45.8664 134.346C31.7717 125.556 13.1375 106.922 4.35768 92.8373C3.74997 91.8485 2.46042 91.5625 1.48978 92.1649C0.500231 92.7728 0.214284 94.0634 0.817825 95.0343L0.818173 95.0349C9.89854 109.6 29.0932 128.794 43.6681 137.875L43.6704 137.876C44.0091 138.085 44.3898 138.19 44.7725 138.19C45.455 138.19 46.14 137.85 46.5365 137.215Z" fill="#F8BD03" stroke="#F8BD03"/>
</svg>
