<svg width="103" height="99" viewBox="0 0 103 99" fill="none" xmlns="http://www.w3.org/2000/svg">
<g clip-path="url(#clip0_2507_1420)">
<path d="M34.3269 7.07959L34.5674 9.35932C34.7597 11.1677 33.4421 12.803 31.6146 12.9953L31.0472 13.0531C30.6528 13.0915 30.3739 13.4474 30.4124 13.8322L30.4701 14.419C30.6624 16.2274 29.3255 17.8626 27.4981 18.055L25.2186 18.2955C23.4104 18.4879 21.7753 17.1508 21.583 15.3424L21.5253 14.7749C21.4868 14.3805 21.1309 14.0919 20.7462 14.1304L20.1787 14.1881C18.3513 14.3805 16.7355 13.0627 16.5431 11.2351L16.3026 8.95532C16.1103 7.12769 17.428 5.51167 19.2554 5.31929L19.8229 5.26157C20.2076 5.2231 20.4961 4.86719 20.448 4.47281L20.3903 3.90528C20.198 2.09688 21.5349 0.461634 23.3431 0.269251L25.6322 0.0191539C27.4596 -0.173229 29.0947 1.16383 29.287 2.97222L29.3448 3.53975C29.3832 3.93414 29.7295 4.23233 30.1238 4.18423L30.6913 4.12652C32.5187 3.93414 34.1346 5.25196 34.3269 7.07959Z" fill="url(#paint0_linear_2507_1420)"/>
<path d="M14.3309 28.6457V30.4541C14.3309 31.897 13.1671 33.0801 11.7244 33.0801H11.2627C10.9453 33.0801 10.6953 33.3302 10.6953 33.6476V34.0997C10.6953 35.5426 9.51225 36.7258 8.06954 36.7258H6.26134C4.81863 36.7258 3.63561 35.5426 3.63561 34.0997V33.6476C3.63561 33.3302 3.38554 33.0801 3.06814 33.0801H2.61609C1.17338 33.0801 -0.00964355 31.897 -0.00964355 30.4541V28.6457C-0.00964355 27.2028 1.17338 26.0197 2.61609 26.0197H3.06814C3.38554 26.0197 3.63561 25.7696 3.63561 25.4521V25C3.63561 23.5572 4.81863 22.374 6.26134 22.374H8.06954C9.51225 22.374 10.6953 23.5572 10.6953 25V25.4521C10.6953 25.7696 10.9453 26.0197 11.2627 26.0197H11.7244C13.1671 26.0197 14.3309 27.2028 14.3309 28.6457Z" fill="url(#paint1_linear_2507_1420)"/>
<path d="M69.1444 29.2807C65.9897 29.2614 62.7484 29.271 59.7379 29.2903C56.7274 29.271 53.4765 29.2518 50.3314 29.2903C47.2344 29.3095 44.2432 29.3769 41.6367 29.4827C39.7515 29.55 38.078 29.6462 36.7122 29.7712C26.0169 30.7331 20.8232 37.1202 18.8515 47.682C17.4087 55.4062 16.1007 76.347 16.5623 83.7826C17.3222 96.0181 25.2475 97.1147 36.6257 98.4518C42.6658 99.154 76.1175 99.2405 82.8501 98.4518C94.2187 97.1147 102.144 96.0181 102.913 83.7826C103.375 76.347 102.067 55.4062 100.624 47.682C98.6623 37.1299 93.4685 30.7428 82.7636 29.7712C81.4074 29.6558 79.7243 29.5596 77.8391 29.4827C75.2326 29.3769 72.2318 29.3191 69.1444 29.2807Z" fill="url(#paint2_linear_2507_1420)"/>
<path d="M75.1841 62.1876V66.0834C75.1841 69.2096 72.645 71.7394 69.5383 71.7394H68.5573C67.8744 71.7394 67.3262 72.2877 67.3262 72.9514V73.9326C67.3262 77.0588 64.787 79.5886 61.6804 79.5886H57.7754C54.6495 79.5886 52.12 77.0492 52.12 73.9326V72.9707C52.12 72.2877 51.5718 71.7394 50.9081 71.7394H49.9271C46.8204 71.7394 44.2812 69.2 44.2812 66.093V62.178C44.2812 59.0518 46.8204 56.5316 49.9271 56.5316H50.9081C51.5718 56.5316 52.12 55.9833 52.12 55.3003V54.3384C52.12 51.2122 54.6592 48.6824 57.7754 48.6824H61.6804C64.787 48.6824 67.3262 51.2218 67.3262 54.3384V55.3196C67.3262 55.9833 67.8744 56.5316 68.5573 56.5316H69.5383C72.645 56.5316 75.1841 59.071 75.1841 62.1876Z" fill="white"/>
<path d="M59.7379 11.8508C69.5676 11.8508 77.5794 19.7097 77.8488 29.4827C75.2423 29.3769 72.2414 29.3192 69.154 29.2807C68.7981 24.3942 64.7105 20.5369 59.7475 20.5369C54.7846 20.5369 50.6969 24.4134 50.341 29.2903C47.244 29.3095 44.2528 29.3769 41.6463 29.4827C41.906 19.7097 49.9275 11.8508 59.7571 11.8508H59.7379Z" fill="url(#paint3_linear_2507_1420)"/>
<path d="M75.1841 66.0834V62.1876C75.1841 59.0614 72.645 56.5316 69.5383 56.5316H68.5573C67.8744 56.5316 67.3262 55.9833 67.3262 55.3196V54.3384C67.3262 51.2122 64.787 48.6824 61.6804 48.6824H57.7754C54.6495 48.6824 52.12 51.2218 52.12 54.3384V55.3003C52.12 55.9833 51.5718 56.5316 50.9081 56.5316H49.9271C46.8204 56.5316 44.2812 59.0614 44.2812 62.178V66.093C44.2812 69.2 46.8204 71.7394 49.9271 71.7394H50.9081C51.5718 71.7394 52.12 72.2877 52.12 72.9707V73.9326C52.12 77.0588 54.6592 79.5886 57.7754 79.5886H61.6804C64.787 79.5886 67.3262 77.0492 67.3262 73.9326V72.9514C67.3262 72.2877 67.8744 71.7394 68.5573 71.7394H69.5383C72.645 71.7394 75.1841 69.2 75.1841 66.0834Z" fill="white"/>
</g>
<defs>
<linearGradient id="paint0_linear_2507_1420" x1="22.8237" y1="-6.32947" x2="27.7396" y2="22.8163" gradientUnits="userSpaceOnUse">
<stop stop-color="#05F2DB"/>
<stop offset="0.08" stop-color="#04E6D0"/>
<stop offset="0.31" stop-color="#03CAB7"/>
<stop offset="0.54" stop-color="#03B6A4"/>
<stop offset="0.77" stop-color="#03AA99"/>
<stop offset="1" stop-color="#03A696"/>
</linearGradient>
<linearGradient id="paint1_linear_2507_1420" x1="7.16544" y1="21.6911" x2="7.16544" y2="38.842" gradientUnits="userSpaceOnUse">
<stop stop-color="#05F2DB"/>
<stop offset="0.08" stop-color="#04E6D0"/>
<stop offset="0.31" stop-color="#03CAB7"/>
<stop offset="0.54" stop-color="#03B6A4"/>
<stop offset="0.77" stop-color="#03AA99"/>
<stop offset="1" stop-color="#03A696"/>
</linearGradient>
<linearGradient id="paint2_linear_2507_1420" x1="59.7379" y1="28.2418" x2="59.7379" y2="122.557" gradientUnits="userSpaceOnUse">
<stop stop-color="#04D99D"/>
<stop offset="0.26" stop-color="#03D19C"/>
<stop offset="0.64" stop-color="#03BE99"/>
<stop offset="1" stop-color="#03A696"/>
</linearGradient>
<linearGradient id="paint3_linear_2507_1420" x1="59.7379" y1="44.2865" x2="59.7379" y2="-9.40743" gradientUnits="userSpaceOnUse">
<stop stop-color="#473051"/>
<stop offset="0.18" stop-color="#483454"/>
<stop offset="0.37" stop-color="#4C4060"/>
<stop offset="0.56" stop-color="#535574"/>
<stop offset="0.75" stop-color="#5D718F"/>
<stop offset="0.94" stop-color="#6A96B3"/>
<stop offset="1" stop-color="#6FA4C0"/>
</linearGradient>
<clipPath id="clip0_2507_1420">
<rect width="103" height="99" fill="white"/>
</clipPath>
</defs>
</svg>