<svg width="92" height="84" viewBox="0 0 92 84" fill="none" xmlns="http://www.w3.org/2000/svg">
<path d="M90.8005 13.0122C90.5552 8.94358 88.6791 7.49971 87.1392 7.49971H87.1346C85.4811 7.49971 83.7232 9.11426 83.5233 12.7032C83.2008 18.4971 80.8568 29.7251 74.3246 30.7677C72.4622 31.0629 70.8496 30.7769 69.4914 30.2187C72.0397 28.0875 73.666 24.8584 73.666 21.251C73.666 14.8482 68.5374 9.63553 62.2278 9.63553C55.9182 9.63553 50.7897 14.8436 50.7897 21.251C50.7897 24.8769 52.4341 28.1198 55.0052 30.251C53.6333 31.1413 52.257 32.0316 51.0305 32.8112C48.8728 31.0721 46.5742 29.6882 44.362 28.5857C46.1927 26.2977 47.292 23.3823 47.292 20.2131C47.292 12.8785 41.4139 6.90925 34.1912 6.90925C26.9686 6.90925 21.0905 12.8785 21.0905 20.2131C21.0905 24.6693 23.2619 28.6226 26.587 31.0352C24.8518 31.9394 22.744 32.3315 20.3183 31.4642C13.4227 29.0055 9.6615 12.8785 9.32535 6.87234C9.10276 2.82213 7.14493 1 5.30519 1H5.30065C3.58811 1 1.494 2.633 1.22144 7.23677C0.490094 19.4889 1.01249 34.9194 11.642 45.5523C13.9905 47.9003 15.3669 49.5425 15.8939 53.4451V82.3271C15.8939 82.6085 16.0029 82.876 16.1982 83.0744C16.3935 83.2728 16.657 83.3835 16.9341 83.3835H77.0229C77.5953 83.3835 78.0632 82.913 78.0632 82.3271V49.9024C78.5129 46.5948 79.7757 45.1925 81.779 43.1951C91.2048 33.7615 91.4046 23.1147 90.8005 13.0122ZM52.8747 21.251C52.8747 16.0107 57.0721 11.7483 62.2324 11.7483C67.3927 11.7483 71.59 16.0107 71.59 21.251C71.59 26.4914 67.3927 30.7538 62.2324 30.7538C57.0721 30.7538 52.8747 26.4914 52.8747 21.251ZM23.1756 20.2177C23.1756 14.0456 28.1179 9.02661 34.1958 9.02661C40.2737 9.02661 45.216 14.0456 45.216 20.2177C45.216 26.3899 40.2737 31.4089 34.1958 31.4089C28.1179 31.4089 23.1756 26.3899 23.1756 20.2177ZM39.4515 81.2753C38.9246 76.238 37.103 72.5245 34.0186 70.218C26.0828 64.2857 24.9199 58.6117 24.7473 57.0156C24.6655 56.2314 24.7246 55.7101 24.8063 55.4011C24.8654 55.4795 24.929 55.581 25.0062 55.7055C27.5591 60.1248 30.5527 62.6019 33.9096 63.0725C37.2302 63.5338 39.9149 61.8823 41.1277 60.9551C42.7539 62.1176 44.73 62.8049 46.865 62.8049C49 62.8049 50.976 62.1176 52.6022 60.9551C53.815 61.8823 56.5042 63.5338 59.8203 63.0725C63.1772 62.6019 66.1708 60.1248 68.7237 55.7055C68.7964 55.5763 68.8645 55.4795 68.9236 55.4011C69.0008 55.7101 69.0644 56.2314 68.9826 57.0156C68.8145 58.6117 67.6471 64.2857 59.7158 70.218C56.6314 72.5245 54.8053 76.2426 54.2829 81.2753H39.4606H39.4515ZM46.8604 60.6922C42.5041 60.6922 38.9609 57.094 38.9609 52.6702C38.9609 48.2463 42.5041 44.6482 46.8604 44.6482C51.2167 44.6482 54.7599 48.2463 54.7599 52.6702C54.7599 57.094 51.2167 60.6922 46.8604 60.6922ZM80.3163 41.6912C78.0495 43.9608 76.5232 45.7414 76.0054 49.6948C76.0008 49.7409 75.9827 49.787 75.9827 49.8332V81.2753H56.368C56.8586 76.9714 58.3894 73.8254 60.9378 71.9202C69.7367 65.3421 71.7399 58.1366 70.9359 54.8982C70.568 53.4036 69.6549 53.1176 69.2779 53.0623C68.6692 52.9746 67.7652 53.173 66.9203 54.6353C64.7126 58.4549 62.2324 60.5907 59.5477 60.9735C57.2492 61.3057 55.2732 60.2585 54.2012 59.5205C55.8365 57.7168 56.8358 55.3088 56.8358 52.6655C56.8358 47.0792 52.3569 42.5308 46.8559 42.5308C41.3548 42.5308 36.8759 47.0792 36.8759 52.6655C36.8759 55.3088 37.8753 57.7168 39.5151 59.5205C38.4522 60.2585 36.4898 61.2918 34.1867 60.9735C31.493 60.5953 29.0082 58.4641 26.7914 54.6307C25.9465 53.1684 25.0426 52.9654 24.4339 53.0576C24.0568 53.113 23.1438 53.399 22.7758 54.8936C21.9763 58.1319 23.9751 65.3328 32.774 71.911C35.3223 73.8161 36.8532 76.9622 37.3438 81.2707H18.0652V53.3759C18.0652 53.3298 18.0652 53.2791 18.0561 53.2329C17.461 48.703 15.7076 46.6548 13.1002 44.0485C3.07026 34.0106 2.59329 19.1706 3.29739 7.36593C3.46092 4.60275 4.4512 3.11275 5.30065 3.11275C6.02292 3.11275 7.10404 4.32136 7.25395 6.99689C7.57647 12.7631 11.2514 30.4724 19.6369 33.4616C23.2937 34.7671 26.3281 33.8307 28.6448 32.2623C30.3301 33.0695 32.2152 33.5216 34.2003 33.5216C37.5073 33.5216 40.5326 32.2669 42.8403 30.2095C48.5866 32.9496 55.1551 37.7287 57.7262 45.7691C57.9033 46.3227 58.4893 46.6271 59.0344 46.4472C59.5795 46.2673 59.8793 45.6722 59.7022 45.1187C58.2577 40.5979 55.6866 37.0367 52.6976 34.2505C54.024 33.4017 55.4867 32.456 56.9085 31.5288C58.4984 32.3822 60.3109 32.8666 62.2324 32.8666C64.1539 32.8666 65.8846 32.4007 67.4518 31.5795C69.3369 32.6359 71.7354 33.3186 74.6472 32.8527C82.4785 31.6072 85.2131 19.678 85.5992 12.8231C85.7219 10.6365 86.5895 9.61246 87.1392 9.61246C87.707 9.61246 88.5746 10.7057 88.72 13.1414C89.2923 22.7549 89.1197 32.8804 80.3117 41.6912H80.3163Z" fill="#003970" stroke="#003970" stroke-width="0.5"/>
</svg>
