<svg width="97" height="102" viewBox="0 0 97 102" fill="none" xmlns="http://www.w3.org/2000/svg">
<path d="M23.1443 5.53362L22.9675 5.35686C22.9667 5.35762 22.9658 5.35848 22.9649 5.35944C22.9507 5.37359 22.9159 5.40821 22.8863 5.44927C18.9743 10.1504 17.5074 15.3549 18.5432 20.8858L18.5432 20.8859C20.1262 29.3234 27.2279 37.0632 34.0146 42.7466C40.813 48.4398 47.351 52.1148 47.8889 52.4137L47.8889 52.4138L47.8939 52.4164C48.0884 52.5188 48.297 52.5718 48.5084 52.5718L48.5104 52.5633L74.0239 5.34841C71.0648 2.38018 67.1184 0.75 62.925 0.75C55.5244 0.75 50.554 5.76442 48.4999 8.32193C46.4465 5.76448 41.4837 0.75 34.0749 0.75C29.8812 0.75 25.9348 2.38035 22.9672 5.35711L23.1443 5.53362ZM23.1443 5.53362C26.0647 2.60407 29.9474 1 34.0749 1C41.4111 1 46.3245 5.99849 48.3405 8.52283L23.0852 5.60115C23.1021 5.57583 23.1274 5.5505 23.1443 5.53362ZM74.0915 5.41595L74.0242 5.34867L78.2109 20.8314L78.4567 20.8774C78.4567 20.8774 78.4567 20.8774 78.4567 20.8773C79.493 15.3431 78.0238 10.1444 74.1069 5.43289L74.0996 5.42407L74.0915 5.41595ZM75.9648 20.4138L75.9648 20.4139C74.6226 27.5851 68.6425 34.4343 62.5045 39.7713C56.5154 44.9789 50.4247 48.7054 48.4999 49.837C46.5752 48.7054 40.4845 44.9768 34.4953 39.7681C28.3574 34.4302 22.3774 27.581 21.0351 20.4141C20.1561 15.6777 21.4104 11.2043 24.806 7.10409C27.2905 4.64831 30.5747 3.29308 34.0749 3.29308C38.2227 3.29308 41.5455 5.23076 43.8473 7.19387C46.0954 9.11117 47.3511 11.0372 47.4275 11.1546C47.6595 11.5319 48.0606 11.7524 48.4999 11.7524C48.9342 11.7524 49.3423 11.5206 49.5725 11.1542L49.5726 11.1543L49.5753 11.1498L49.5757 11.1491C49.5789 11.1441 49.5985 11.1133 49.6363 11.0569C49.6769 10.9964 49.7365 10.9093 49.8149 10.7993C49.9717 10.5793 50.2031 10.2684 50.506 9.89703C51.112 9.154 52.0027 8.17087 53.1525 7.19075C55.4543 5.22873 58.777 3.29308 62.925 3.29308C66.4256 3.29308 69.7095 4.64016 72.1936 7.10385C75.5898 11.213 76.852 15.6864 75.9648 20.4138Z" fill="white" stroke="white" stroke-width="0.5"/>
<path d="M48.4876 101.709C46.9013 101.699 45.8738 100.731 45.1459 99.3888C44.4211 98.0519 43.9627 96.2902 43.5223 94.5981L43.5194 94.5868L48.4876 101.709ZM48.4876 101.709V101.709M48.4876 101.709V101.709M48.4876 101.709H48.5124V101.709C50.0948 101.699 51.1202 100.731 51.8479 99.3888C52.5685 98.0596 53.0279 96.3103 53.47 94.6271L53.4805 94.587C54.1163 92.1759 54.757 86.9297 55.4273 81.4175C56.0671 76.1919 56.7283 70.8171 57.3116 68.5733L57.3274 68.5133C57.6599 67.2514 58.0055 65.9399 58.4354 64.9374C58.6539 64.428 58.8868 64.0165 59.1379 63.7358C59.3873 63.4573 59.6341 63.3288 59.8889 63.3288C60.1435 63.3288 60.3909 63.4576 60.641 63.737C60.8929 64.0184 61.1266 64.4308 61.3455 64.9406C61.7833 65.9601 62.1331 67.2977 62.4662 68.5735L62.4663 68.5737C63.0455 70.7869 63.6817 74.7846 64.3069 78.7133L64.3517 78.9945C64.9893 83.0498 65.6629 87.2595 66.2887 89.6561L48.4876 101.709ZM88.9187 79.0225L89.1624 78.9667C89.1625 78.9672 89.1627 78.9677 89.1628 78.9682C89.2453 79.3278 89.3542 79.5533 89.5472 79.7038C89.7455 79.8584 90.0759 79.9677 90.68 79.9842H94.9967C95.6921 79.9842 96.25 80.5491 96.25 81.2453C96.25 81.9414 95.6921 82.5064 94.9967 82.5064H90.6517H90.6466C89.5868 82.4847 88.71 82.2311 88.0407 81.727C87.3689 81.2209 86.9315 80.4814 86.718 79.5372L86.7176 79.5354C86.6269 79.12 85.6659 75.0039 85.2607 73.4623L85.2606 73.4619C84.9274 72.1861 84.5776 70.8485 84.1399 69.829C83.921 69.3191 83.6873 68.9068 83.4354 68.6254C83.1853 68.346 82.9378 68.2172 82.6833 68.2172C82.4285 68.2172 82.1816 68.3456 81.9323 68.6242C81.6811 68.9049 81.4482 69.3164 81.2298 69.8258C80.7999 70.8283 80.4543 72.1397 80.1218 73.4016L80.1059 73.462C79.8046 74.6143 79.0023 78.0564 78.1969 81.512L78.1952 81.5193C77.3904 84.9719 76.5829 88.4363 76.275 89.6145L76.275 89.6147L76.2668 89.6461C75.8444 91.258 75.406 92.9306 74.7372 94.2362C74.0665 95.5454 73.1343 96.542 71.7023 96.7073C71.5712 96.7514 71.4285 96.7788 71.2819 96.7788C69.6815 96.7788 68.6471 95.8083 67.9154 94.4586C67.1906 93.1217 66.7322 91.36 66.2918 89.6678L66.2888 89.6563L75.7766 80.9115L75.7783 80.9044C76.583 77.4517 77.3905 73.9874 77.6984 72.8091L77.6985 72.8088L77.7091 72.7685C78.1512 71.0853 78.6106 69.336 79.3312 68.0068C80.0627 66.6575 81.095 65.6867 82.6915 65.6867C84.2879 65.6867 85.3223 66.6573 86.0549 68.0067C86.7824 69.3467 87.2434 71.1133 87.6847 72.8094M88.9187 79.0225C88.8275 78.5963 87.8574 74.4433 87.4428 72.8723M88.9187 79.0225C89.0929 79.7829 89.4245 80.2007 90.6766 80.2342L88.9187 79.0225ZM87.4428 72.8723L87.6847 72.8094M87.4428 72.8723C86.5556 69.463 85.6269 65.9367 82.6915 65.9367C79.7621 65.9367 78.8395 69.449 77.9456 72.852L77.9403 72.8723L87.6847 72.8094M87.4428 72.8723L87.6845 72.8085C87.6846 72.8088 87.6847 72.8091 87.6847 72.8094M39.6886 68.5658L39.6885 68.5652C39.3553 67.2894 39.0055 65.9517 38.5678 64.9323C38.3488 64.4224 38.1151 64.0101 37.8632 63.7287C37.6131 63.4493 37.3657 63.3205 37.1111 63.3205C36.8564 63.3205 36.6095 63.4489 36.3602 63.7275C36.109 64.0081 35.8761 64.4196 35.6576 64.929C35.2277 65.9315 34.8822 67.243 34.5496 68.505L34.5337 68.5653C33.9407 70.8314 33.2794 74.9691 32.6483 78.9861L32.6482 78.9866L32.6004 79.2867C31.9698 83.2477 31.3216 87.3187 30.7112 89.6481L30.7111 89.6483L30.7005 89.6886C30.2584 91.3718 29.799 93.1211 29.0784 94.4502C28.3469 95.7996 27.3146 96.7704 25.7181 96.7704C25.567 96.7704 25.4235 96.7441 25.2951 96.6986C23.8646 96.5325 22.9331 95.5363 22.2628 94.2278C21.594 92.9223 21.1556 91.2496 20.7332 89.6377L20.725 89.6064L20.725 89.6062C20.4171 88.4279 19.6096 84.9636 18.8048 81.5109L18.8024 81.5006C17.9973 78.0461 17.1954 74.6056 16.8941 73.4537L16.8941 73.4536C16.5609 72.1778 16.2111 70.8401 15.7734 69.8207C15.5544 69.3108 15.3208 68.8984 15.0689 68.6171C14.8188 68.3376 14.5713 68.2089 14.3167 68.2089C14.062 68.2089 13.8151 68.3373 13.5658 68.6159C13.3146 68.8965 13.0817 69.308 12.8633 69.8174C12.4334 70.8199 12.0878 72.1314 11.7553 73.3934L11.7393 73.454C11.3341 74.9956 10.3731 79.1116 10.2824 79.5271L10.282 79.5289C10.0685 80.473 9.63119 81.2123 8.96289 81.7182C8.29694 82.2224 7.42631 82.4763 6.3783 82.4979L6.37313 82.498V82.498H2.00332C1.30787 82.498 0.75 81.933 0.75 81.2369C0.75 80.5408 1.30787 79.9758 2.00332 79.9758H6.33735C6.92863 79.9634 7.25192 79.8562 7.44649 79.7026C7.63706 79.5522 7.7464 79.3242 7.82914 78.9589L7.82951 78.9573C7.92864 78.5328 8.89964 74.376 9.30689 72.8014L9.30712 72.8005L9.31771 72.7601C9.75981 71.0769 10.2193 69.3277 10.9398 67.9985C11.6713 66.6491 12.7036 65.6783 14.3002 65.6783C15.8966 65.6783 16.9309 66.6489 17.6635 67.9984C18.391 69.3383 18.8519 71.1048 19.2933 72.8008C19.2933 72.8008 19.2933 72.8009 19.2934 72.801L19.0514 72.864L39.6886 68.5658ZM39.6886 68.5658C40.2705 70.773 40.9118 76.0111 41.5419 81.1576L41.5727 81.4091M39.6886 68.5658L41.5727 81.4091M30.1643 78.591L30.1644 78.5904L30.2122 78.2901C30.8429 74.3292 31.491 70.2583 32.1014 67.9289L32.1015 67.9288L32.1121 67.8885C32.5542 66.2053 33.0136 64.456 33.7342 63.1268C34.4657 61.7775 35.498 60.8066 37.0945 60.8066C38.6909 60.8066 39.7253 61.7773 40.4579 63.1267C41.1854 64.4667 41.6463 66.2333 42.0877 67.9293M30.1643 78.591L44.0342 81.1062C43.364 75.586 42.7234 70.3489 42.0877 67.9293M30.1643 78.591C29.5332 82.6079 28.872 86.7454 28.2789 89.0115C27.9627 90.2151 27.6309 91.4743 27.2248 92.4693C27.0218 92.9665 26.8054 93.3847 26.5715 93.6922C26.3526 93.98 26.1343 94.1505 25.9169 94.2167L30.1643 78.591ZM42.0877 67.9293L41.8458 67.9923L42.0876 67.9288C42.0876 67.929 42.0877 67.9291 42.0877 67.9293ZM41.5727 81.4091L41.5728 81.4093C42.243 86.9296 42.8836 92.1666 43.5192 94.5862L41.5727 81.4091ZM66.8273 78.5988C66.1898 74.5437 65.5161 70.3342 64.8904 67.9377C64.449 66.2416 63.9881 64.4751 63.2605 63.135C62.5279 61.7856 61.4936 60.815 59.8972 60.815C58.3006 60.815 57.2684 61.7858 56.5369 63.1352C55.8163 64.4643 55.3568 66.2136 54.9147 67.8968L54.9041 67.9371C54.2684 70.3565 53.6278 75.6025 52.9575 81.1148C52.3176 86.3404 51.6565 91.7068 51.0731 93.9506L51.0538 94.0236C50.7224 95.2775 50.3778 96.5812 49.9494 97.5791C49.7309 98.088 49.498 98.4993 49.2468 98.7798C48.9975 99.0583 48.7506 99.1867 48.4959 99.1867C48.241 99.1867 47.9935 99.0582 47.7435 98.7796C47.4917 98.499 47.2581 98.0877 47.0391 97.5789C46.6014 96.5617 46.2516 95.2261 45.9185 93.9504L45.9184 93.9498C45.3364 91.7425 44.6951 86.5042 44.065 81.3576L44.0342 81.1065L66.8273 78.5988ZM86.9619 79.4821C86.8706 79.0643 85.9088 74.9447 85.5025 73.3988L85.5019 73.3964C84.8387 70.8567 84.0842 67.9672 82.6833 67.9672C81.2951 67.9672 80.5498 70.7961 79.883 73.3267L79.864 73.3988C79.5619 74.5539 78.7601 77.9941 77.9563 81.4428C77.1494 84.9047 76.3405 88.3751 76.0332 89.5513L76.0296 89.5649C75.1767 92.8196 74.2965 96.1782 71.6468 96.4619C71.5307 96.5037 71.4063 96.5288 71.2819 96.5288L86.9619 79.4821Z" fill="white" stroke="white" stroke-width="0.5"/>
</svg>
