<svg width="59" height="51" viewBox="0 0 59 51" fill="none" xmlns="http://www.w3.org/2000/svg">
<path d="M5.70582 5.27737L5.35227 4.92382C5.35172 4.92437 5.35096 4.92512 5.35001 4.92606C5.33793 4.93798 5.29497 4.9804 5.25451 5.03474C1.52119 9.52304 0.111382 14.5097 1.10427 19.8105L1.1043 19.8107C2.61642 27.8685 9.3839 35.2223 15.7945 40.5896C22.2284 45.9764 28.4146 49.453 28.9288 49.7387L28.9287 49.7388L28.9388 49.7441C29.1584 49.8597 29.3973 49.9211 29.6416 49.9211L29.6435 49.9131C29.8856 49.9103 30.1227 49.8506 30.3384 49.7308C30.8525 49.4452 37.0407 45.9705 43.4756 40.5847C49.8873 35.2184 56.6549 27.8646 58.163 19.8026C59.1569 14.4961 57.743 9.51288 54.0016 5.01345L53.9869 4.9958L53.9707 4.97958L53.9389 4.94771L53.9075 4.91637C53.9074 4.91625 53.9073 4.91614 53.9072 4.91603C51.0649 2.06566 47.2734 0.5 43.2463 0.5C36.3789 0.5 31.7042 4.99226 29.6337 7.49036C27.5641 4.99236 22.8959 0.5 16.0209 0.5C11.9935 0.5 8.20192 2.06593 5.35176 4.92433L5.70582 5.27737ZM5.70582 5.27737C5.68989 5.2933 5.66599 5.3172 5.65006 5.34109L29.3128 7.88712C27.3129 5.44934 22.7454 1 16.0209 1C12.1259 1 8.46182 2.51341 5.70582 5.27737ZM29.9545 7.88716C31.9551 5.44939 36.5293 1 43.2463 1C47.1414 1 50.8054 2.51341 53.5534 5.26941L53.6172 5.33313L29.9545 7.88716ZM3.97504 19.2684C3.16208 14.8887 4.31543 10.7496 7.46891 6.93776C9.76313 4.67529 12.7919 3.42761 16.0209 3.42761C19.8498 3.42761 22.9266 5.2158 25.0717 7.0448C27.1324 8.80198 28.2973 10.5669 28.3981 10.7215C28.6659 11.1551 29.1293 11.4088 29.6336 11.4088C30.1366 11.4088 30.6051 11.1414 30.8694 10.7209L30.8695 10.721L30.8748 10.7121C30.8747 10.7123 30.8751 10.7117 30.8759 10.7104C30.896 10.6792 31.1874 10.2279 31.7314 9.56116C32.2956 8.8695 33.1251 7.95409 34.1955 7.0419C36.3404 5.21396 39.4173 3.42761 43.2463 3.42761C46.4761 3.42761 49.5044 4.6679 51.7979 6.93725C54.9525 10.7581 56.1128 14.8972 55.2923 19.2678L55.2923 19.268C54.0433 25.9395 48.4625 32.3506 42.6764 37.3806C37.1739 42.1639 31.5783 45.6201 29.6336 46.7701C27.689 45.62 22.0934 42.1619 16.5909 37.3776C10.8048 32.3467 5.22414 25.9357 3.97504 19.2684Z" fill="#003970" stroke="#003970"/>
</svg>
