<svg width="49" height="49" viewBox="0 0 49 49" fill="none" xmlns="http://www.w3.org/2000/svg">
<path d="M36.8593 8.73535C35.313 8.73535 34.0478 10.0005 34.0478 11.575C34.0478 13.1495 35.313 14.4147 36.8593 14.4147C38.4057 14.4147 39.699 13.1495 39.699 11.575C39.699 10.0005 38.4338 8.73535 36.8593 8.73535Z" fill="white"/>
<path d="M24.2918 12.3623C17.7409 12.3623 12.4271 17.6761 12.4271 24.227C12.4271 30.7779 17.7409 36.0918 24.2918 36.0918C30.8427 36.0918 36.1565 30.7779 36.1565 24.227C36.1565 17.6761 30.8427 12.3623 24.2918 12.3623ZM24.2918 31.8463C20.1026 31.8463 16.7006 28.4443 16.7006 24.2551C16.7006 20.0659 20.1026 16.664 24.2918 16.664C28.481 16.664 31.883 20.0659 31.883 24.2551C31.883 28.4443 28.481 31.8463 24.2918 31.8463Z" fill="white"/>
<path d="M33.7104 48.3227H14.4795C6.49467 48.3227 0 41.828 0 33.8432V14.6123C0 6.62748 6.49467 0.132812 14.4795 0.132812H33.7104C41.6952 0.132812 48.1899 6.62748 48.1899 14.6123V33.8432C48.1899 41.828 41.6952 48.3227 33.7104 48.3227ZM14.4795 4.6594C8.99695 4.6594 4.52659 9.12976 4.52659 14.6123V33.8432C4.52659 39.3258 8.99695 43.7961 14.4795 43.7961H33.7104C39.1929 43.7961 43.6633 39.3258 43.6633 33.8432V14.6123C43.6633 9.12976 39.1929 4.6594 33.7104 4.6594H14.4795Z" fill="white"/>
</svg>
