<svg width="100" height="100" viewBox="0 0 100 100" fill="none" xmlns="http://www.w3.org/2000/svg">
<path d="M71.7561 0H28.5084C12.7636 0 0 12.73 0 28.4332V71.5668C0 87.27 12.7636 100 28.5084 100H71.7561C87.5008 100 100.264 87.27 100.264 71.5668V28.4332C100.264 12.73 87.5008 0 71.7561 0Z" fill="#003970"/>
<path d="M49.6466 82.9843C66.4745 82.9843 80.1161 69.3786 80.1161 52.5952C80.1161 35.8117 66.4745 22.2061 49.6466 22.2061C32.8188 22.2061 19.1771 35.8117 19.1771 52.5952C19.1771 69.3786 32.8188 82.9843 49.6466 82.9843Z" fill="#80EEC2"/>
<path d="M80.343 28.0536C83.9058 28.0536 86.794 25.173 86.794 21.6196C86.794 18.0662 83.9058 15.1855 80.343 15.1855C76.7802 15.1855 73.892 18.0662 73.892 21.6196C73.892 25.173 76.7802 28.0536 80.343 28.0536Z" fill="#80EEC2"/>
<path d="M59.4217 32.5018C57.12 31.3797 54.426 32.9959 54.426 35.549V35.971C54.426 37.3093 55.2208 38.4726 56.4181 39.0799C59.9791 40.8815 62.6627 44.0522 63.86 47.8508C63.9942 48.2729 63.6536 48.6949 63.2201 48.6949H58.0592C56.0568 48.6949 54.426 50.3215 54.426 52.3186C54.426 54.3157 56.0568 55.9422 58.0592 55.9422H68.1745C70.1769 55.9422 71.8077 54.3157 71.8077 52.3186C71.8077 43.6816 66.8533 36.1152 59.4217 32.4915V32.5018Z" fill="#003970"/>
<path d="M57.2438 65.1041C54.9627 66.4527 52.341 67.1836 49.6368 67.1836C42.68 67.1836 36.8379 62.3967 35.2071 55.9523H35.2484C37.2095 55.9523 38.799 54.367 38.799 52.4111V52.2464C38.799 50.2904 37.2095 48.7051 35.2484 48.7051H27.8271C25.866 48.7051 24.2765 50.2904 24.2765 52.2464V52.4111C24.2765 54.3567 25.8454 55.9318 27.7962 55.9421C29.5405 66.4115 38.6545 74.4205 49.6368 74.4205C53.6519 74.4205 57.5535 73.3396 60.9493 71.3219C62.9414 70.1381 63.3852 67.4512 61.8266 65.7423C60.65 64.4452 58.7405 64.2085 57.2335 65.0938L57.2438 65.1041Z" fill="#003970"/>
</svg>
