<svg width="110" height="125" viewBox="0 0 110 125" fill="none" xmlns="http://www.w3.org/2000/svg">
<path d="M42.8743 0.351562H17.4126C8.14152 0.351562 0.624023 7.86367 0.624023 17.1281V42.5715C0.624023 51.836 8.14152 59.3481 17.4126 59.3481H42.8743C52.1454 59.3481 59.6629 51.836 59.6629 42.5715V17.1281C59.6629 7.86367 52.1454 0.351562 42.8743 0.351562ZM29.858 49.3161C19.9479 49.3161 11.9139 41.2878 11.9139 31.3848C11.9139 21.4819 19.9479 13.4536 29.858 13.4536C39.768 13.4536 47.8021 21.4819 47.8021 31.3848C47.8021 41.2878 39.768 49.3161 29.858 49.3161ZM48.1691 16.904C46.0756 17.0331 44.2676 15.4437 44.1385 13.3449C44.0094 11.2529 45.5999 9.44624 47.7001 9.31718C49.8004 9.18813 51.6016 10.7775 51.7308 12.8763C51.8599 14.9682 50.2694 16.775 48.1691 16.904Z" fill="white"/>
<path d="M35.615 19.5256C34.2556 18.86 32.6719 19.8177 32.6719 21.3255V21.5768C32.6719 22.3647 33.1409 23.0575 33.8478 23.4107C35.9481 24.4771 37.525 26.3449 38.2319 28.5863C38.3067 28.8376 38.1095 29.0889 37.8513 29.0889H34.813C33.6303 29.0889 32.6719 30.0466 32.6719 31.2284C32.6719 32.4103 33.6303 33.368 34.813 33.368H40.774C41.9567 33.368 42.915 32.4103 42.915 31.2284C42.915 26.1343 39.9991 21.6651 35.6218 19.5324L35.615 19.5256Z" fill="white"/>
<path d="M34.3372 38.7677C32.9914 39.5692 31.4485 39.9903 29.858 39.9903C25.7594 39.9903 22.3201 37.1648 21.3617 33.3612H21.3889C22.5444 33.3612 23.4756 32.4239 23.4756 31.276V31.1809C23.4756 30.0262 22.5376 29.0957 21.3889 29.0957H17.0184C15.863 29.0957 14.9318 30.033 14.9318 31.1809V31.276C14.9318 32.4239 15.8562 33.3544 17.0049 33.3612C18.0312 39.5352 23.394 44.2625 29.8648 44.2625C32.2302 44.2625 34.5275 43.6241 36.5259 42.4355C37.7018 41.7359 37.96 40.1533 37.0424 39.1413C36.3491 38.3806 35.2208 38.2379 34.3372 38.7609V38.7677Z" fill="white"/>
<path d="M14.2588 66.9482C10.2622 66.9482 6.95204 68.2658 4.42355 70.8604C1.90186 73.4482 0.624023 76.7356 0.624023 80.6275C0.624023 84.5194 1.92905 87.8476 4.50512 90.4218C7.08119 92.996 10.4661 94.3001 14.5579 94.3001C18.6497 94.3001 21.8647 93.0435 24.298 90.5576C24.8758 89.9735 25.1341 89.1652 25.0185 88.3434C24.903 87.5147 24.4204 86.8016 23.6863 86.3873C22.626 85.7828 21.2801 86.0001 20.4169 86.9035C19.0507 88.3298 17.1136 89.0566 14.6531 89.0566C12.4304 89.0566 10.5477 88.4792 9.04552 87.3314C7.7269 86.3261 6.8229 84.9269 6.35391 83.1814H24.6922C26.0992 83.1814 27.2411 82.0539 27.2411 80.6615C27.2411 76.9122 26.0245 73.6588 23.6319 70.9895C21.219 68.2998 18.0652 66.9346 14.252 66.9346L14.2588 66.9482ZM21.586 78.2571H6.34031C6.74813 76.5183 7.59776 75.0919 8.85521 74.012C10.269 72.7962 12.0906 72.1849 14.2656 72.1849C16.1144 72.1849 17.7525 72.7622 19.1323 73.8965C20.3693 74.9085 21.1918 76.3756 21.5928 78.2571H21.586Z" fill="white"/>
<path d="M55.4351 66.9755C53.9262 66.9755 52.6891 68.2048 52.6891 69.7195V70.7519C50.4869 68.232 47.5166 66.9551 43.8394 66.9551C40.1622 66.9551 37.0628 68.2931 34.5003 70.9421C31.9447 73.5842 30.6464 76.8444 30.6464 80.6344C30.6464 84.4245 31.9447 87.6847 34.5003 90.3268C37.0628 92.969 40.203 94.3138 43.8394 94.3138C47.4758 94.3138 50.4869 93.0369 52.6891 90.517V91.5494C52.6891 93.064 53.9194 94.2934 55.4351 94.2934C56.9509 94.2934 58.1811 93.064 58.1811 91.5494V69.7331C58.1811 68.2184 56.9509 66.989 55.4351 66.989V66.9755ZM52.6891 80.6277C52.6891 82.9845 51.8871 84.9814 50.3102 86.5776C48.7333 88.1669 46.7418 88.9752 44.39 88.9752C42.0382 88.9752 40.0943 88.1669 38.5174 86.5776C36.9405 84.9882 36.1384 82.9845 36.1384 80.6277C36.1384 78.2708 36.9405 76.2739 38.5174 74.6777C40.0943 73.0884 42.0722 72.2801 44.39 72.2801C46.7078 72.2801 48.7401 73.0884 50.3102 74.6777C51.8871 76.2671 52.6891 78.2708 52.6891 80.6277Z" fill="white"/>
<path d="M78.1029 79.1809L74.0179 77.9787C72.7129 77.5984 71.5778 77.1297 70.6466 76.5863C69.6814 76.0226 69.3212 75.3094 69.5183 74.3245C69.6338 73.7336 70.0213 73.1903 70.5786 72.8371C71.3263 72.3684 72.2507 72.1307 73.3246 72.1307C75.1122 72.1307 76.4648 72.6537 77.3484 73.6861C78.1709 74.6438 79.5575 74.9019 80.645 74.2906C81.3519 73.8966 81.8345 73.2106 81.9636 72.4092C82.0928 71.6281 81.8684 70.847 81.3451 70.2696C80.6926 69.5429 79.9109 68.9112 79.0205 68.4018C77.362 67.4441 75.4453 66.9551 73.3246 66.9551C70.6738 66.9551 68.424 67.7022 66.6499 69.1829C64.8419 70.684 63.9243 72.6265 63.9243 74.9562C63.9243 76.7561 64.4613 78.2572 65.5148 79.4254C66.548 80.5597 67.8122 81.3612 69.2736 81.8027L73.3586 83.0321C74.6636 83.426 75.7851 83.9015 76.7095 84.4516C77.5048 84.9339 77.8786 85.5112 77.8786 86.2719C77.8786 87.2364 77.5252 87.8884 76.7639 88.3367C75.9279 88.8258 74.8335 89.0771 73.5149 89.0771C72.1011 89.0771 70.8845 88.7578 69.8853 88.1194C69.3959 87.8069 68.9745 87.4334 68.6483 87.0123C67.8054 85.9527 66.3781 85.647 65.2498 86.2923L65.073 86.3942C64.4137 86.7677 63.9515 87.413 63.802 88.1533C63.6525 88.8869 63.8292 89.6408 64.2846 90.2249C64.9983 91.1487 65.9091 91.9569 66.9898 92.6226C68.8046 93.7365 71 94.3002 73.5217 94.3002C76.3629 94.3002 78.7418 93.5735 80.5838 92.1335C82.4666 90.6664 83.425 88.6831 83.425 86.2515C83.425 84.3837 82.9016 82.8283 81.8617 81.6193C80.8421 80.4375 79.5847 79.6156 78.1097 79.1809H78.1029Z" fill="white"/>
<path d="M108.894 68.7823C108.384 68.042 107.541 67.5937 106.637 67.5937C105.509 67.5937 104.483 68.3001 104.081 69.3461L97.7739 85.7355L90.5826 69.2102C90.1544 68.2254 89.1824 67.5869 88.1085 67.5869C87.1977 67.5869 86.3481 68.042 85.8519 68.8095C85.3489 69.577 85.2741 70.5279 85.6344 71.3634L94.7764 92.2424C94.9803 92.7042 94.9599 93.2137 94.7152 93.6959C93.6413 96.4331 92.078 98.0021 90.0728 98.3621C88.8562 98.5794 87.9726 99.5983 87.9726 100.787V100.97C87.9726 101.724 88.2988 102.444 88.8766 102.933C89.3388 103.327 89.9233 103.544 90.5282 103.544C90.6506 103.544 90.7797 103.538 90.9021 103.517C92.5741 103.266 94.1238 102.594 95.5036 101.527C97.4884 99.9922 99.0517 97.7372 100.146 94.8302L109.186 71.3158C109.512 70.4736 109.397 69.5295 108.887 68.7823H108.894Z" fill="white"/>
<path d="M13.9665 109.691L7.56375 100.549C6.83647 99.5165 5.69457 98.9052 4.47111 98.9052C2.35044 98.9052 0.630798 100.719 0.630798 102.953V121.543C0.630798 123.255 1.94942 124.641 3.5739 124.641C5.19839 124.641 6.51701 123.255 6.51701 121.543V108.829L12.7431 117.027C13.6335 118.202 15.3259 118.202 16.2163 117.027L22.4696 108.842V121.557C22.4696 123.255 23.7746 124.634 25.3923 124.634C27.0032 124.634 28.315 123.255 28.315 121.557V102.913C28.315 100.698 26.609 98.8984 24.5019 98.8984C23.2852 98.8984 22.1433 99.5097 21.4297 100.542L15.0745 109.684C14.8026 110.072 14.252 110.078 13.9801 109.684L13.9665 109.691Z" fill="white"/>
<path d="M55.4695 102.587C52.8255 100.141 49.4746 98.9053 45.5119 98.9053H37.3623C35.3911 98.9053 33.787 100.59 33.787 102.668V120.878C33.787 122.956 35.3843 124.641 37.3623 124.641H45.5119C49.4746 124.641 52.8255 123.405 55.4695 120.959C58.1611 118.48 59.5205 115.383 59.5205 111.77C59.5205 108.156 58.1543 105.066 55.4695 102.58V102.587ZM51.534 117.122C49.9775 118.596 48.0064 119.316 45.5119 119.316H40.3937C39.9927 119.316 39.6665 118.976 39.6665 118.548V104.998C39.6665 104.577 39.9927 104.23 40.3937 104.23H45.5119C48.0132 104.23 49.9843 104.95 51.5408 106.424C53.009 107.817 53.7431 109.487 53.7975 111.539C53.8518 113.644 53.0226 115.709 51.5408 117.115L51.534 117.122Z" fill="white"/>
</svg>
