<svg width="147" height="62" viewBox="0 0 147 62" fill="none" xmlns="http://www.w3.org/2000/svg">
<path d="M43.522 0.829834H17.6768C8.26756 0.829834 0.639893 8.51195 0.639893 17.9883V44.018C0.639893 53.4944 8.26756 61.1765 17.6768 61.1765H43.522C52.9312 61.1765 60.5589 53.4944 60.5589 44.018V17.9883C60.5589 8.51195 52.9312 0.829834 43.522 0.829834Z" fill="#003970"/>
<path d="M30.3091 50.9075C40.3655 50.9075 48.5179 42.6969 48.5179 32.5687C48.5179 22.4404 40.3655 14.2299 30.3091 14.2299C20.2526 14.2299 12.1002 22.4404 12.1002 32.5687C12.1002 42.6969 20.2526 50.9075 30.3091 50.9075Z" fill="#80EEC2"/>
<path d="M48.6537 17.7585C50.7828 17.7585 52.5089 16.0201 52.5089 13.8758C52.5089 11.7314 50.7828 9.99304 48.6537 9.99304C46.5245 9.99304 44.7985 11.7314 44.7985 13.8758C44.7985 16.0201 46.5245 17.7585 48.6537 17.7585Z" fill="#80EEC2"/>
<path d="M36.1513 20.4422C34.7758 19.765 33.1658 20.7404 33.1658 22.281V22.5357C33.1658 23.3433 33.6408 24.0453 34.3563 24.4119C36.4844 25.499 38.0881 27.4124 38.8037 29.7048C38.8839 29.9595 38.6803 30.2142 38.4212 30.2142H35.3371C34.1404 30.2142 33.1658 31.1957 33.1658 32.4009C33.1658 33.6061 34.1404 34.5877 35.3371 34.5877H41.382C42.5787 34.5877 43.5533 33.6061 43.5533 32.4009C43.5533 27.1888 40.5925 22.6227 36.1513 20.436V20.4422Z" fill="#003970"/>
<path d="M34.8494 40.1167C33.4862 40.9305 31.9195 41.3716 30.3034 41.3716C26.1459 41.3716 22.6547 38.4829 21.6801 34.5939H21.7047C22.8767 34.5939 23.8266 33.6372 23.8266 32.4569V32.3575C23.8266 31.1772 22.8767 30.2205 21.7047 30.2205H17.2697C16.0977 30.2205 15.1478 31.1772 15.1478 32.3575V32.4569C15.1478 33.631 16.0854 34.5815 17.2512 34.5877C18.2937 40.9057 23.7403 45.7389 30.3034 45.7389C32.7028 45.7389 35.0345 45.0866 37.0638 43.869C38.2543 43.1545 38.5196 41.5331 37.5881 40.5019C36.885 39.7191 35.7438 39.5762 34.8432 40.1105L34.8494 40.1167Z" fill="#003970"/>
<path d="M77.8976 10.0863C75.0231 10.0863 72.6422 11.043 70.8225 12.9191C69.009 14.7953 68.09 17.1808 68.09 20.0012C68.09 22.8216 69.0275 25.2382 70.8842 27.1019C72.7347 28.9656 75.1712 29.9161 78.1135 29.9161C81.0558 29.9161 83.3689 29.0029 85.1207 27.2075C85.534 26.7851 85.7252 26.2011 85.6388 25.6047C85.5525 25.0021 85.207 24.4865 84.6827 24.1883C83.9178 23.7534 82.9494 23.9025 82.3326 24.5611C81.3518 25.5985 79.9578 26.1203 78.1875 26.1203C76.5899 26.1203 75.2329 25.6979 74.1534 24.8717C73.2035 24.1386 72.5497 23.1322 72.2166 21.8649H85.4106C86.4222 21.8649 87.2426 21.0449 87.2487 20.0385C87.2487 17.3237 86.3728 14.963 84.6519 13.0247C82.9124 11.0741 80.6486 10.0863 77.9099 10.0863H77.8976ZM83.1653 18.2866H72.1981C72.4941 17.0255 73.0986 15.9942 74.0054 15.2115C75.0231 14.3293 76.3308 13.8883 77.8976 13.8883C79.2238 13.8883 80.4019 14.3045 81.4012 15.1307C82.2894 15.8638 82.8877 16.9323 83.1715 18.2928L83.1653 18.2866Z" fill="#003970"/>
<path d="M107.511 10.1048C106.425 10.1048 105.537 10.9994 105.537 12.0928V12.8382C103.958 11.0118 101.818 10.0862 99.1716 10.0862C96.5254 10.0862 94.2986 11.0615 92.4543 12.9749C90.6161 14.8883 89.6847 17.249 89.6847 20.0011C89.6847 22.7531 90.6161 25.1138 92.4543 27.0272C94.2986 28.9468 96.5562 29.916 99.1716 29.916C101.787 29.916 103.952 28.9903 105.537 27.1639V27.9094C105.537 29.0028 106.425 29.8973 107.511 29.8973C108.597 29.8973 109.485 29.0028 109.485 27.9094V12.0928C109.485 10.9994 108.597 10.1048 107.511 10.1048ZM105.537 20.0011C105.537 21.7095 104.964 23.1569 103.829 24.3124C102.694 25.4617 101.263 26.0457 99.5663 26.0457C97.87 26.0457 96.476 25.4617 95.341 24.3124C94.2061 23.1569 93.6324 21.7095 93.6324 20.0011C93.6324 18.2927 94.2061 16.8452 95.341 15.6897C96.476 14.5404 97.8947 13.9565 99.5663 13.9565C101.238 13.9565 102.694 14.5404 103.829 15.6897C104.964 16.8452 105.537 18.2927 105.537 20.0011Z" fill="#003970"/>
<path d="M123.82 18.9574L120.884 18.0877C119.946 17.8081 119.132 17.4726 118.46 17.075C117.763 16.6712 117.504 16.1494 117.646 15.435C117.732 15.0063 118.01 14.6088 118.411 14.3603C118.947 14.0186 119.613 13.8446 120.384 13.8446C121.667 13.8446 122.648 14.2236 123.284 14.9691C123.876 15.6648 124.875 15.8512 125.652 15.4039C126.158 15.1182 126.503 14.6212 126.602 14.0372C126.695 13.4719 126.534 12.9066 126.158 12.4841C125.689 11.9561 125.122 11.5026 124.486 11.1298C123.29 10.4341 121.914 10.08 120.391 10.08C118.485 10.08 116.868 10.6204 115.592 11.6952C114.29 12.7823 113.63 14.1925 113.63 15.8823C113.63 17.1869 114.019 18.2802 114.777 19.1251C115.518 19.9514 116.431 20.5291 117.485 20.8459L120.421 21.7343C121.359 22.0201 122.167 22.3617 122.827 22.7656C123.401 23.1134 123.666 23.5359 123.666 24.0826C123.666 24.7783 123.413 25.2567 122.864 25.5797C122.266 25.9338 121.476 26.114 120.526 26.114C119.515 26.114 118.633 25.8779 117.917 25.4182C117.566 25.1946 117.263 24.9212 117.023 24.6168C116.418 23.8465 115.388 23.6291 114.58 24.095L114.451 24.1695C113.976 24.4429 113.642 24.9088 113.538 25.4493C113.433 25.9773 113.556 26.524 113.883 26.9527C114.395 27.6236 115.049 28.2076 115.826 28.6921C117.128 29.4997 118.713 29.9097 120.526 29.9097C122.574 29.9097 124.283 29.3817 125.603 28.338C126.96 27.2695 127.645 25.8344 127.645 24.0764C127.645 22.7221 127.268 21.5914 126.522 20.7155C125.788 19.8582 124.881 19.2618 123.82 18.945V18.9574Z" fill="#003970"/>
<path d="M145.965 11.4156C145.595 10.8752 144.99 10.5521 144.343 10.5521C143.535 10.5521 142.794 11.0615 142.504 11.8257L137.965 23.7036L132.789 11.7263C132.481 11.0118 131.784 10.5521 131.013 10.5521C130.359 10.5521 129.748 10.8814 129.391 11.4343C129.033 11.9872 128.971 12.683 129.236 13.2856L135.812 28.4188C135.96 28.7543 135.941 29.1208 135.769 29.4749C134.998 31.4566 133.875 32.5935 132.432 32.8544C131.556 33.0097 130.92 33.749 130.92 34.6125V34.743C130.92 35.2897 131.155 35.8115 131.568 36.1656C131.901 36.4514 132.321 36.6129 132.752 36.6129C132.845 36.6129 132.931 36.6067 133.024 36.5942C134.227 36.4079 135.343 35.9233 136.336 35.1468C137.767 34.0348 138.89 32.4009 139.679 30.2887L146.181 13.2421C146.415 12.6333 146.335 11.9437 145.965 11.4094V11.4156Z" fill="#003970"/>
<path d="M77.6879 41.0733L73.0801 34.4447C72.562 33.693 71.7354 33.2519 70.8534 33.2519C69.3236 33.2519 68.09 34.569 68.09 36.1842V49.6587C68.09 50.9012 69.0399 51.9014 70.2057 51.9014C71.3715 51.9014 72.3214 50.895 72.3214 49.6587V40.4396L76.7996 46.3848C77.4411 47.2359 78.6563 47.2359 79.2978 46.3848L83.7945 40.452V49.6712C83.7945 50.9012 84.7321 51.9014 85.8979 51.9014C87.0575 51.9014 88.0013 50.9012 88.0013 49.6712V36.1531C88.0013 34.5441 86.7738 33.2457 85.2625 33.2457C84.3866 33.2457 83.5663 33.6868 83.0543 34.4385L78.4836 41.0671C78.2862 41.3466 77.8914 41.3528 77.694 41.0671L77.6879 41.0733Z" fill="#003970"/>
<path d="M107.536 35.9233C105.63 34.1527 103.225 33.252 100.375 33.252H94.5088C93.0901 33.252 91.9366 34.4758 91.9366 35.9792V49.1804C91.9366 50.69 93.0901 51.9076 94.5088 51.9076H100.375C103.225 51.9076 105.636 51.0068 107.536 49.2363C109.473 47.4347 110.454 45.1983 110.454 42.5767C110.454 39.9551 109.473 37.7186 107.536 35.917V35.9233ZM104.705 46.4594C103.582 47.5279 102.17 48.0497 100.369 48.0497H96.6862C96.3963 48.0497 96.1619 47.8012 96.1619 47.4968V37.6751C96.1619 37.3707 96.3963 37.1222 96.6862 37.1222H100.369C102.164 37.1222 103.582 37.6441 104.705 38.7126C105.76 39.719 106.29 40.9366 106.327 42.4214C106.364 43.9061 105.772 45.4468 104.705 46.4656V46.4594Z" fill="#003970"/>
</svg>
