<svg width="449" height="531" viewBox="0 0 449 531" fill="none" xmlns="http://www.w3.org/2000/svg">
<path d="M828.894 296.159C770.713 329.526 704.307 346.871 636.13 345.835C460.411 343.152 314.733 219.612 276.11 55.8509L277.263 55.8635C326.73 56.6232 367.446 17.131 368.196 -32.3409L368.259 -36.3923C369.019 -85.8597 329.527 -126.576 280.059 -127.336L92.5382 -130.198C43.0708 -130.958 2.35427 -91.4653 1.60507 -41.9935L1.54161 -37.9422C0.791612 11.2952 39.9218 51.7868 89.0629 52.9155C128.961 318.601 356.043 525.039 633.33 529.279C734.805 530.823 833.642 504.989 920.244 455.289C971.038 426.135 983.278 358.269 944.621 314.279C915.453 281.096 867.23 274.191 828.901 296.174L828.894 296.159Z" stroke="white" stroke-width="3" stroke-miterlimit="10"/>
</svg>
