<svg width="328" height="398" viewBox="0 0 328 398" fill="none" xmlns="http://www.w3.org/2000/svg">
<path d="M141.369 101.675C146.313 168.563 133.254 235.943 102.855 296.976C24.4918 454.278 -149.875 532.255 -314.245 496.309L-313.735 495.275C-291.671 450.994 -309.687 397.209 -353.976 375.152L-357.602 373.343C-401.883 351.279 -455.668 369.295 -477.732 413.576L-561.358 581.442C-583.422 625.723 -565.406 679.509 -521.117 701.565L-517.491 703.373C-473.413 725.33 -419.987 707.543 -397.731 663.716C-140.897 742.562 143.407 627.004 267.072 378.784C312.32 287.943 331.739 187.648 324.349 88.0714C320.011 29.6661 264.101 -10.702 207.725 5.146C165.195 17.1085 138.126 57.6102 141.385 101.676L141.369 101.675Z" stroke="white" stroke-width="3" stroke-miterlimit="10"/>
</svg>
