<svg width="586" height="403" viewBox="0 0 586 403" fill="none" xmlns="http://www.w3.org/2000/svg">
<path d="M546.38 229.93C484.038 231.959 421.927 217.242 366.379 186.655C223.216 107.808 157.443 -57.2064 197.146 -208.564L198.088 -208.051C238.388 -185.85 289.057 -200.53 311.251 -240.838L313.07 -244.138C335.27 -284.439 320.591 -335.108 280.291 -357.308L127.512 -441.45C87.2116 -463.65 36.5423 -448.971 14.3489 -408.662L12.5297 -405.362C-9.56219 -365.246 4.91758 -314.92 44.789 -292.559C-38.3229 -56.9268 58.157 211.684 284.067 336.112C366.743 381.64 459.195 403.53 552.006 400.48C606.444 398.688 646.098 348.283 633.533 295.29C624.048 255.311 587.451 228.606 546.379 229.945L546.38 229.93Z" stroke="#80EEC2" stroke-width="3" stroke-miterlimit="10"/>
</svg>
