<svg width="93" height="96" viewBox="0 0 93 96" fill="none" xmlns="http://www.w3.org/2000/svg">
<path d="M67.3454 58.3897C67.1879 52.1562 62.293 47.2744 56.2104 47.2744C52.7853 47.2744 49.0977 48.8361 46.519 51.3163C43.9403 48.8295 40.2527 47.2744 36.8276 47.2744C30.7385 47.2744 25.8501 52.1562 25.6926 58.3897C25.3514 71.8671 43.8813 83.3367 45.9941 84.5965C46.1581 84.6949 46.3418 84.7409 46.5256 84.7409C46.7093 84.7409 46.893 84.6949 47.057 84.5965C49.1699 83.3301 67.6997 71.8671 67.3585 58.3897H67.3454ZM46.5124 82.4903C43.3104 80.4824 27.4643 69.938 27.753 58.4422C27.8842 53.3439 31.8671 49.3544 36.8145 49.3544C40.0296 49.3544 43.5269 50.9883 45.7251 53.5079C46.1187 53.9606 46.893 53.9606 47.2933 53.5079C49.4914 50.9817 52.9887 49.3544 56.2038 49.3544C61.1578 49.3544 65.1407 53.3504 65.2653 58.4422C65.5606 69.938 49.7079 80.4759 46.5059 82.4903H46.5124Z" fill="#003970" stroke="#003970" stroke-width="0.8"/>
<path d="M76.5125 39.5557C70.115 35.6122 63.5403 33.6503 60.3908 32.8694C63.5403 29.4837 65.476 24.9431 65.476 19.9629C65.476 9.50377 56.9722 1 46.5131 1C36.054 1 27.5502 9.50377 27.5502 19.9629C27.5502 24.9431 29.4859 29.4771 32.6354 32.8694C29.4859 33.6503 22.9112 35.6122 16.5137 39.5557C4.90634 46.7143 -0.356025 56.9831 1.29748 69.2467C2.32109 76.8449 9.32882 89.4628 16.4875 93.7344C18.2525 94.7908 19.9585 95.3157 21.5792 95.3157C22.465 95.3157 23.3246 95.1582 24.1514 94.8433C25.6802 94.2659 26.6841 93.3735 27.1369 92.1924C28.1211 89.6334 26.3823 86.2477 24.1776 81.9564C21.2512 76.2675 17.6161 69.1811 18.515 61.0775C18.5806 60.5067 18.1672 59.9949 17.5964 59.9293C17.0321 59.8702 16.5137 60.277 16.4481 60.8479C15.477 69.5748 19.4336 77.278 22.3272 82.9078C24.217 86.5823 25.8442 89.7581 25.1946 91.451C24.9584 92.0612 24.3745 92.5402 23.4099 92.9011C21.6777 93.5572 19.7026 93.2357 17.5439 91.9496C11.0414 88.0718 4.30267 76.0707 3.34469 68.9711C1.7896 57.4359 6.56641 48.1447 17.5504 41.3535C24.7944 36.872 32.4977 35.0019 34.4399 34.582C37.7206 37.2985 41.9266 38.9323 46.5066 38.9323C51.0865 38.9323 55.2925 37.2985 58.5732 34.582C60.5023 35.0019 68.1728 36.8589 75.4102 41.3273C86.4205 48.1185 91.2169 57.4228 89.6619 68.9777C88.7039 76.0838 81.9652 88.0849 75.4627 91.9562C73.3039 93.2423 71.3289 93.5638 69.5901 92.9076C68.6255 92.5402 68.0416 92.0677 67.8054 91.4575C67.1558 89.7646 68.783 86.5954 70.6727 82.9144C73.5598 77.2911 77.5164 69.5813 76.5519 60.8545C76.4863 60.2836 75.9745 59.8768 75.4036 59.9358C74.8328 60.0014 74.426 60.5133 74.485 61.0841C75.3839 69.1876 71.7488 76.2741 68.8224 81.963C66.6177 86.2542 64.8789 89.64 65.8631 92.199C66.3159 93.3801 67.3198 94.2724 68.8486 94.8498C69.682 95.1648 70.5415 95.3223 71.4208 95.3223C73.0415 95.3223 74.7475 94.7908 76.5125 93.7409C83.6712 89.4694 90.6789 76.8515 91.7025 69.2532C93.356 56.9897 88.0937 46.7209 76.4863 39.5622L76.5125 39.5557ZM29.6237 19.9629C29.6237 10.652 37.2023 3.07345 46.5131 3.07345C55.824 3.07345 63.4025 10.652 63.4025 19.9629C63.4025 29.2737 55.824 36.8523 46.5131 36.8523C37.2023 36.8523 29.6237 29.2737 29.6237 19.9629Z" fill="#003970" stroke="#003970" stroke-width="0.8"/>
</svg>