<svg width="59" height="59" viewBox="0 0 59 59" fill="none" xmlns="http://www.w3.org/2000/svg">
<path d="M13.9135 29.8724L37.0703 6.20897C38.5406 4.70654 40.746 3.57971 43.3189 3.57971C45.8919 3.57971 48.0973 4.70654 49.9352 6.20897C53.6108 9.96507 53.6108 15.9748 49.9352 19.3553L39.6433 29.8724H44.7892L52.1406 22.3602C57.2865 17.1017 57.2865 8.83824 52.1406 3.95532C49.5676 1.32605 46.2595 0.199219 42.9514 0.199219C39.6433 0.199219 36.7027 0.950438 34.1298 3.57971L10.973 27.6187C9.87029 28.37 9.13516 29.4968 8.40002 30.9992C10.2379 30.248 12.0757 29.8724 13.9135 29.8724Z" fill="black"/>
<path d="M26.8085 19.7988L16.8 28.1988H36.4L26.8085 19.7988Z" fill="black"/>
<path d="M45.9375 33.7988H12.8625C5.88 33.7988 0 39.5588 0 46.3988C0 53.2388 5.88 58.9988 12.8625 58.9988H45.9375C52.92 58.9988 58.8 53.2388 58.8 46.3988C58.8 39.5588 52.92 33.7988 45.9375 33.7988ZM45.9375 55.3988H29.4V40.9988H12.8625C8.82 40.9988 5.5125 43.1588 3.675 45.3188C4.41 40.9988 8.085 37.3988 12.8625 37.3988H45.9375C51.0825 37.3988 55.125 41.3588 55.125 46.3988C55.125 51.4388 51.0825 55.3988 45.9375 55.3988Z" fill="black"/>
</svg>
