<svg width="348" height="103" viewBox="0 0 348 103" fill="none" xmlns="http://www.w3.org/2000/svg">
<mask id="mask0_2507_1623" style="mask-type:alpha" maskUnits="userSpaceOnUse" x="0" y="0" width="348" height="103">
<path d="M347.725 0.292969H0V102.496H347.725V0.292969Z" fill="white"/>
</mask>
<g mask="url(#mask0_2507_1623)">
<mask id="mask1_2507_1623" style="mask-type:alpha" maskUnits="userSpaceOnUse" x="0" y="0" width="348" height="103">
<path d="M347.725 0.292969H0V102.496H347.725V0.292969Z" fill="white"/>
</mask>
<g mask="url(#mask1_2507_1623)">
<path d="M334.85 102.477H12.8751C5.79575 102.477 0 96.7278 0 89.706V13.0635C0 6.04164 5.79575 0.292969 12.8751 0.292969H334.85C341.93 0.292969 347.725 6.04164 347.725 13.0635V89.706C347.725 96.7278 341.93 102.477 334.85 102.477Z" fill="#12100E"/>
<path d="M334.85 2.3378C340.821 2.3378 345.664 7.16051 345.664 13.0635V89.706C345.664 95.6283 340.802 100.432 334.85 100.432H12.8751C6.90433 100.432 2.06157 95.609 2.06157 89.706V13.0635C2.06157 7.14121 6.90433 2.3378 12.8751 2.3378H334.85ZM334.85 0.292969H12.8751C5.79575 0.292969 0 6.04164 0 13.0635V89.706C0 96.7278 5.79575 102.477 12.8751 102.477H334.85C341.93 102.477 347.725 96.7278 347.725 89.706V13.0635C347.725 6.04164 341.93 0.292969 334.85 0.292969Z" fill="#B0ACAB"/>
<path d="M175.506 55.87C169.457 55.87 164.517 60.4419 164.517 66.7307C164.517 73.0195 169.457 77.5915 175.506 77.5915C181.555 77.5915 186.495 72.981 186.495 66.7307C186.495 60.4805 181.555 55.87 175.506 55.87ZM175.506 73.3282C172.18 73.3282 169.321 70.6082 169.321 66.75C169.321 62.8919 172.18 60.1718 175.506 60.1718C178.832 60.1718 181.691 62.8533 181.691 66.75C181.691 70.6468 178.832 73.3282 175.506 73.3282ZM151.506 55.87C145.458 55.87 140.518 60.4419 140.518 66.7307C140.518 73.0195 145.458 77.5915 151.506 77.5915C157.555 77.5915 162.514 72.981 162.514 66.7307C162.514 60.4805 157.574 55.87 151.506 55.87ZM151.506 73.3282C148.181 73.3282 145.322 70.6082 145.322 66.75C145.322 62.8919 148.181 60.1718 151.506 60.1718C154.832 60.1718 157.691 62.8533 157.691 66.75C157.691 70.6468 154.832 73.3282 151.506 73.3282ZM122.975 59.2073V63.8178H134.1C133.769 66.4028 132.894 68.3126 131.571 69.6244C129.957 71.2255 127.429 73.0003 122.975 73.0003C116.129 73.0003 110.78 67.5217 110.78 60.7313C110.78 53.9409 116.129 48.4623 122.975 48.4623C126.67 48.4623 129.374 49.9091 131.357 51.761L134.644 48.5202C131.863 45.8773 128.168 43.8711 122.975 43.8711C113.601 43.8711 105.704 51.4524 105.704 60.7506C105.704 70.0487 113.581 77.63 122.975 77.63C128.032 77.63 131.863 75.9903 134.839 72.9038C137.912 69.8558 138.865 65.5733 138.865 62.1202C138.865 61.0592 138.787 60.0561 138.612 59.2459H122.975V59.2073ZM239.687 62.7954C238.773 60.3648 235.992 55.87 230.313 55.87C224.634 55.87 219.986 60.2683 219.986 66.7307C219.986 72.8266 224.634 77.5915 230.857 77.5915C235.875 77.5915 238.793 74.5435 239.979 72.7688L236.245 70.2995C235 72.1129 233.288 73.3089 230.857 73.3089C228.426 73.3089 226.676 72.19 225.548 70.0102L240.193 63.9914L239.687 62.7568V62.7954ZM224.75 66.4221C224.634 62.2167 228.037 60.0754 230.468 60.0754C232.374 60.0754 233.989 61.0206 234.533 62.371L224.731 66.4028L224.75 66.4221ZM212.848 76.9549H217.671V44.99H212.848V76.9356V76.9549ZM204.971 58.3006H204.815C203.746 57.0274 201.665 55.87 199.039 55.87C193.555 55.87 188.537 60.6541 188.537 66.7886C188.537 72.9231 193.555 77.6108 199.039 77.6108C201.645 77.6108 203.726 76.4533 204.815 75.1415H204.971V76.7041C204.971 80.8709 202.734 83.0894 199.117 83.0894C196.161 83.0894 194.352 80.9867 193.593 79.2119L189.412 80.9481C190.618 83.8224 193.807 87.3719 199.117 87.3719C204.757 87.3719 209.541 84.0732 209.541 76.0482V56.5452H204.971V58.3199V58.3006ZM199.448 73.3282C196.122 73.3282 193.341 70.5696 193.341 66.7886C193.341 63.0076 196.122 60.1526 199.448 60.1526C202.773 60.1526 205.302 62.9497 205.302 66.7886C205.302 70.6275 202.734 73.3282 199.448 73.3282ZM262.248 45.0093H250.734V76.9549H255.538V64.8595H262.248C267.577 64.8595 272.808 61.0399 272.808 54.944C272.808 48.8481 267.577 45.0285 262.248 45.0285M262.364 60.4226H255.538V49.4654H262.364C265.962 49.4654 268.005 52.4169 268.005 54.944C268.005 57.4711 265.962 60.4226 262.364 60.4226ZM292.063 55.8314C288.581 55.8314 284.983 57.3554 283.486 60.712L287.745 62.4867C288.659 60.712 290.351 60.1526 292.141 60.1526C294.63 60.1526 297.158 61.638 297.197 64.2615V64.5894C296.322 64.0879 294.455 63.3548 292.179 63.3548C287.59 63.3548 282.902 65.8626 282.902 70.5503C282.902 74.8329 286.676 77.5722 290.896 77.5722C294.124 77.5722 295.914 76.1447 297.022 74.4471H297.178V76.9163H301.826V64.6666C301.826 58.9951 297.567 55.8314 292.043 55.8314M291.46 73.3282C289.885 73.3282 287.687 72.5373 287.687 70.6082C287.687 68.139 290.429 67.1937 292.782 67.1937C294.902 67.1937 295.894 67.6374 297.178 68.2547C296.808 71.2062 294.241 73.3089 291.46 73.3089M318.708 56.5066L313.204 70.3574H313.048L307.33 56.5066H302.157L310.734 75.8553L305.852 86.6196H310.87L324.095 56.5066H318.747H318.708ZM275.415 76.9356H280.218V44.99H275.415V76.9356V76.9356Z" fill="white"/>
<path d="M53.3672 49.9089L25.9443 78.7873C26.7806 81.9317 29.6785 84.2273 33.1015 84.2273C34.4629 84.2273 35.766 83.8608 36.8551 83.2242L36.9524 83.1663L67.8176 65.4959L53.3672 49.8896V49.9089Z" fill="#E43629"/>
<path d="M81.1015 45.0088H81.082L67.7596 37.3311L52.7451 50.5839L67.8179 65.5343L81.082 57.953C83.3964 56.699 84.9912 54.2684 84.9912 51.4712C84.9912 48.6741 83.4353 46.2627 81.1404 45.0281" fill="#F8BD03"/>
<path d="M25.9452 24.001C25.7896 24.599 25.6924 25.2356 25.6924 25.8915V76.9157C25.6924 77.5716 25.7896 78.2082 25.9452 78.8062L54.3016 50.6802L25.9452 24.001Z" fill="#597EBE"/>
<path d="M53.5617 51.3943L67.7593 37.312L36.9329 19.5837C35.8049 18.9085 34.5018 18.542 33.1015 18.542C29.6785 18.542 26.7806 20.8569 25.9443 23.982L53.5811 51.375L53.5617 51.3943Z" fill="#2F9F43"/>
</g>
<path d="M107.63 17.9248H112.764C114.418 17.9248 115.876 18.2527 117.101 18.9279C118.327 19.6031 119.28 20.5291 119.941 21.7444C120.602 22.9597 120.933 24.3294 120.933 25.8919C120.933 27.4545 120.602 28.8241 119.941 30.0394C119.28 31.2548 118.327 32.1807 117.101 32.8559C115.876 33.5311 114.418 33.859 112.764 33.859H107.63V17.9248ZM112.687 31.5248C114.515 31.5248 115.935 31.0233 116.926 30.0202C117.938 29.017 118.443 27.6474 118.443 25.8726C118.443 24.0979 117.938 22.7282 116.926 21.7251C115.915 20.722 114.495 20.2204 112.687 20.2204H110.08V31.5056H112.687V31.5248Z" fill="white"/>
<path d="M124.161 17.9248H133.886V20.2397H126.631V24.7345H133.166V27.0494H126.631V31.5441H133.886V33.859H124.161V17.9248Z" fill="white"/>
<path d="M138.223 33.0496C137.153 32.278 136.414 31.1977 136.006 29.8088L138.34 28.8828C138.573 29.7702 139.001 30.5032 139.623 31.0627C140.226 31.6221 140.985 31.9115 141.841 31.9115C142.638 31.9115 143.338 31.6993 143.883 31.2941C144.447 30.889 144.719 30.3103 144.719 29.5773C144.719 28.9021 144.466 28.3619 143.98 27.9183C143.494 27.4746 142.638 27.0502 141.432 26.6451L140.421 26.2978C139.332 25.912 138.418 25.3719 137.698 24.6774C136.978 23.9829 136.609 23.0763 136.609 21.9381C136.609 21.1472 136.823 20.4334 137.251 19.7582C137.678 19.0831 138.281 18.5622 139.04 18.1764C139.818 17.7906 140.674 17.5977 141.646 17.5977C143.027 17.5977 144.155 17.9256 144.991 18.6008C145.828 19.276 146.392 20.0283 146.703 20.8771L144.486 21.8031C144.33 21.2629 144.019 20.8192 143.552 20.4334C143.066 20.0476 142.463 19.8547 141.685 19.8547C140.907 19.8547 140.323 20.0476 139.818 20.4334C139.312 20.8192 139.059 21.3015 139.059 21.8995C139.059 22.4397 139.293 22.9026 139.74 23.2692C140.187 23.6357 140.907 23.9829 141.86 24.3109L142.891 24.6581C144.272 25.1404 145.322 25.7384 146.08 26.51C146.819 27.2624 147.208 28.2655 147.208 29.5387C147.208 30.5804 146.936 31.4485 146.411 32.1429C145.886 32.8567 145.205 33.3776 144.369 33.7055C143.533 34.0527 142.696 34.2264 141.821 34.2264C140.499 34.2264 139.293 33.8405 138.242 33.0689L138.223 33.0496Z" fill="white"/>
<path d="M153.49 33.107C152.207 32.374 151.215 31.3901 150.476 30.0976C149.737 28.8244 149.386 27.4162 149.386 25.8729C149.386 24.3297 149.756 22.9214 150.476 21.6482C151.215 20.3751 152.207 19.3719 153.49 18.6389C154.774 17.9058 156.174 17.5586 157.73 17.5586C160.142 17.5586 162.106 18.4267 163.662 20.1629L161.931 21.8219C161.386 21.166 160.764 20.6837 160.083 20.3558C159.403 20.0278 158.625 19.8735 157.749 19.8735C156.66 19.8735 155.668 20.1243 154.774 20.6258C153.879 21.1274 153.16 21.8219 152.654 22.7285C152.129 23.6352 151.876 24.6962 151.876 25.8729C151.876 27.0497 152.129 28.1107 152.654 29.0173C153.179 29.924 153.879 30.6378 154.774 31.12C155.668 31.6216 156.66 31.8724 157.749 31.8724C159.578 31.8724 161.095 31.12 162.339 29.6347L164.109 31.3322C163.331 32.2389 162.398 32.9334 161.309 33.4349C160.219 33.9365 159.014 34.1873 157.73 34.1873C156.174 34.1873 154.754 33.8208 153.49 33.107Z" fill="white"/>
<path d="M171.733 17.9248H174.534L180.602 33.8397H177.899L176.42 29.7501H169.886L168.407 33.8397H165.704L171.753 17.9248H171.733ZM175.604 27.4738L173.814 22.5932L173.211 20.7798H173.075L172.472 22.5932L170.683 27.4738H175.604Z" fill="white"/>
<path d="M183.033 17.9248H188.654C189.626 17.9248 190.502 18.137 191.279 18.5421C192.057 18.9665 192.68 19.5259 193.147 20.2783C193.594 21.0113 193.827 21.8601 193.827 22.7861C193.827 23.8471 193.477 24.7923 192.777 25.6218C192.077 26.4514 191.221 26.9915 190.171 27.2809V27.3966L194.566 33.7047V33.8397H191.727L187.448 27.5895H185.503V33.8397H183.033V17.9248ZM188.596 25.3518C189.374 25.3518 190.035 25.101 190.56 24.6187C191.085 24.1365 191.357 23.5191 191.357 22.7668C191.357 22.0916 191.124 21.4936 190.638 20.9728C190.151 20.4519 189.51 20.2011 188.693 20.2011H185.503V25.3325H188.596V25.3518Z" fill="white"/>
<path d="M200.304 33.1075C199.02 32.3744 198.009 31.3906 197.25 30.1174C196.492 28.8442 196.122 27.436 196.122 25.8927C196.122 24.3494 196.492 22.9219 197.25 21.668C198.009 20.3948 199.02 19.411 200.304 18.6779C201.587 17.9449 202.988 17.5977 204.524 17.5977C205.749 17.5977 206.877 17.8099 207.908 18.2343C208.939 18.6587 209.814 19.2567 210.534 20.0283L208.822 21.7259C207.733 20.5106 206.294 19.9126 204.524 19.9126C203.474 19.9126 202.501 20.1633 201.587 20.6649C200.673 21.1665 199.953 21.8609 199.409 22.7869C198.864 23.7128 198.612 24.7546 198.612 25.912C198.612 27.0695 198.884 28.1497 199.428 29.0564C199.973 29.9631 200.693 30.6768 201.607 31.1591C202.501 31.6607 203.493 31.9115 204.563 31.9115C206.255 31.9115 207.616 31.3906 208.686 30.3296C209.036 30.0017 209.308 29.5966 209.542 29.0757C209.775 28.5741 209.931 28.0147 210.028 27.4167H204.524V25.2561H212.323C212.42 25.7577 212.459 26.1821 212.459 26.5486C212.459 27.5517 212.303 28.5163 211.973 29.4229C211.642 30.3296 211.156 31.1398 210.475 31.8343C209.756 32.6059 208.9 33.1846 207.889 33.609C206.897 34.0142 205.769 34.2264 204.524 34.2264C203.007 34.2264 201.587 33.8598 200.304 33.1461V33.1075Z" fill="white"/>
<path d="M219.577 17.9248H222.378L228.446 33.8397H225.742L224.264 29.7501H217.729L216.251 33.8397H213.548L219.596 17.9248H219.577ZM223.447 27.4738L221.658 22.5932L221.055 20.7798H220.919L220.316 22.5932L218.527 27.4738H223.447Z" fill="white"/>
<path d="M230.876 17.9248H236.497C237.469 17.9248 238.344 18.137 239.122 18.5421C239.9 18.9665 240.523 19.5259 240.989 20.2783C241.437 21.0113 241.67 21.8601 241.67 22.7861C241.67 23.8471 241.32 24.7923 240.62 25.6218C239.92 26.4514 239.064 26.9915 238.014 27.2809V27.3966L242.409 33.7047V33.8397H239.57L235.291 27.5895H233.346V33.8397H230.876V17.9248ZM236.438 25.3518C237.216 25.3518 237.878 25.101 238.403 24.6187C238.928 24.1365 239.2 23.5191 239.2 22.7668C239.2 22.0916 238.967 21.4936 238.48 20.9728C237.994 20.4519 237.352 20.2011 236.536 20.2011H233.346V25.3325H236.438V25.3518Z" fill="white"/>
<path d="M249.762 17.9248H259.486V20.2397H252.232V24.7345H258.767V27.0494H252.232V31.5441H259.486V33.859H249.762V17.9248Z" fill="white"/>
<path d="M262.948 17.9248H265.866L273.12 29.615H273.256L273.12 26.5478V17.9248H275.571V33.8397H273.023L265.399 21.5515H265.263L265.399 24.6187V33.8397H262.948V17.9248Z" fill="white"/>
</g>
</svg>
