<svg width="434" height="269" viewBox="0 0 434 269" fill="none" xmlns="http://www.w3.org/2000/svg">
<path d="M387.915 177.51C361.039 193.398 330.22 201.907 298.44 201.907C216.538 201.907 147.772 145.645 128.611 69.9762H129.15C152.208 69.9762 170.9 51.3739 170.9 28.4273V26.5488C170.9 3.60227 152.208 -15 129.15 -15H41.7499C18.6923 -15 0 3.60227 0 26.5488V28.4273C0 51.265 18.5243 69.77 41.4294 69.945C61.9116 192.872 169.2 287 298.44 287C345.739 287 391.608 274.317 431.611 250.655C455.075 236.774 460.292 205.217 441.967 185.09C428.137 169.906 405.615 167.048 387.915 177.51Z" fill="#EFE5FF" fill-opacity="0.5"/>
</svg>
