<svg width="525" height="410" viewBox="0 0 525 410" fill="none" xmlns="http://www.w3.org/2000/svg">
    <path d="M-140.182 173.182L-142.248 174.704L-140.268 176.336C-26.503 270.05 140.558 278.976 264.459 187.688C312.532 152.269 349.619 104.978 372.473 50.8608C387.081 16.2749 423.217 -3.80882 459.945 3.62278C508.636 13.4868 535.289 65.616 515.945 111.46C482.291 191.21 427.676 260.905 356.851 313.087C163.341 455.662 -101.706 432.339 -268.715 269.888L-269.921 268.715L-271.284 269.702C-305.03 294.168 -352.246 286.908 -377.027 253.274L-379.119 250.435C-404.019 216.639 -396.819 169.067 -363.042 144.18L-231.633 47.3613C-197.856 22.4745 -150.286 29.6945 -125.386 63.4902L-123.294 66.3296C-98.3944 100.125 -105.594 147.698 -139.371 172.584L-140.182 173.182Z" stroke="white" stroke-opacity="0.25" stroke-width="4"/>
</svg>
