<svg width="470" height="717" viewBox="0 0 470 717" fill="none" xmlns="http://www.w3.org/2000/svg">
<path d="M209.165 204.561L206.726 203.763L206.547 206.323C196.289 353.358 286.009 494.565 432.269 542.451C489.017 561.031 549.053 563.773 606.384 550.964C643.026 542.779 680.357 560.542 695.629 594.761C715.865 640.133 688.893 692.099 640.336 702.963C555.864 721.86 467.41 717.853 383.804 690.48C155.374 615.691 20.4903 386.344 55.8044 156.05L56.0595 154.386L54.4644 153.851C14.9527 140.577 -6.54754 97.9177 6.45123 58.215L7.54862 54.8632C20.6102 14.9689 63.5241 -6.78745 103.397 6.26712L258.519 57.0544C298.392 70.109 320.13 113.032 307.068 152.927L305.971 156.279C292.909 196.173 249.995 217.929 210.122 204.875L209.165 204.561Z" stroke="white" stroke-opacity="0.25" stroke-width="4"/>
</svg>
