<svg width="473" height="905" viewBox="0 0 473 905" fill="none" xmlns="http://www.w3.org/2000/svg">
<path d="M346.354 253.627L345.822 251.116L343.517 252.245C211.156 317.093 133.966 465.52 165.868 616.077C178.246 674.492 205.975 727.811 245.803 770.993C271.257 798.592 274.605 839.798 252.655 870.168C223.545 910.426 165.06 913.145 131.313 876.58C72.61 812.968 31.727 734.427 13.4909 648.364C-36.334 413.224 94.4718 181.527 311.433 96.6128L313 95.9996L312.664 94.3509C304.337 53.5095 330.467 13.5178 371.336 4.85788L374.786 4.12679C415.853 -4.57491 456.193 21.6466 464.891 62.691L498.725 222.37C507.423 263.414 481.183 303.743 440.117 312.445L436.667 313.176C395.601 321.878 355.26 295.656 346.563 254.612L346.354 253.627Z" stroke="white" stroke-opacity="0.25" stroke-width="4"/>
</svg>
