<?xml version="1.0" encoding="UTF-8"?>
<svg xmlns="http://www.w3.org/2000/svg" xmlns:xlink="http://www.w3.org/1999/xlink" width="470px" height="300px" viewBox="0 0 470 300" version="1.1">
<g id="surface1">
<path style="fill:none;stroke-width:3;stroke-linecap:butt;stroke-linejoin:miter;stroke:rgb(255,255,255);stroke-opacity:1;stroke-miterlimit:10;" d="M 160.519448 -69.730599 C 176.389004 -12.911458 207.299077 38.92194 250.670919 80.338932 C 362.438497 187.089648 529.969872 199.560547 655.220246 120.770117 L 654.478474 120.067839 C 623.00989 90.018164 621.871052 40.152018 651.917179 8.680339 L 654.378117 6.102409 C 684.428607 -25.369271 734.297498 -26.507747 765.770445 3.541927 L 885.047374 117.459375 C 916.520321 147.509049 917.659159 197.379557 887.608669 228.851237 L 885.147731 231.429167 C 855.236868 262.748177 805.730136 263.978255 774.239736 234.360417 C 585.288605 376.229427 315.610871 365.48151 139.230593 197.030599 C 74.678981 135.378385 28.697847 58.201888 5.087683 -26.38125 C -8.752909 -75.990039 25.460231 -126.069922 76.83012 -129.79069 C 115.589885 -132.591081 150.06919 -107.152018 160.519448 -69.730599 Z M 160.519448 -69.730599 " transform="matrix(0.895238,0,0,0.895522,0,0)"/>
</g>
</svg>
