<svg width="169" height="141" viewBox="0 0 169 141" fill="none" xmlns="http://www.w3.org/2000/svg">
<path d="M82.2414 23.8477C49.8849 23.8477 23.6418 50.052 23.6418 82.3608C23.6418 114.67 49.8849 140.874 82.2414 140.874C114.598 140.874 140.841 114.67 140.841 82.3608C140.841 50.052 114.598 23.8477 82.2414 23.8477ZM103.995 118.441C97.4504 122.329 89.9618 124.397 82.2414 124.397C61.1177 124.397 43.5892 108.962 40.2426 88.8126C36.4983 88.7795 33.4664 85.7521 33.4664 82.0134V81.6991C33.4664 77.9438 36.5148 74.8833 40.2923 74.8833H54.5735C58.3344 74.8833 61.3993 77.9272 61.3993 81.6991V82.0134C61.3993 85.7687 58.3509 88.8292 54.5735 88.8292H54.4907C57.6219 101.237 68.8548 110.468 82.2414 110.468C87.427 110.468 92.4635 109.078 96.854 106.464C99.7533 104.744 103.431 105.223 105.684 107.705C108.683 110.997 107.822 116.175 103.995 118.458V118.441ZM117.862 88.8126H98.3947C94.5345 88.8126 91.4032 85.686 91.4032 81.8314C91.4032 77.9769 94.5345 74.8502 98.3947 74.8502H108.319C109.164 74.8502 109.81 74.0231 109.561 73.2124C107.258 65.8838 102.089 59.7794 95.2469 56.3219C92.944 55.1639 91.4198 52.914 91.4198 50.3333V49.5226C91.4198 44.5928 96.6054 41.4827 101.029 43.6498C115.327 50.631 124.853 65.2055 124.853 81.8314C124.853 85.686 121.722 88.8126 117.862 88.8126Z" fill="white"/>
<path d="M10.2553 81.7316C10.2388 82.9061 9.84114 83.7995 9.06246 84.4116C8.28379 85.0236 7.17376 85.3214 5.73238 85.2883L0 85.1725L0.0331359 83.4024L6.11344 83.5182C6.89211 83.5182 7.50511 83.3362 7.95244 82.9227C8.39976 82.5091 8.63171 81.9466 8.64828 81.2353C8.64828 80.4908 8.4329 79.8953 7.96901 79.4155C7.50511 78.9358 6.85898 78.6876 6.0306 78.6711L0.13254 78.5553L0.165676 76.7852L10.0565 76.9671V78.3733L5.79865 78.2906V78.0755C6.77614 78.0921 7.60452 78.241 8.26722 78.5056C8.92992 78.7703 9.44352 79.1674 9.77487 79.6802C10.1228 80.193 10.2885 80.8548 10.2719 81.6323V81.6985L10.2553 81.7316Z" fill="white"/>
<path d="M10.421 73.1805L0.712402 71.3773L0.977483 70.0042L5.13594 70.7817L5.10281 70.9968C4.14189 70.8148 3.36321 70.5336 2.75021 70.1531C2.13721 69.7726 1.70646 69.2763 1.45794 68.6807C1.20943 68.0852 1.15973 67.3738 1.3254 66.5632V66.497C1.55735 65.2728 2.12065 64.4457 2.99873 63.999C3.87681 63.5524 5.03654 63.4696 6.47792 63.7343L12.0281 64.76L11.6967 66.497L5.78208 65.4052C5.03654 65.2728 4.3904 65.3721 3.86024 65.703C3.33008 66.0504 2.99873 66.5798 2.84962 67.3242C2.71708 68.0852 2.83305 68.7469 3.21411 69.3094C3.59516 69.8718 4.19159 70.2193 4.97027 70.3681L10.7689 71.4434L10.4376 73.1805H10.421Z" fill="white"/>
<path d="M15.0434 55.5943L12.2601 54.6017L12.1607 54.8829L8.94657 53.7249C8.317 53.4933 7.77027 53.4933 7.32294 53.7084C6.87562 53.9234 6.54427 54.3536 6.31232 54.9822C6.17978 55.3461 6.06381 55.7101 5.93126 56.1071C5.79872 56.5042 5.68275 56.8681 5.56678 57.2155C5.45081 57.5629 5.36797 57.8772 5.3017 58.1419L3.84375 57.6126C3.91002 57.3479 3.99286 57.0666 4.0757 56.7854C4.15854 56.5042 4.25794 56.2064 4.35735 55.8921C4.45675 55.5943 4.55616 55.2965 4.65556 55.0153C5.00348 54.0723 5.38454 53.3279 5.83186 52.815C6.27918 52.3022 6.80935 51.9879 7.42235 51.8721C8.03535 51.7563 8.78089 51.8721 9.6424 52.1864L15.5239 54.3039L15.0434 55.6274V55.5943ZM14.1819 58.7209C13.9334 59.4158 13.6021 59.9782 13.1713 60.3918C12.7405 60.8054 12.2601 61.0701 11.7133 61.1859C11.1666 61.3017 10.5702 61.2355 9.92405 61.0039C9.26135 60.7723 8.76432 60.4249 8.43297 59.9617C8.10162 59.515 7.91937 58.9526 7.90281 58.3074C7.88624 57.6622 8.01878 56.9343 8.30043 56.1402L9.21165 53.6257L10.4708 54.0723L9.543 56.6696C9.29448 57.3479 9.27792 57.9103 9.47673 58.3901C9.67554 58.8698 10.0235 59.2007 10.5371 59.3827C11.0506 59.5646 11.5311 59.5316 11.9619 59.2834C12.4092 59.0353 12.7571 58.5721 12.9891 57.9103C13.1382 57.5133 13.1879 57.1163 13.1713 56.7027C13.1713 56.2891 13.0222 55.9086 12.7571 55.5447C12.492 55.1807 12.0778 54.8829 11.4814 54.6513L12.3098 54.4363C12.9559 54.734 13.4529 55.098 13.8009 55.5116C14.1488 55.9252 14.3642 56.4214 14.4304 56.9508C14.4967 57.4968 14.4304 58.0923 14.1819 58.7375V58.7209Z" fill="white"/>
<path d="M19.0196 46.5626L10.9512 40.8552L11.763 39.7137L15.2256 42.1621L15.0931 42.3441C14.3144 41.7816 13.718 41.2191 13.3038 40.6236C12.9061 40.028 12.7073 39.4159 12.7073 38.8038C12.7073 38.1917 12.9393 37.5631 13.3866 36.9345L13.4363 36.8683C13.8836 36.2396 14.3972 35.8095 14.9937 35.5945C15.5901 35.3794 16.2197 35.3794 16.9155 35.5614C17.6113 35.7434 18.3403 36.1238 19.1356 36.6698L18.8373 37.0833C18.0587 36.5209 17.4622 35.9584 17.0646 35.3463C16.667 34.7508 16.4682 34.1387 16.4682 33.51C16.4682 32.8814 16.7001 32.2527 17.1474 31.6241L17.1971 31.5579C17.6445 30.9293 18.1581 30.4992 18.7545 30.2841C19.3509 30.069 19.9971 30.0525 20.6763 30.2345C21.3722 30.4165 22.1177 30.7804 22.8964 31.3429L27.5022 34.6019L26.475 36.0411L21.5544 32.5671C20.9083 32.1039 20.2787 31.9053 19.6988 31.9715C19.119 32.0377 18.622 32.3686 18.2078 32.931C17.7936 33.5266 17.6445 34.1387 17.7604 34.7673C17.8764 35.396 18.274 35.9419 18.9533 36.4216L23.791 39.8461L22.7639 41.2853L17.8433 37.8113C17.1806 37.348 16.5676 37.1495 15.9877 37.2157C15.4079 37.2819 14.9108 37.6127 14.4966 38.1752C14.0824 38.7708 13.9168 39.3828 14.0493 40.0115C14.1653 40.6401 14.5629 41.1861 15.2422 41.6658L20.0799 45.0902L19.0527 46.5295L19.0196 46.5626Z" fill="white"/>
<path d="M33.3838 29.5892C32.7542 30.1682 32.1081 30.5818 31.4454 30.7803C30.7827 30.9953 30.1365 31.0615 29.5235 30.9622C28.9105 30.863 28.3141 30.681 27.7674 30.3667C27.2206 30.0524 26.7236 29.6719 26.2928 29.2087L26.0609 28.9605C25.6301 28.4973 25.2657 27.9679 25.0006 27.4055C24.7355 26.843 24.5698 26.2309 24.5367 25.6188C24.487 24.9902 24.603 24.3615 24.8515 23.7494C25.1 23.1208 25.5307 22.5252 26.1272 21.9628C26.9224 21.2349 27.7177 20.8048 28.546 20.6724C29.3744 20.5401 30.1531 20.6228 30.8986 20.9206C31.6442 21.2183 32.2903 21.6815 32.8536 22.2771L33.4003 22.8561L26.9721 28.8116L26.0609 27.8356L31.5282 22.7568L31.727 23.5675C31.2466 23.0546 30.7495 22.6907 30.2359 22.4591C29.7223 22.2275 29.2087 22.1778 28.6951 22.2606C28.1816 22.3598 27.668 22.641 27.1709 23.0877C26.6573 23.5675 26.3426 24.0803 26.21 24.6262C26.094 25.1721 26.1437 25.7346 26.3426 26.2971C26.5579 26.8595 26.9059 27.4055 27.4029 27.9349C27.8833 28.4477 28.3969 28.8282 28.9437 29.0929C29.4904 29.341 30.0537 29.4237 30.6336 29.341C31.2134 29.2583 31.7601 28.9605 32.3069 28.4477C32.8702 27.9183 33.2181 27.3558 33.3341 26.7768C33.45 26.1978 33.4003 25.7015 33.1518 25.3045L34.3778 24.1796C34.7423 24.7751 34.9411 25.3872 34.9743 26.0159C35.0074 26.661 34.8914 27.2731 34.6263 27.8852C34.3447 28.4973 33.9305 29.0598 33.3672 29.5892H33.3838Z" fill="white"/>
<path d="M33.1848 14.3679C32.87 14.5995 32.5718 14.6823 32.2902 14.6326C32.0085 14.5665 31.7766 14.4176 31.5943 14.1529C31.4121 13.8882 31.3292 13.6235 31.3624 13.3423C31.3955 13.061 31.5612 12.8129 31.8925 12.5813C32.2073 12.3497 32.5055 12.267 32.7872 12.3166C33.0688 12.3828 33.3008 12.5316 33.483 12.7963C33.6653 13.061 33.7481 13.3257 33.715 13.607C33.6818 13.8882 33.4996 14.1363 33.1848 14.3679ZM33.4168 18.0736L32.5884 16.9321L35.2392 15.0297L36.0676 16.1711L33.4333 18.0736H33.4168ZM39.8118 28.5454L38.8841 27.2551L39.729 26.643C40.1101 26.3617 40.3254 26.0474 40.3751 25.7C40.4248 25.336 40.3254 24.9721 40.0604 24.6081L33.8641 16.0223L35.2392 15.0297L41.2864 23.417C41.7668 24.0788 42.065 24.6909 42.1644 25.2037C42.2638 25.7331 42.1644 26.2128 41.8828 26.676C41.6011 27.1392 41.1207 27.6025 40.458 28.0988L39.8284 28.5454H39.8118Z" fill="white"/>
<path d="M48.3607 18.9515C47.5986 19.365 46.8531 19.5801 46.1407 19.6297C45.4283 19.6794 44.749 19.5966 44.1194 19.3816C43.4899 19.1665 42.9431 18.8357 42.4461 18.4221C41.9657 17.992 41.568 17.5122 41.2698 16.9497L41.1207 16.652C40.8225 16.106 40.6403 15.4939 40.5574 14.8488C40.4746 14.2036 40.5243 13.5584 40.69 12.9132C40.8556 12.268 41.1704 11.6725 41.6012 11.11C42.0485 10.5475 42.6284 10.0678 43.3739 9.67074C44.1194 9.27371 44.8319 9.05865 45.5443 8.99247C46.2567 8.94284 46.9359 9.02556 47.5655 9.24062C48.1951 9.45568 48.7584 9.77 49.2554 10.2001C49.7524 10.6302 50.15 11.1265 50.4483 11.6725L50.6139 11.9702C50.9121 12.5162 51.0944 13.1283 51.1772 13.7569C51.2601 14.4021 51.2269 15.0307 51.0447 15.6759C50.879 16.3211 50.5808 16.9166 50.1335 17.4957C49.7027 18.0581 49.0897 18.5544 48.3276 18.9515H48.3607ZM47.6152 17.5453C48.2613 17.1979 48.7418 16.7512 49.0566 16.2218C49.3714 15.6925 49.5039 15.1134 49.4873 14.4848C49.4873 13.8727 49.3051 13.2441 48.9737 12.6485C48.6424 12.0364 48.2282 11.5401 47.7146 11.1927C47.201 10.8453 46.6377 10.6468 46.0247 10.6137C45.4117 10.5806 44.7821 10.7295 44.136 11.0769C43.5064 11.4078 43.026 11.8544 42.7112 12.3838C42.3964 12.9132 42.2473 13.4922 42.2473 14.1208C42.2473 14.7495 42.4296 15.3616 42.7609 15.9902C43.0923 16.6023 43.5064 17.0821 44.0035 17.446C44.5171 17.81 45.0638 18.0085 45.6934 18.0416C46.3064 18.0747 46.9525 17.9258 47.5986 17.5784L47.6152 17.5453Z" fill="white"/>
<path d="M55.8327 15.097L52.4861 5.81629L53.8115 5.33654L55.1866 9.15801H55.1203C54.6399 7.83456 54.5736 6.72617 54.9381 5.88247C55.3026 5.03877 56.0978 4.39358 57.2907 3.96346L57.6055 3.84766L58.1522 5.33654L57.5558 5.5516C56.628 5.88247 55.9984 6.3953 55.6836 7.05703C55.3688 7.71876 55.3688 8.52937 55.7002 9.45579L57.5061 14.4849L55.8327 15.0805V15.097Z" fill="white"/>
<path d="M68.0762 11.1759L67.1318 1.3493L68.5235 1.21695L68.9211 5.43546H68.7058C68.6063 4.4925 68.656 3.68189 68.8549 2.98707C69.0537 2.29226 69.3685 1.74634 69.8489 1.3493C70.3128 0.952267 70.9424 0.704119 71.7045 0.637947H71.7707C72.5494 0.555231 73.1956 0.671031 73.7423 0.985351C74.289 1.29967 74.7198 1.76288 75.018 2.40806C75.3328 3.05325 75.5316 3.84732 75.6144 4.80682L75.1008 4.85645C75.018 3.89695 75.0677 3.06979 75.2499 2.37498C75.4487 1.68016 75.7801 1.13424 76.2606 0.737205C76.741 0.340169 77.354 0.0920211 78.1327 0.0258485H78.199C78.9776 -0.0568673 79.6403 0.0589365 80.1871 0.373256C80.7338 0.687576 81.1646 1.15078 81.4793 1.79597C81.7941 2.44115 81.9929 3.23522 82.0924 4.19472L82.6225 9.80285L80.8498 9.96828L80.2699 3.97966C80.2036 3.18559 79.9386 2.59004 79.5078 2.193C79.077 1.79597 78.5137 1.63053 77.8013 1.69671C77.0724 1.76288 76.5091 2.04411 76.1115 2.55695C75.7138 3.05325 75.5482 3.71497 75.631 4.54213L76.1943 10.4315L74.4216 10.5969L73.8583 4.6083C73.7754 3.81423 73.5269 3.21868 73.0962 2.82164C72.6654 2.42461 72.1021 2.25917 71.3897 2.32535C70.6607 2.39152 70.0974 2.67275 69.6998 3.18559C69.3022 3.68189 69.1365 4.34361 69.2193 5.17077L69.7826 11.0601L68.0099 11.2256L68.0762 11.1759Z" fill="white"/>
<path d="M88.9181 10.7292C88.1891 10.6465 87.5595 10.4645 87.0625 10.1502C86.5489 9.83585 86.1844 9.43881 85.9525 8.92598C85.7205 8.41314 85.6377 7.83413 85.704 7.15586C85.7702 6.46104 86.0022 5.89858 86.3667 5.46846C86.7312 5.03833 87.2282 4.74056 87.8412 4.55858C88.4542 4.37661 89.1997 4.34352 90.0447 4.42624L92.7121 4.70747L92.5795 6.03092L89.8293 5.73315C89.1169 5.65043 88.5536 5.76623 88.1394 6.08055C87.7252 6.37833 87.4933 6.80845 87.427 7.33783C87.3607 7.88376 87.5098 8.33042 87.8578 8.69437C88.2057 9.05832 88.7358 9.28992 89.4482 9.3561C89.8624 9.40572 90.2766 9.3561 90.6742 9.25684C91.0719 9.15758 91.4198 8.92597 91.7014 8.57857C91.9996 8.2477 92.1819 7.75141 92.2813 7.12277L92.6789 7.86721C92.5464 8.56202 92.3144 9.12449 91.9831 9.57116C91.6517 10.0178 91.2375 10.3321 90.7239 10.5307C90.2104 10.7292 89.6139 10.7788 88.9346 10.7126L88.9181 10.7292ZM92.1653 10.8119L92.4801 7.86721L92.1819 7.83413L92.5464 4.44278C92.6126 3.76451 92.4967 3.23513 92.1819 2.85464C91.8671 2.47415 91.3701 2.24254 90.7074 2.17637C90.3263 2.14328 89.9287 2.09365 89.5311 2.07711C89.1335 2.06057 88.7358 2.01094 88.3714 1.99439C88.0069 1.96131 87.6755 1.94476 87.4104 1.94476L87.5761 0.40625C87.8412 0.40625 88.1394 0.406251 88.4376 0.439337C88.7358 0.439337 89.0506 0.472425 89.3654 0.505511C89.6802 0.538597 89.995 0.571683 90.2932 0.588226C91.3038 0.687485 92.0991 0.902547 92.7121 1.20032C93.3251 1.51464 93.7558 1.94476 94.0043 2.52377C94.2528 3.10278 94.3357 3.84723 94.2363 4.7571L93.5736 10.9608L92.1819 10.8119H92.1653Z" fill="white"/>
<path d="M97.1357 11.5894L99.7203 2.06055L101.079 2.4245L99.9688 6.51066L99.7534 6.44449C100.002 5.50153 100.35 4.74054 100.781 4.16153C101.211 3.58252 101.742 3.20203 102.355 3.00351C102.968 2.80499 103.68 2.82153 104.475 3.03659H104.541C105.751 3.384 106.53 3.9961 106.911 4.90597C107.292 5.81585 107.275 6.97387 106.911 8.38003L105.436 13.8227L103.713 13.3595L105.287 7.56942C105.486 6.82498 105.436 6.17979 105.138 5.63387C104.84 5.0714 104.326 4.69091 103.614 4.50894C102.868 4.31042 102.189 4.37659 101.609 4.70745C101.013 5.03832 100.615 5.60078 100.416 6.37831L98.8753 12.0692L97.1523 11.6059L97.1357 11.5894Z" fill="white"/>
<path d="M112.56 17.1811C111.781 16.8171 111.168 16.3704 110.705 15.8411C110.257 15.3117 109.959 14.7327 109.81 14.1371C109.661 13.525 109.611 12.9129 109.694 12.2843C109.777 11.6556 109.942 11.0601 110.208 10.4811L110.357 10.1833C110.622 9.60429 110.97 9.07491 111.4 8.6117C111.831 8.14849 112.328 7.768 112.892 7.48676C113.455 7.20553 114.068 7.07318 114.747 7.05664C115.426 7.05664 116.139 7.22207 116.884 7.56948C117.862 8.01614 118.574 8.59516 119.005 9.30651C119.436 10.0179 119.668 10.7788 119.668 11.5729C119.668 12.367 119.502 13.1445 119.154 13.9055L118.823 14.6334L110.854 10.9608L111.417 9.75318L118.21 12.8798L117.53 13.3596C117.829 12.7144 117.978 12.1188 117.994 11.5729C117.994 11.0105 117.862 10.5142 117.58 10.0675C117.298 9.62083 116.851 9.25688 116.238 8.97565C115.592 8.67787 114.996 8.57861 114.449 8.67787C113.902 8.77713 113.405 9.02528 112.958 9.43886C112.527 9.85243 112.146 10.3818 111.848 11.0435C111.55 11.6887 111.384 12.3008 111.367 12.9129C111.351 13.525 111.483 14.0709 111.781 14.5672C112.08 15.0635 112.56 15.4606 113.239 15.7749C113.935 16.1057 114.581 16.205 115.178 16.1057C115.758 15.9899 116.205 15.7583 116.47 15.3778L117.978 16.0727C117.564 16.6351 117.083 17.0487 116.503 17.3299C115.923 17.6112 115.31 17.727 114.631 17.7104C113.968 17.6939 113.273 17.5119 112.577 17.1976L112.56 17.1811Z" fill="white"/>
<path d="M119.386 20.373L124.704 12.0684L125.88 12.8293L123.694 16.2538L123.627 16.2207C124.406 15.013 125.251 14.2851 126.146 14.0701C127.04 13.8385 128.034 14.0701 129.095 14.7649L129.376 14.9469L128.515 16.2869L127.985 15.956C127.156 15.4266 126.378 15.2446 125.649 15.3935C124.92 15.5424 124.29 16.0387 123.76 16.8659L120.877 21.3656L119.386 20.4061V20.373Z" fill="white"/>
<path d="M127.985 26.7923C127.421 26.3126 127.024 25.7997 126.775 25.2703C126.527 24.7244 126.444 24.1785 126.543 23.6326C126.626 23.0866 126.891 22.5407 127.338 22.0279C127.786 21.4985 128.299 21.1511 128.83 20.9857C129.376 20.8368 129.956 20.8533 130.569 21.0684C131.182 21.2669 131.812 21.6474 132.474 22.1933L134.529 23.9303L133.667 24.9395L131.563 23.1694C131.016 22.7062 130.486 22.4911 129.973 22.5076C129.459 22.5076 129.028 22.7392 128.68 23.1528C128.333 23.5664 128.2 24.0296 128.266 24.5259C128.333 25.0222 128.647 25.5019 129.194 25.9651C129.509 26.2298 129.873 26.4284 130.254 26.5607C130.652 26.6931 131.05 26.6931 131.48 26.5773C131.911 26.4614 132.342 26.1637 132.773 25.7005L132.69 26.5442C132.193 27.0405 131.679 27.3879 131.166 27.5698C130.652 27.7518 130.122 27.7849 129.592 27.6526C129.061 27.5202 128.531 27.239 128.001 26.7923H127.985ZM130.619 28.6782L132.541 26.4284L132.309 26.2298L134.512 23.616C134.943 23.1032 135.142 22.5903 135.109 22.1106C135.059 21.6143 134.777 21.1511 134.264 20.721C133.965 20.4728 133.667 20.2247 133.352 19.9765C133.038 19.7284 132.723 19.4802 132.441 19.2486C132.16 19.017 131.895 18.8351 131.679 18.6696L132.69 17.4785C132.905 17.6274 133.137 17.8094 133.386 17.9913C133.634 18.1733 133.866 18.3718 134.131 18.5704C134.38 18.7689 134.612 18.9674 134.844 19.1659C135.622 19.8111 136.169 20.4397 136.5 21.0353C136.832 21.6308 136.948 22.2429 136.832 22.855C136.716 23.4671 136.368 24.1289 135.771 24.8237L131.729 29.5881L130.652 28.6782H130.619Z" fill="white"/>
<path d="M139.83 39.3165C139.416 38.754 139.134 38.1584 138.985 37.5298C138.836 36.9012 138.836 36.2725 138.952 35.6439C139.068 35.0152 139.3 34.4197 139.665 33.8572C140.012 33.2947 140.476 32.815 141.056 32.3849L141.321 32.1864C141.885 31.7728 142.481 31.475 143.127 31.293C143.757 31.111 144.386 31.0614 145.016 31.1276C145.645 31.1938 146.242 31.3757 146.805 31.6901C147.368 32.0044 147.849 32.451 148.28 33.0301C148.727 33.6422 149.009 34.2708 149.125 34.9656C149.241 35.6439 149.125 36.3387 148.843 37.05C148.545 37.7614 147.981 38.4562 147.153 39.1179L147.667 37.8276L153.018 33.8903L154.078 35.313L143.193 43.3034L142.365 42.1784L145.894 39.5811L146.209 39.9947C145.281 40.6234 144.403 40.9708 143.591 41.0369C142.779 41.1197 142.067 40.9873 141.437 40.6564C140.808 40.3256 140.278 39.8789 139.847 39.2834L139.83 39.3165ZM141.222 38.5886C141.57 39.0683 142.017 39.4323 142.531 39.6639C143.044 39.8955 143.591 39.9782 144.187 39.9286C144.767 39.8624 145.347 39.6308 145.911 39.2172L146.59 38.7209C147.137 38.3239 147.518 37.8607 147.716 37.3313C147.915 36.8019 147.981 36.2725 147.882 35.71C147.783 35.1641 147.567 34.6513 147.219 34.1715C146.838 33.6422 146.374 33.2782 145.828 33.0466C145.281 32.8315 144.701 32.7654 144.088 32.8812C143.475 32.9804 142.862 33.2617 142.266 33.7083C141.653 34.155 141.205 34.6513 140.924 35.2137C140.642 35.7762 140.526 36.3552 140.576 36.9342C140.625 37.5132 140.857 38.0757 141.238 38.5886H141.222Z" fill="white"/>
<path d="M146.689 50.4487C146.308 49.6712 146.093 48.9433 146.093 48.2485C146.076 47.5537 146.192 46.925 146.457 46.346C146.722 45.7836 147.07 45.2707 147.534 44.824C147.982 44.3774 148.495 44.03 149.058 43.7487L149.357 43.5999C149.937 43.3186 150.533 43.1201 151.146 43.0208C151.776 42.9216 152.389 42.9381 153.002 43.0705C153.615 43.2028 154.194 43.484 154.725 43.8976C155.255 44.3112 155.702 44.8902 156.083 45.6347C156.564 46.5942 156.746 47.4875 156.646 48.3147C156.547 49.1418 156.249 49.8697 155.752 50.4983C155.255 51.127 154.642 51.6233 153.896 51.9872L153.184 52.3346L149.257 44.5097L150.45 43.9142L153.797 50.5811L152.968 50.548C153.598 50.2337 154.095 49.8697 154.459 49.4396C154.807 49.0095 155.023 48.5297 155.072 48.0169C155.122 47.4875 155.006 46.925 154.691 46.3295C154.377 45.7008 153.979 45.2542 153.482 44.9895C152.985 44.7248 152.438 44.609 151.842 44.6586C151.245 44.7082 150.616 44.8902 149.97 45.2045C149.34 45.5189 148.827 45.8994 148.429 46.3626C148.031 46.8092 147.799 47.3386 147.716 47.9011C147.634 48.4801 147.766 49.0922 148.098 49.7539C148.445 50.4487 148.876 50.9285 149.406 51.2097C149.937 51.4909 150.417 51.5737 150.881 51.4579L151.626 52.9467C150.964 53.1287 150.318 53.1453 149.688 53.0129C149.058 52.864 148.495 52.5828 147.998 52.1527C147.485 51.7225 147.054 51.1601 146.722 50.4653L146.689 50.4487Z" fill="white"/>
<path d="M152.272 65.9996C152.074 65.1724 152.057 64.4279 152.19 63.7497C152.339 63.0714 152.604 62.4759 153.001 61.9796C153.399 61.4667 153.863 61.0531 154.393 60.7057C154.923 60.3583 155.503 60.1267 156.083 59.9944L156.414 59.9117C157.027 59.7628 157.657 59.7297 158.287 59.7793C158.916 59.8455 159.529 60.0109 160.092 60.2922C160.656 60.5734 161.169 60.987 161.6 61.5164C162.031 62.0457 162.346 62.7075 162.528 63.5181C162.727 64.3121 162.743 65.0731 162.594 65.7845C162.445 66.4958 162.147 67.1079 161.699 67.6373C161.252 68.1667 160.656 68.5307 159.927 68.7457L159.529 67.0914C160.109 66.8598 160.54 66.4628 160.838 65.9003C161.12 65.3378 161.186 64.6596 160.987 63.8655C160.821 63.1872 160.54 62.6578 160.109 62.2773C159.695 61.8968 159.181 61.6487 158.585 61.5494C157.988 61.4502 157.342 61.4833 156.663 61.6487C156 61.7976 155.42 62.0623 154.94 62.4262C154.443 62.7902 154.095 63.2368 153.896 63.7662C153.697 64.2956 153.664 64.9242 153.83 65.6191C153.962 66.165 154.161 66.5951 154.459 66.959C154.758 67.323 155.072 67.5712 155.453 67.72C155.835 67.8855 156.232 67.9351 156.663 67.8855L157.061 69.5398C156.298 69.6887 155.586 69.6225 154.94 69.3578C154.294 69.0931 153.73 68.663 153.283 68.084C152.836 67.505 152.488 66.8102 152.306 65.9996H152.272Z" fill="white"/>
<path d="M153.962 76.5882C153.88 75.4136 154.194 74.5038 154.923 73.8255C155.652 73.1472 156.729 72.7502 158.171 72.6509L163.886 72.2539L164.002 74.024L157.922 74.4376C157.143 74.4872 156.563 74.7354 156.149 75.182C155.735 75.6287 155.553 76.2077 155.603 76.9191C155.652 77.6635 155.934 78.2425 156.431 78.6726C156.945 79.1028 157.607 79.3013 158.436 79.2351L164.317 78.8215L164.433 80.5917L154.559 81.2699L154.459 79.8638L158.684 79.566V79.781C157.723 79.8472 156.895 79.781 156.216 79.566C155.536 79.3509 154.99 79.0035 154.609 78.5238C154.227 78.044 153.996 77.3988 153.946 76.6213V76.5551L153.962 76.5882Z" fill="white"/>
<path d="M154.393 85.719L164.251 86.2815L164.151 88.0516L154.294 87.4892L154.393 85.719ZM162.942 84.6934L164.35 84.7761L164.168 88.0516L162.76 87.9689L162.942 84.6934ZM165.825 86.8771C165.841 86.48 165.974 86.1988 166.189 86.0168C166.405 85.8348 166.686 85.7521 167.001 85.7687C167.316 85.7852 167.581 85.901 167.78 86.0995C167.979 86.298 168.061 86.5958 168.045 86.9929C168.028 87.3899 167.896 87.6711 167.68 87.8531C167.465 88.0351 167.183 88.1178 166.868 88.1013C166.554 88.0847 166.289 87.9689 166.09 87.7704C165.891 87.5719 165.808 87.2741 165.825 86.8771Z" fill="white"/>
<path d="M152.935 95.3799C153.068 94.6851 153.316 94.073 153.681 93.5436C154.045 93.0143 154.509 92.5676 155.039 92.2367C155.586 91.8893 156.182 91.6577 156.829 91.5419C157.475 91.4261 158.154 91.4261 158.866 91.5585L159.198 91.6246C159.894 91.757 160.507 91.9886 161.07 92.336C161.633 92.6834 162.097 93.1135 162.478 93.6098C162.859 94.1061 163.124 94.6851 163.273 95.2972C163.422 95.9259 163.439 96.5876 163.29 97.2824C163.141 98.0268 162.859 98.6555 162.445 99.2014C162.014 99.7473 161.451 100.144 160.722 100.409C159.993 100.674 159.098 100.723 158.055 100.574L159.363 100.078L165.891 101.335L165.56 103.072L152.289 100.525L152.554 99.1518L156.862 99.9789L156.762 100.492C155.669 100.227 154.824 99.83 154.211 99.2841C153.598 98.7382 153.2 98.1261 153.018 97.4478C152.836 96.7696 152.803 96.0747 152.935 95.3468V95.3799ZM154.41 95.9093C154.294 96.5049 154.327 97.0673 154.493 97.5967C154.658 98.1261 154.973 98.5893 155.42 98.9863C155.868 99.3668 156.431 99.6315 157.11 99.7639L157.939 99.9293C158.601 100.062 159.198 100.012 159.728 99.8135C160.258 99.5984 160.689 99.2841 161.037 98.8375C161.385 98.3908 161.6 97.878 161.716 97.2989C161.849 96.6538 161.799 96.0582 161.583 95.5123C161.368 94.9664 161.02 94.5031 160.523 94.1227C160.026 93.7422 159.413 93.494 158.684 93.3451C157.939 93.1962 157.276 93.2128 156.663 93.3948C156.066 93.5602 155.553 93.8745 155.172 94.3046C154.791 94.7348 154.526 95.2807 154.41 95.9093Z" fill="white"/>
<path d="M149.075 109.806L151.842 110.832L151.941 110.551L155.155 111.742C155.785 111.973 156.332 111.99 156.779 111.791C157.226 111.576 157.574 111.163 157.806 110.534C157.939 110.17 158.071 109.806 158.204 109.426C158.336 109.045 158.452 108.665 158.568 108.317C158.684 107.97 158.784 107.656 158.85 107.391L160.308 107.937C160.241 108.202 160.159 108.483 160.076 108.764C159.993 109.045 159.894 109.343 159.778 109.657C159.678 109.955 159.562 110.253 159.463 110.518C159.115 111.461 158.701 112.189 158.253 112.718C157.806 113.231 157.276 113.545 156.663 113.644C156.05 113.744 155.304 113.644 154.443 113.313L148.578 111.13L149.075 109.806ZM149.97 106.68C150.235 105.985 150.566 105.439 150.997 105.025C151.428 104.612 151.908 104.347 152.455 104.248C153.001 104.149 153.598 104.215 154.227 104.446C154.89 104.694 155.387 105.042 155.702 105.505C156.017 105.968 156.199 106.514 156.216 107.159C156.216 107.805 156.083 108.532 155.785 109.327L154.84 111.841L153.598 111.378L154.559 108.797C154.807 108.135 154.84 107.556 154.642 107.077C154.459 106.597 154.111 106.266 153.598 106.068C153.084 105.886 152.62 105.902 152.173 106.15C151.726 106.398 151.378 106.845 151.129 107.523C150.98 107.92 150.914 108.317 150.93 108.731C150.93 109.145 151.08 109.525 151.328 109.889C151.577 110.253 152.007 110.551 152.587 110.799L151.759 110.997C151.129 110.7 150.632 110.336 150.284 109.906C149.936 109.475 149.738 108.996 149.671 108.45C149.605 107.904 149.704 107.308 149.953 106.663L149.97 106.68Z" fill="white"/>
<path d="M146.971 114.455L155.685 119.104L155.023 120.344L151.428 118.425L151.461 118.359C152.736 119.038 153.515 119.815 153.813 120.692C154.112 121.569 153.962 122.561 153.349 123.686L153.2 123.984L151.792 123.239L152.09 122.694C152.554 121.817 152.687 121.039 152.471 120.311C152.256 119.6 151.709 119.004 150.848 118.541L146.126 116.027L146.971 114.455Z" fill="white"/>
<path d="M140.559 124.744C140.99 124.132 141.437 123.669 141.918 123.354C142.398 123.04 142.928 122.908 143.508 122.957C144.088 123.007 144.751 123.288 145.463 123.785L153.267 129.211L152.289 130.6L144.304 125.042C143.873 124.744 143.442 124.628 143.044 124.694C142.647 124.761 142.282 125.025 141.984 125.455L140.99 126.878L139.681 125.968L140.543 124.728L140.559 124.744ZM150.682 125.34L151.775 126.101L147.882 131.676L146.789 130.915L150.682 125.34Z" fill="white"/>
<path d="M134.877 131.23C135.457 130.601 136.086 130.154 136.716 129.89C137.362 129.625 137.991 129.526 138.621 129.559C139.251 129.609 139.847 129.757 140.41 130.022C140.974 130.287 141.504 130.634 141.968 131.064L142.216 131.296C142.68 131.726 143.078 132.222 143.392 132.768C143.707 133.314 143.906 133.91 143.989 134.522C144.072 135.15 144.022 135.779 143.823 136.424C143.624 137.069 143.243 137.698 142.68 138.294C141.951 139.088 141.172 139.567 140.361 139.766C139.549 139.965 138.754 139.931 137.991 139.7C137.229 139.452 136.533 139.055 135.937 138.492L135.357 137.946L141.322 131.528L142.299 132.437L137.229 137.913L136.981 137.119C137.494 137.599 138.025 137.93 138.538 138.112C139.068 138.294 139.582 138.327 140.095 138.194C140.609 138.062 141.09 137.748 141.553 137.251C142.034 136.739 142.316 136.209 142.382 135.647C142.465 135.084 142.382 134.538 142.117 133.992C141.868 133.447 141.471 132.934 140.94 132.437C140.427 131.958 139.88 131.61 139.317 131.395C138.754 131.18 138.19 131.147 137.61 131.263C137.047 131.395 136.5 131.726 136.003 132.272C135.473 132.834 135.175 133.413 135.092 134.009C135.009 134.605 135.109 135.084 135.374 135.465L134.247 136.689C133.85 136.127 133.601 135.531 133.518 134.902C133.435 134.274 133.518 133.645 133.734 133.016C133.965 132.388 134.347 131.792 134.877 131.213V131.23Z" fill="white"/>
</svg>
