<svg width="40" height="38" viewBox="0 0 40 38" fill="none" xmlns="http://www.w3.org/2000/svg">
<path d="M19.4245 0.463526C19.5742 0.00287068 20.2259 0.00286996 20.3755 0.463525L24.6597 13.6488C24.7266 13.8548 24.9186 13.9943 25.1352 13.9943H38.9991C39.4835 13.9943 39.6848 14.6141 39.293 14.8988L28.0769 23.0478C27.9016 23.1751 27.8283 23.4008 27.8953 23.6068L32.1794 36.7921C32.3291 37.2528 31.8019 37.6359 31.41 37.3512L20.1939 29.2022C20.0187 29.0749 19.7814 29.0749 19.6061 29.2022L8.39002 37.3512C7.99817 37.6359 7.47093 37.2528 7.6206 36.7921L11.9048 23.6068C11.9717 23.4008 11.8984 23.1751 11.7231 23.0478L0.507035 14.8988C0.115178 14.6141 0.316565 13.9943 0.800927 13.9943H14.6648C14.8814 13.9943 15.0734 13.8549 15.1403 13.6488L19.4245 0.463526Z" fill="#FCC700"/>
</svg>
