<svg width="112" height="110" viewBox="0 0 112 110" fill="none" xmlns="http://www.w3.org/2000/svg">
<path d="M105.037 78.1791C108.869 79.1823 111.698 82.6734 111.698 86.8266C111.698 91.7723 107.686 95.7951 102.73 95.7951C97.7742 95.7951 93.7815 91.7723 93.7815 86.8266C93.7815 82.6634 96.6206 79.1623 100.473 78.1691C101.205 77.9785 101.958 77.8682 102.73 77.8682C103.502 77.8682 104.305 77.9685 105.037 78.1791Z" fill="url(#paint0_linear_2507_1844)"/>
<path d="M105.037 49.8799V85.9043C105.037 87.0379 104.195 88.031 103.061 88.1213C102.951 88.1213 102.83 88.1313 102.73 88.1313C102.69 88.1313 102.65 88.1313 102.6 88.1313C101.406 88.1012 100.463 87.088 100.463 85.8942V49.8799C100.463 44.5028 95.808 40.1289 90.0698 40.1289C84.3316 40.1289 79.6768 44.5028 79.6768 49.8799V83.7474C79.6567 98.2234 67.3075 110.001 52.1394 110.001C36.9712 110.001 24.612 98.2133 24.612 83.7374V59.3098C25.2841 59.6409 26.0666 59.8215 26.8993 59.8215C27.7319 59.8215 28.5043 59.6409 29.1865 59.3098V83.7374C29.1865 95.7054 39.4892 105.436 52.1494 105.436C64.8096 105.436 75.1123 95.7054 75.1123 83.7575V49.8799C75.1224 41.9848 81.8337 35.5645 90.0798 35.5645C98.326 35.5645 105.037 41.9949 105.037 49.8799Z" fill="url(#paint1_linear_2507_1844)"/>
<path d="M31.584 52.3457V58.8162C31.584 60.321 30.6109 61.6252 29.1864 62.3073C28.5142 62.6384 27.7318 62.819 26.8991 62.819C26.0665 62.819 25.294 62.6384 24.6119 62.3073C24.2306 62.1268 23.8896 61.9061 23.5886 61.6452C22.7459 60.9229 22.2142 59.9197 22.2142 58.8162V52.5263C23.5284 52.6868 24.8727 52.757 26.237 52.757C28.0528 52.757 29.8485 52.6166 31.584 52.3457Z" fill="url(#paint2_linear_2507_1844)"/>
<path d="M44.6756 0.0100318V7.2129H43.1507C42.1576 7.2129 41.2447 6.81163 40.5926 6.15956C39.9405 5.50749 39.5393 4.59459 39.5393 3.60143C39.5393 1.61513 41.1444 0 43.1507 0H44.6756V0.0100318Z" fill="#3C3854"/>
<path d="M11.8714 1.06311C12.5235 1.71518 12.9348 2.61805 12.9348 3.6112C12.9348 5.60754 11.3096 7.22267 9.32333 7.22267H7.66807V0.00976562H9.32333C10.3165 0.00976562 11.2193 0.41104 11.8714 1.06311Z" fill="#3C3854"/>
<path d="M51.5173 5.97872V30.306C51.5173 45.2835 42.589 52.6268 31.5841 54.3523C29.8486 54.6231 28.0529 54.7636 26.2371 54.7636C24.8828 54.7636 23.5285 54.6934 22.2143 54.5329C10.6175 53.2087 0.966858 45.8754 0.966858 30.306V5.97872C0.966858 0.812313 4.89934 0.00976562 7.29695 0.00976562H8.08947V30.306C8.08947 42.0532 16.2353 47.651 26.2471 47.651C36.2589 47.651 44.4148 42.0532 44.4148 30.306V0.00976562H45.2073C47.6049 0.00976562 51.5374 0.812313 51.5374 5.97872H51.5173Z" fill="url(#paint3_linear_2507_1844)"/>
<defs>
<linearGradient id="paint0_linear_2507_1844" x1="102.058" y1="75.601" x2="103.342" y2="96.8585" gradientUnits="userSpaceOnUse">
<stop stop-color="#04D99D"/>
<stop offset="0.26" stop-color="#03D19C"/>
<stop offset="0.64" stop-color="#03BE99"/>
<stop offset="1" stop-color="#03A696"/>
</linearGradient>
<linearGradient id="paint1_linear_2507_1844" x1="69.7352" y1="111.646" x2="62.5625" y2="46.5895" gradientUnits="userSpaceOnUse">
<stop stop-color="#FFD3BD"/>
<stop offset="1" stop-color="white"/>
</linearGradient>
<linearGradient id="paint2_linear_2507_1844" x1="28.5845" y1="68.186" x2="26.7888" y2="54.8737" gradientUnits="userSpaceOnUse">
<stop stop-color="#04D99D"/>
<stop offset="0.26" stop-color="#03D19C"/>
<stop offset="0.64" stop-color="#03BE99"/>
<stop offset="1" stop-color="#03A696"/>
</linearGradient>
<linearGradient id="paint3_linear_2507_1844" x1="26.7989" y1="1.64496" x2="25.0032" y2="55.4357" gradientUnits="userSpaceOnUse">
<stop stop-color="#04D99D"/>
<stop offset="0.26" stop-color="#03D19C"/>
<stop offset="0.64" stop-color="#03BE99"/>
<stop offset="1" stop-color="#03A696"/>
</linearGradient>
</defs>
</svg>
