<svg width="46" height="38" viewBox="0 0 46 38" fill="none" xmlns="http://www.w3.org/2000/svg">
<path d="M44.9556 5.19805C43.5217 5.84471 41.9473 6.23833 40.429 6.49136C41.16 6.3789 42.2284 5.05748 42.6501 4.52328C43.2968 3.70793 43.8591 2.78012 44.1684 1.76797C44.1965 1.68362 44.2246 1.59927 44.1684 1.54304C44.084 1.51493 43.9997 1.54304 43.9153 1.54304C42.2003 2.47085 40.429 3.11751 38.5453 3.59547C38.3766 3.62359 38.2641 3.59547 38.1798 3.51113C38.0111 3.34243 37.8705 3.17374 37.7018 3.03316C36.9146 2.35839 36.0711 1.8242 35.0871 1.43058C33.8219 0.924504 32.4442 0.69958 31.0947 0.783926C29.7733 0.868273 28.4799 1.23377 27.2991 1.85231C26.1182 2.47085 25.078 3.31432 24.2345 4.35459C23.3629 5.42298 22.7444 6.68817 22.407 8.0096C22.0977 9.30291 22.1259 10.5681 22.3227 11.8614C22.3508 12.0863 22.3227 12.1145 22.1259 12.0863C14.7315 10.9898 8.63043 8.34699 3.654 2.69578C3.42907 2.44274 3.31661 2.44274 3.14792 2.69578C0.983029 5.95717 2.0233 11.1866 4.7505 13.7733C5.116 14.1107 5.48151 14.448 5.87512 14.7854C5.73454 14.8135 3.93514 14.6167 2.30445 13.7733C2.07952 13.6327 1.96708 13.717 1.96708 13.9701C1.96708 14.3356 1.96707 14.6448 2.0233 15.0385C2.44503 18.328 4.72239 21.3926 7.87132 22.6015C8.23682 22.7702 8.65855 22.8827 9.05216 22.967C8.34928 23.1357 7.59016 23.2482 5.56585 23.0795C5.31281 23.0233 5.20034 23.1638 5.3128 23.3888C6.85915 27.578 10.1768 28.8432 12.6509 29.546C12.9883 29.6023 13.3257 29.6023 13.6631 29.6866C13.6631 29.7147 13.635 29.7147 13.6069 29.7429C12.7915 31.008 9.92375 31.9359 8.60233 32.4138C6.1844 33.2573 3.54153 33.6509 0.983028 33.3979C0.561296 33.3416 0.476946 33.3416 0.364484 33.3979C0.252022 33.4541 0.364487 33.5666 0.476949 33.679C0.983027 34.0164 1.51722 34.3257 2.05142 34.6068C3.68211 35.4784 5.36904 36.1532 7.14031 36.6311C16.3059 39.1615 26.5962 37.3059 33.4845 30.4739C38.8827 25.1038 40.7664 17.7094 40.7664 10.3151C40.7664 10.0339 41.1038 9.86522 41.3006 9.72464C42.7064 8.65626 43.831 7.41917 44.8713 5.98529C45.0962 5.67602 45.0962 5.39486 45.0962 5.2824C45.0962 5.11371 45.0962 5.16994 44.8994 5.25428L44.9556 5.19805Z" fill="white"/>
</svg>
