<svg width="121" height="86" viewBox="0 0 121 86" fill="none" xmlns="http://www.w3.org/2000/svg">
<path d="M113.12 0H8.12005C3.82923 0 0.35083 3.4784 0.35083 7.76922V78.2288C0.35083 82.5197 3.82923 85.9981 8.12005 85.9981H113.12C117.41 85.9981 120.889 82.5197 120.889 78.2288V7.76922C120.889 3.4784 117.41 0 113.12 0Z" fill="#243377"/>
<path d="M62.1488 37.8152C62.0992 41.8238 65.7201 44.0603 68.4481 45.3905C71.2527 46.7568 72.1952 47.6316 72.1816 48.849C72.1591 50.7158 69.9451 51.541 67.8709 51.5725C64.2546 51.6267 62.1488 50.5941 60.4759 49.814L59.1728 55.9103C60.8502 56.6814 63.957 57.3578 67.1765 57.3893C74.7383 57.3893 79.6848 53.6558 79.7119 47.8706C79.7434 40.5252 69.5528 40.1194 69.6204 36.8367C69.643 35.8402 70.5944 34.7806 72.6776 34.51C73.7057 34.3747 76.551 34.271 79.775 35.7545L81.0421 29.8566C79.306 29.2253 77.0785 28.6211 74.3054 28.6211C67.19 28.6211 62.1804 32.4043 62.1398 37.8197M93.2032 29.1306C91.8234 29.1306 90.66 29.9378 90.1415 31.1733L79.3376 56.9655H86.8949L88.3964 52.808H97.6311L98.5014 56.9655H105.161L99.3491 29.1306H93.1987M94.2538 36.6473L96.4362 47.0995H90.4661L94.2583 36.6473M52.9773 29.1306L47.0207 56.9655H54.2218L60.1738 29.1306H52.9773ZM42.3267 29.1306L34.8325 48.0735L31.8024 31.9669C31.4462 30.1677 30.0438 29.1306 28.4837 29.1306H16.2324L16.061 29.9378C18.5771 30.4834 21.4359 31.3626 23.1629 32.305C24.2226 32.8822 24.5247 33.3827 24.8719 34.749L30.612 56.961H38.2234L49.8885 29.1261H42.3267" fill="white"/>
</svg>
