<svg width="110" height="106" viewBox="0 0 110 106" fill="none" xmlns="http://www.w3.org/2000/svg">
<path d="M105.449 59.2055C107.962 57.2744 108.925 54.3087 107.598 52.5814C106.271 50.8541 103.157 51.0193 100.644 52.9503C98.1297 54.8814 97.1674 57.847 98.4943 59.5744C99.8211 61.3017 102.935 61.1365 105.449 59.2055Z" fill="url(#paint0_linear_2507_1352)"/>
<path d="M104.221 24.6018C103.975 24.8747 103.693 25.1388 103.394 25.3853C103.165 25.5701 102.927 25.7462 102.681 25.9047C99.1772 28.2111 94.4323 27.5509 91.7122 24.2409C89.2033 21.1774 89.2385 16.8638 91.5801 13.8708C91.9499 13.3954 92.3812 12.9552 92.8654 12.5591C92.8918 12.5415 92.9182 12.5151 92.9446 12.4975C96.4835 9.66285 101.651 10.191 104.538 13.7035C107.206 16.9519 106.994 21.6087 104.221 24.6018Z" fill="url(#paint1_linear_2507_1352)"/>
<path d="M56.1657 11.4846C54.2466 9.48628 52.442 6.37877 52.354 3.41211L47.4418 5.87699C45.0209 7.09183 44.035 10.0409 45.2498 12.4618C46.4647 14.8826 49.4137 15.8686 51.8346 14.6537L55.9192 12.6026L56.826 12.1096C56.5707 11.8895 56.3682 11.6959 56.1657 11.4846Z" fill="url(#paint2_linear_2507_1352)"/>
<path d="M64.8282 5.0674C64.8282 6.86324 63.8334 8.59746 62.1168 9.45137L56.9318 12.0483L56.025 12.5325C54.0707 11.5817 52.4333 9.57461 51.8435 7.84039C51.3418 6.35266 51.377 4.84732 51.6939 3.73812L52.9351 3.06908L57.7152 0.674626C60.1449 -0.540209 63.094 0.445744 64.3088 2.86661C64.6609 3.57086 64.8282 4.31913 64.8282 5.0586V5.0674Z" fill="url(#paint3_linear_2507_1352)"/>
<path d="M17.5466 20.9925C16.1116 23.475 12.3527 24.0208 9.0075 22.269C8.88426 22.2073 8.75221 22.1369 8.62897 22.0665C8.18001 21.8024 7.75746 21.5119 7.37012 21.195C7.38772 21.1509 11.0674 18.959 12.1414 17.1191C13.0482 15.5698 13.0217 12.4182 13.0834 12.2598C13.4003 12.3918 13.7084 12.5503 14.0165 12.7263C14.3334 12.9112 14.6327 13.1049 14.9232 13.3161C17.7226 15.3761 18.8934 18.6509 17.5466 20.9925Z" fill="url(#paint4_linear_2507_1352)"/>
<path d="M13.4462 18.0079C12.2929 19.9622 10.6203 21.5116 8.92133 22.2246L8.63083 22.0662C8.12025 21.7756 7.65368 21.4411 7.23113 21.0802C4.79265 19.0115 3.83311 16.0008 5.10076 13.8C6.43004 11.4936 9.75763 10.8685 12.9004 12.1714C13.2789 12.3299 13.6486 12.5147 14.0184 12.726C14.256 12.8581 14.4849 13.0077 14.6962 13.1574C14.8459 14.6539 14.4145 16.3441 13.4462 18.0079Z" fill="#E8E2E2"/>
<path d="M4.73776 58.1237C6.91587 58.1237 8.68157 56.358 8.68157 54.1799C8.68157 52.0018 6.91587 50.2361 4.73776 50.2361C2.55965 50.2361 0.793945 52.0018 0.793945 54.1799C0.793945 56.358 2.55965 58.1237 4.73776 58.1237Z" fill="url(#paint5_linear_2507_1352)"/>
<path d="M104.221 24.6017C103.975 24.8745 103.693 25.1386 103.394 25.3851C103.165 25.57 102.927 25.7461 102.681 25.9045C102.681 22.3392 97.399 15.1383 91.5801 13.8706C91.9498 13.3952 92.3812 12.9551 92.8654 12.5589C92.8918 12.5413 92.9182 12.5149 92.9446 12.4973C98.7547 14.0819 103.693 20.1032 104.221 24.6017Z" fill="#C3C7C9"/>
<path d="M87.2227 58.6875V92.6237C87.2227 100.124 81.0781 103.971 73.6482 105.01C64.1144 106.33 45.0292 106.33 35.4954 105.01C28.0655 103.989 21.9209 100.124 21.9209 92.6237V58.6875C21.9209 55.2191 23.2678 51.9003 25.6182 49.3914C25.9527 49.0304 26.3049 48.6871 26.6922 48.3702C27.5285 47.6572 28.1271 46.8473 28.5849 45.8701H80.5851C81.0341 46.8649 81.6063 47.6396 82.4602 48.3702C82.8387 48.6871 83.1996 49.0393 83.5342 49.3914C84.5465 50.4654 85.3652 51.689 85.9814 53.0007C86.7913 54.7613 87.2315 56.698 87.2315 58.6787L87.2227 58.6875Z" fill="url(#paint6_linear_2507_1352)"/>
<path d="M56.4913 57.8071H52.6443C49.5808 57.8071 47.0807 60.3072 47.0807 63.3707V64.3303C47.0807 64.9905 46.5437 65.5275 45.8835 65.5275H44.9239C41.8604 65.5275 39.3603 68.0276 39.3603 71.0911V74.9469C39.3603 78.0104 41.8604 80.5105 44.9239 80.5105H45.8835C46.5437 80.5105 47.0807 81.0474 47.0807 81.7077V82.6672C47.0807 85.7307 49.5808 88.2308 52.6443 88.2308H56.4913C59.5548 88.2308 62.0549 85.7307 62.0549 82.6672V81.7077C62.0549 81.0474 62.5919 80.5105 63.2521 80.5105H64.2116C67.2751 80.5105 69.7752 78.0104 69.7752 74.9469V71.1087C69.7752 68.0452 67.2751 65.5451 64.2116 65.5451H63.2521C62.5919 65.5451 62.0549 65.0081 62.0549 64.3479V63.3883C62.0549 60.3248 59.5548 57.8247 56.4913 57.8247V57.8071Z" fill="white"/>
<path d="M83.1458 45.8789H25.9957C25.0802 45.8789 24.3407 45.1394 24.3407 44.2239V34.7165C24.3407 29.7515 28.3637 25.8957 33.3287 25.7285C43.9541 25.3763 65.1961 25.3763 75.8215 25.7285C80.7865 25.8957 84.8095 29.7515 84.8095 34.7165V44.2239C84.8095 45.1394 84.0701 45.8789 83.1545 45.8789H83.1458Z" fill="url(#paint7_linear_2507_1352)"/>
<defs>
<linearGradient id="paint0_linear_2507_1352" x1="107.216" y1="51.7309" x2="97.1008" y2="62.2946" gradientUnits="userSpaceOnUse">
<stop stop-color="#652247"/>
<stop offset="1" stop-color="#C96955"/>
</linearGradient>
<linearGradient id="paint1_linear_2507_1352" x1="92.9622" y1="24.1352" x2="103.2" y2="13.8972" gradientUnits="userSpaceOnUse">
<stop stop-color="#C3C7C9"/>
<stop offset="0.29" stop-color="#D3D2D3"/>
<stop offset="0.69" stop-color="#E2DEDE"/>
<stop offset="1" stop-color="#E8E2E2"/>
</linearGradient>
<linearGradient id="paint2_linear_2507_1352" x1="44.7304" y1="9.29261" x2="56.826" y2="9.29261" gradientUnits="userSpaceOnUse">
<stop stop-color="#DD3152"/>
<stop offset="1" stop-color="#ED845E"/>
</linearGradient>
<linearGradient id="paint3_linear_2507_1352" x1="51.4562" y1="6.35266" x2="64.8282" y2="6.35266" gradientUnits="userSpaceOnUse">
<stop stop-color="#FFD160"/>
<stop offset="1" stop-color="#ED7C38"/>
</linearGradient>
<linearGradient id="paint4_linear_2507_1352" x1="7.37012" y1="17.7705" x2="18.1012" y2="17.7705" gradientUnits="userSpaceOnUse">
<stop stop-color="#DD3152"/>
<stop offset="1" stop-color="#ED845E"/>
</linearGradient>
<linearGradient id="paint5_linear_2507_1352" x1="0.793945" y1="54.1799" x2="8.68157" y2="54.1799" gradientUnits="userSpaceOnUse">
<stop stop-color="#FFD160"/>
<stop offset="1" stop-color="#ED7C38"/>
</linearGradient>
<linearGradient id="paint6_linear_2507_1352" x1="54.5718" y1="143.356" x2="54.5718" y2="18.0698" gradientUnits="userSpaceOnUse">
<stop stop-color="#31477C"/>
<stop offset="0.04" stop-color="#344D83"/>
<stop offset="0.22" stop-color="#446CA5"/>
<stop offset="0.41" stop-color="#5085C0"/>
<stop offset="0.6" stop-color="#5996D3"/>
<stop offset="0.79" stop-color="#5EA0DF"/>
<stop offset="1" stop-color="#60A4E3"/>
</linearGradient>
<linearGradient id="paint7_linear_2507_1352" x1="54.5707" y1="46.4511" x2="54.5707" y2="24.5752" gradientUnits="userSpaceOnUse">
<stop stop-color="#C3C7C9"/>
<stop offset="1" stop-color="#E8E2E2"/>
</linearGradient>
</defs>
</svg>
