<svg width="453" height="302" viewBox="0 0 453 302" fill="none" xmlns="http://www.w3.org/2000/svg">
<path d="M387.915 192.51C361.039 208.398 330.22 216.907 298.44 216.907C216.538 216.907 147.772 160.645 128.611 84.9762H129.15C152.208 84.9762 170.9 66.3739 170.9 43.4273V41.5488C170.9 18.6023 152.208 0 129.15 0H41.7499C18.6923 0 0 18.6023 0 41.5488V43.4273C0 66.265 18.5242 84.77 41.4294 84.945C61.9116 207.872 169.2 302 298.44 302C345.739 302 391.608 289.317 431.611 265.655C455.075 251.774 460.292 220.217 441.967 200.09C428.137 184.906 405.615 182.048 387.915 192.51V192.51Z" fill="#A1D2FF" fill-opacity="0.9"/>
</svg>
