<svg width="51" height="70" viewBox="0 0 51 70" fill="none" xmlns="http://www.w3.org/2000/svg">
<path d="M25.7373 16.799C26.8425 16.816 27.9401 16.6114 28.966 16.1969C29.992 15.7825 30.9259 15.1665 31.7135 14.3849C32.501 13.6033 33.1264 12.6716 33.5533 11.6442C33.9802 10.6167 34.2 9.5139 34.2 8.4C34.2 7.2861 33.9802 6.18332 33.5533 5.15584C33.1264 4.12836 32.501 3.19671 31.7135 2.4151C30.9259 1.63349 29.992 1.01754 28.966 0.603087C27.9401 0.188635 26.8425 -0.0160376 25.7373 0.000980466C21.1338 0.000980466 17.4 3.76177 17.4 8.39902C17.4005 10.627 18.2792 12.7636 19.8427 14.3388C21.4061 15.9141 23.5265 16.799 25.7373 16.799Z" fill="black"/>
<path d="M38.5079 19.6032H27.0838V29.0704L29.1847 29.6077V27.4124C29.1847 25.9864 30.4282 24.6918 32.6979 26.2858C35.8951 28.5379 39.3369 41.3293 35.604 40.8251C33.8021 40.5849 32.7839 39.6713 30.7997 39.5554C29.1881 39.469 29.1881 38.7447 29.1858 37.7921C29.1835 36.8394 29.1858 33.7815 29.1858 33.7815V32.0774C28.4849 31.9012 27.7846 31.7225 27.0849 31.5413V43.2488C27.0849 43.2488 30.2345 41.0109 32.4872 42.8346C33.9074 43.9884 34.7965 47.309 30.4033 50.0155C29.3897 50.6604 23.8707 52.1858 22.139 48.7895H20.1853C19.7612 48.7895 19.3545 48.9655 19.0546 49.2789C18.7547 49.5922 18.5862 50.0173 18.5862 50.4604C18.5862 50.9036 18.7547 51.3286 19.0546 51.642C19.3545 51.9553 19.7612 52.1314 20.1853 52.1314H31.7544C32.6339 52.1326 33.4771 52.4984 34.0988 53.1485C34.7205 53.7985 35.07 54.6798 35.0706 55.5988C35.07 56.5175 34.7204 57.3985 34.0986 58.0482C33.4769 58.6979 32.6337 59.0631 31.7544 59.0638H19.7833C19.5957 59.0791 19.4205 59.1677 19.2927 59.3121C19.1649 59.4564 19.0939 59.6458 19.0939 59.8425C19.0939 60.0391 19.1649 60.2285 19.2927 60.3728C19.4205 60.5172 19.5957 60.6058 19.7833 60.6211H31.7544C33.5824 60.6211 35.0706 62.1761 35.0706 64.0885C35.0706 66.0009 33.5824 67.5535 31.7544 67.5535H17.7537C17.4125 67.5535 17.0853 67.4119 16.844 67.1598C16.6027 66.9076 16.4672 66.5657 16.4672 66.2092C16.4672 65.8526 16.6027 65.5107 16.844 65.2586C17.0853 65.0065 17.4125 64.8648 17.7537 64.8648H31.7544C31.9469 64.857 32.129 64.7716 32.2625 64.6265C32.396 64.4814 32.4706 64.288 32.4706 64.0867C32.4706 63.8855 32.396 63.692 32.2625 63.547C32.129 63.4019 31.9469 63.3165 31.7544 63.3086H19.7833C18.9043 63.3071 18.0617 62.9415 17.4401 62.292C16.8185 61.6426 16.4687 60.7621 16.4672 59.8436C16.4678 58.9244 16.8172 58.043 17.4388 57.3925C18.0604 56.7421 18.9036 56.3758 19.7833 56.3739H31.7544C31.9447 56.3629 32.1237 56.2762 32.2546 56.1316C32.3856 55.987 32.4586 55.7955 32.4586 55.5964C32.4586 55.3973 32.3856 55.2058 32.2546 55.0612C32.1237 54.9166 31.9447 54.8299 31.7544 54.8189H20.1853C19.0799 54.817 18.0204 54.3571 17.239 53.54C16.4577 52.723 16.0184 51.6155 16.0175 50.4604C16.0184 49.3053 16.4577 48.1976 17.239 47.3804C18.0203 46.5631 19.0798 46.103 20.1853 46.1008H22.7676C22.7846 46.1008 22.7982 46.1102 22.8151 46.1102H23.694C24.548 46.1102 24.5151 45.1659 24.5129 45.1659V31.6822L22.4142 32.2904V33.7803C22.4142 33.7803 22.4165 36.8383 22.4142 37.7909C22.4142 38.7435 22.4074 39.4678 20.8003 39.5554C18.8183 39.6713 17.8002 40.5849 15.9937 40.8251C12.262 41.3281 15.7061 28.5379 18.8965 26.2847C21.165 24.6894 22.4142 25.9841 22.4142 27.4113V29.797L24.5129 29.1911V19.5996H13.5916C6.72488 19.5996 0.600006 25.4137 0.600006 32.5875V64.027C0.600006 66.4802 2.44721 68.4695 4.78934 68.4695C5.34746 68.4695 5.9001 68.3545 6.41568 68.1312C6.93126 67.9079 7.39965 67.5806 7.79409 67.168C8.18853 66.7554 8.50128 66.2656 8.71445 65.7267C8.92762 65.1877 9.03703 64.6101 9.03644 64.027V35.6797H12.5542V69.9996H39.0039V35.6797H42.559V64.027C42.559 66.4802 44.4606 68.4695 46.8073 68.4695C49.1539 68.4695 51 66.4802 51 64.027V32.5875C50.9989 25.4172 45.3735 19.6032 38.509 19.6032H38.5079Z" fill="black"/>
</svg>
