<svg xmlns="http://www.w3.org/2000/svg" xmlns:xlink="http://www.w3.org/1999/xlink" width="10px" height="8px" viewBox="0 0 10 8" version="1.1">
<defs>
<clipPath id="clip1">
  <path d="M 0 0 L 9.929688 0 L 9.929688 7.859375 L 0 7.859375 Z M 0 0 "/>
</clipPath>
</defs>
<g id="surface1">
<g clip-path="url(#clip1)" clip-rule="nonzero">
<path style=" stroke:none;fill-rule:nonzero;fill:rgb(0%,22.352941%,43.921569%);fill-opacity:1;" d="M 3.222656 7.859375 C 3.015625 7.859375 2.8125 7.777344 2.652344 7.613281 L 0.234375 5.082031 C -0.078125 4.753906 -0.078125 4.21875 0.234375 3.894531 C 0.546875 3.566406 1.058594 3.566406 1.371094 3.894531 L 3.222656 5.832031 L 8.558594 0.246094 C 8.871094 -0.0820312 9.382812 -0.0820312 9.695312 0.246094 C 10.007812 0.574219 10.007812 1.105469 9.695312 1.433594 L 3.789062 7.609375 C 3.632812 7.777344 3.425781 7.855469 3.222656 7.855469 Z M 3.222656 7.859375 "/>
</g>
</g>
</svg>