<svg width="64" height="64" viewBox="0 0 64 64" fill="none" xmlns="http://www.w3.org/2000/svg">
<path d="M15.9146 0.75H4.93161C2.62646 0.75 0.75 2.62646 0.75 4.93161V13.7744C0.75 14.3519 1.21752 14.8194 1.79504 14.8194H2.48769V55.3146C2.48769 59.6895 6.04816 63.25 10.4231 63.25C14.7981 63.25 18.3585 59.6895 18.3585 55.3146V14.8194H19.0512C19.6287 14.8194 20.0962 14.3519 20.0962 13.7744V4.93161C20.0962 2.62646 18.2198 0.75 15.9146 0.75ZM16.2684 24.4738H11.4682V21.3341H16.2684V24.4738ZM11.4682 26.5639H16.2684V30.18H14.5895C14.012 30.18 13.5445 30.6476 13.5445 31.2251C13.5445 31.8026 14.012 32.2701 14.5895 32.2701H16.2684V35.8862H14.5895C14.012 35.8862 13.5445 36.3538 13.5445 36.9313C13.5445 37.5088 14.012 37.9763 14.5895 37.9763H16.2684V49.4892H11.4682V26.5639ZM16.2684 19.244H10.4231C9.84559 19.244 9.37807 19.7115 9.37807 20.289V50.5309C9.37807 51.1084 9.84559 51.5759 10.4231 51.5759H16.2684V55.3179C16.2684 58.5412 13.6464 61.1633 10.4231 61.1633C7.19986 61.1633 4.57778 58.5412 4.57778 55.3179V14.8194H16.2684V19.244ZM18.0061 12.7293H2.84009V4.93161C2.84009 3.77815 3.77815 2.84009 4.93161 2.84009H15.9146C17.0681 2.84009 18.0061 3.77815 18.0061 4.93161V12.7293Z" fill="#003970" stroke="#003970" stroke-width="0.5"/>
<path d="M49.6947 28.7736L49.6944 28.7739C49.4489 29.0583 46.4641 32.5357 43.5393 36.7823C42.0771 38.9053 40.6262 41.2259 39.5399 43.4393C38.4572 45.6454 37.7215 47.7751 37.7215 49.5077C37.7215 56.3355 43.4463 62.2738 50.4875 62.2738C57.5261 62.2738 63.2536 56.5462 63.2536 49.5077C63.2536 47.724 62.5185 45.5689 61.4353 43.3519C60.3489 41.1283 58.8978 38.814 57.4354 36.7037C54.5927 32.6017 51.6932 29.2506 51.3078 28.8052C51.2966 28.7923 51.2875 28.7818 51.2806 28.7739L51.2058 28.6872H51.1922C50.7735 28.3116 50.0696 28.3404 49.6947 28.7736ZM50.4875 60.1837C44.6007 60.1837 39.8116 55.3945 39.8116 49.5077C39.8116 48.2427 40.3265 46.6252 41.1616 44.8449C41.9935 43.0713 43.1298 41.1633 44.3438 39.3254C46.648 35.8371 49.2199 32.62 50.4875 31.0837C51.7551 32.62 54.3271 35.838 56.6313 39.3267C57.8453 41.1647 58.9816 43.0728 59.8135 44.8463C60.6486 46.6265 61.1635 48.2435 61.1635 49.5077C61.1635 55.3945 56.3744 60.1837 50.4875 60.1837Z" fill="#003970" stroke="#003970" stroke-width="0.5"/>
<path d="M46.1712 49.5308C46.1709 48.9514 45.6981 48.4896 45.1262 48.4896H45.1228C44.5426 48.4896 44.0811 48.9633 44.0811 49.538L44.0811 49.539C44.0951 53.0583 46.9679 55.9169 50.4869 55.9169C51.0644 55.9169 51.5319 55.4494 51.5319 54.8719C51.5319 54.2943 51.0644 53.8268 50.4869 53.8268C48.1187 53.8268 46.181 51.8986 46.1712 49.5308ZM46.1712 49.5308C46.1712 49.531 46.1712 49.5311 46.1712 49.5313H45.9212L46.1712 49.5303C46.1712 49.5305 46.1712 49.5306 46.1712 49.5308Z" fill="#003970" stroke="#003970" stroke-width="0.5"/>
<path d="M55.3445 22.6053C56.2706 22.6053 57.027 21.853 57.027 20.9229C57.027 19.9931 56.2743 19.2405 55.3445 19.2405C54.4148 19.2405 53.6621 19.9931 53.6621 20.9229C53.6621 21.8527 54.4148 22.6053 55.3445 22.6053Z" fill="#003970" stroke="#003970" stroke-width="0.5"/>
<path d="M49.8504 10.0326C50.7796 10.0326 51.5328 9.27932 51.5328 8.35015C51.5328 7.42097 50.7796 6.66772 49.8504 6.66772C48.9212 6.66772 48.168 7.42097 48.168 8.35015C48.168 9.27932 48.9212 10.0326 49.8504 10.0326Z" fill="#003970" stroke="#003970" stroke-width="0.5"/>
<path d="M25.4988 45.1853C24.5728 45.1853 23.8164 45.9376 23.8164 46.8677C23.8164 47.7975 24.5691 48.5501 25.4988 48.5501C26.4286 48.5501 27.1812 47.7975 27.1812 46.8677C27.1812 45.938 26.4286 45.1853 25.4988 45.1853Z" fill="#003970" stroke="#003970" stroke-width="0.5"/>
<path d="M32.9596 38.9626C33.8888 38.9626 34.642 38.2094 34.642 37.2802C34.642 36.351 33.8888 35.5978 32.9596 35.5978C32.0304 35.5978 31.2772 36.351 31.2772 37.2802C31.2772 38.2094 32.0304 38.9626 32.9596 38.9626Z" fill="#003970" stroke="#003970" stroke-width="0.5"/>
<path d="M30.4734 56.6985C29.5474 56.6985 28.791 57.4508 28.791 58.3809C28.791 59.3107 29.5437 60.0633 30.4734 60.0633C31.4032 60.0633 32.1559 59.3107 32.1559 58.3809C32.1559 57.4511 31.4032 56.6985 30.4734 56.6985Z" fill="#003970" stroke="#003970" stroke-width="0.5"/>
<path d="M44.089 24.4238L44.0892 24.4234C44.9251 22.7571 44.4862 20.7295 43.1843 18.8055C41.8786 16.8759 39.6785 15.0034 36.8796 13.598C34.0807 12.1926 31.2648 11.5465 28.9373 11.652C26.6165 11.7571 24.728 12.6165 23.8904 14.2827L23.8903 14.283C23.0573 15.9453 23.4661 18.0092 24.9227 20.0676C26.2966 22.0138 28.4956 23.7994 31.0999 25.1083L31.1001 25.1084C33.7045 26.414 36.3191 27.0638 38.5454 27.0638C41.0933 27.0638 43.1919 26.2036 44.089 24.4238ZM26.3643 19.0479L26.3641 19.0477C25.2362 17.4547 24.9766 16.0566 25.4678 15.074C26.002 14.0119 27.4272 13.4206 29.4007 13.4206C31.3548 13.4206 33.7486 14.0022 36.0849 15.1753L36.085 15.1753C38.4263 16.3501 40.3267 17.9277 41.4905 19.4931C42.666 21.0743 43.041 22.5682 42.5085 23.6288C41.976 24.6894 40.554 25.2807 38.5837 25.2824C36.6331 25.284 34.2326 24.7024 31.8912 23.5276C29.5232 22.3369 27.5629 20.7443 26.3643 19.0479Z" fill="#003970" stroke="#003970" stroke-width="0.5"/>
<path d="M39.5116 19.883L39.3443 19.6972C39.0118 19.9966 38.334 20.2007 37.3875 20.157C36.4534 20.114 35.299 19.8303 34.0617 19.21C32.8261 18.5897 31.9091 17.8341 31.3163 17.1109C30.7157 16.3782 30.4739 15.7127 30.5152 15.267C30.5617 14.7801 30.2016 14.3491 29.7177 14.3068L29.7175 14.3068C29.2344 14.265 28.8017 14.6182 28.7592 15.1044L29.0083 15.1262M39.5116 19.883L39.3434 19.698C39.7047 19.3696 40.2584 19.4035 40.5845 19.757L40.5925 19.765L40.5923 19.7652C40.9221 20.128 40.8865 20.6852 40.5285 21.0107L40.5275 21.0115C39.8314 21.6377 38.8027 21.9277 37.6464 21.9277C36.3131 21.9277 34.7687 21.5433 33.2705 20.7908L33.2705 20.7908C31.8713 20.0877 30.7051 19.1624 29.9075 18.1708C29.1133 17.1833 28.6655 16.1045 28.7594 15.1028L29.0083 15.1262M39.5116 19.883C38.7031 20.611 36.479 20.7015 33.9496 19.4335C31.4236 18.1655 30.1656 16.3271 30.2663 15.2436C30.2998 14.8947 30.0415 14.5861 29.696 14.5559C29.3471 14.5257 29.0385 14.7807 29.0083 15.1262M39.5116 19.883C39.7699 19.6482 40.1691 19.6717 40.4039 19.93L29.0083 15.1262" fill="#003970" stroke="#003970" stroke-width="0.5"/>
</svg>
