<?xml version="1.0" encoding="UTF-8"?>
<svg xmlns="http://www.w3.org/2000/svg" xmlns:xlink="http://www.w3.org/1999/xlink" width="300px" height="200px" viewBox="0 0 300 200" version="1.1">
<g id="surface1">
<path style=" stroke:none;fill-rule:nonzero;fill:rgb(100%,95.294118%,76.078431%);fill-opacity:1;" d="M 256.898438 127.488281 C 239.097656 138.011719 218.6875 143.648438 197.640625 143.648438 C 143.402344 143.648438 97.863281 106.386719 85.171875 56.277344 L 85.53125 56.277344 C 100.800781 56.277344 113.179688 43.957031 113.179688 28.761719 L 113.179688 27.515625 C 113.179688 12.320312 100.800781 0 85.53125 0 L 27.648438 0 C 12.378906 0 0 12.320312 0 27.515625 L 0 28.761719 C 0 43.882812 12.269531 56.140625 27.4375 56.253906 C 41 137.664062 112.054688 200 197.640625 200 C 228.964844 200 259.34375 191.601562 285.835938 175.929688 C 301.375 166.738281 304.828125 145.839844 292.695312 132.511719 C 283.535156 122.453125 268.621094 120.5625 256.898438 127.488281 Z M 256.898438 127.488281 "/>
</g>
</svg>