<svg width="470" height="717" viewBox="0 0 470 717" fill="none" xmlns="http://www.w3.org/2000/svg">
<path d="M209.165 204.561L206.726 203.762L206.547 206.322C196.289 353.358 286.009 494.565 432.269 542.451C489.017 561.03 549.053 563.773 606.384 550.964C643.026 542.779 680.357 560.542 695.629 594.761C715.865 640.133 688.893 692.098 640.336 702.963C555.864 721.859 467.41 717.852 383.804 690.479C155.374 615.691 20.4903 386.343 55.8044 156.049L56.0595 154.386L54.4644 153.85C14.9527 140.577 -6.54754 97.9172 6.45123 58.2146L7.54862 54.8628C20.6102 14.9684 63.5241 -6.78794 103.397 6.26663L258.519 57.0539C298.392 70.1085 320.13 113.032 307.068 152.926L305.971 156.278C292.909 196.172 249.995 217.929 210.122 204.874L209.165 204.561Z" stroke="white" stroke-opacity="0.25" stroke-width="4"/>
</svg>
