<svg width="112" height="101" viewBox="0 0 112 101" fill="none" xmlns="http://www.w3.org/2000/svg">
<path d="M110.587 15.4351C110.287 10.5458 107.998 8.81068 106.119 8.81068H106.113C104.095 8.81068 101.95 10.7509 101.706 15.0637C101.312 22.0262 98.452 35.5189 90.4805 36.7717C88.2077 37.1265 86.2398 36.7828 84.5823 36.112C87.6922 33.551 89.6768 29.6706 89.6768 25.3356C89.6768 17.6414 83.4182 11.3773 75.7184 11.3773C68.0186 11.3773 61.7601 17.6358 61.7601 25.3356C61.7601 29.6928 63.7668 33.5898 66.9044 36.1509C65.2303 37.2207 63.5506 38.2906 62.0539 39.2275C59.4207 37.1376 56.6158 35.4746 53.9161 34.1497C56.1501 31.4001 57.4916 27.8967 57.4916 24.0884C57.4916 15.2743 50.3184 8.10113 41.5044 8.10113C32.6904 8.10113 25.5172 15.2743 25.5172 24.0884C25.5172 29.4433 28.1669 34.194 32.2247 37.0932C30.1071 38.1797 27.535 38.6509 24.5748 37.6088C16.1599 34.6541 11.5699 15.2743 11.1597 8.05678C10.8881 3.18965 8.49886 1 6.25377 1H6.24823C4.15836 1 1.60284 2.96237 1.27024 8.49471C0.377745 23.218 1.01524 41.7608 13.9868 54.5384C16.8528 57.36 18.5325 59.3335 19.1755 64.0232V98.7306C19.1755 99.0687 19.3085 99.3902 19.5469 99.6286C19.7853 99.867 20.1068 100 20.4449 100H93.7733C94.4718 100 95.0428 99.4346 95.0428 98.7306V59.7658C95.5916 55.7912 97.1327 54.106 99.5773 51.7057C111.08 40.3694 111.324 27.5752 110.587 15.4351ZM64.3045 25.3356C64.3045 19.0383 69.4266 13.9162 75.724 13.9162C82.0213 13.9162 87.1434 19.0383 87.1434 25.3356C87.1434 31.633 82.0213 36.7551 75.724 36.7551C69.4266 36.7551 64.3045 31.633 64.3045 25.3356ZM28.0616 24.0939C28.0616 16.6768 34.0928 10.6456 41.5099 10.6456C48.927 10.6456 54.9583 16.6768 54.9583 24.0939C54.9583 31.511 48.927 37.5422 41.5099 37.5422C34.0928 37.5422 28.0616 31.511 28.0616 24.0939ZM47.9237 97.4667C47.2807 91.4132 45.0577 86.9508 41.2938 84.1791C31.6094 77.0502 30.1903 70.2318 29.9796 68.3138C29.8798 67.3714 29.9519 66.745 30.0517 66.3736C30.1238 66.4678 30.2014 66.5898 30.2956 66.7395C33.411 72.0501 37.0641 75.0269 41.1607 75.5923C45.213 76.1467 48.4891 74.1621 49.9692 73.0479C51.9538 74.4448 54.3651 75.2708 56.9706 75.2708C59.576 75.2708 61.9874 74.4448 63.9719 73.0479C65.452 74.1621 68.7337 76.1467 72.7804 75.5923C76.877 75.0269 80.5301 72.0501 83.6455 66.7395C83.7342 66.5842 83.8173 66.4678 83.8894 66.3736C83.9837 66.745 84.0613 67.3714 83.9615 68.3138C83.7564 70.2318 82.3317 77.0502 72.6529 84.1791C68.8889 86.9508 66.6605 91.4188 66.023 97.4667H47.9348H47.9237ZM56.965 72.7319C51.6489 72.7319 47.325 68.408 47.325 63.0919C47.325 57.7757 51.6489 53.4519 56.965 53.4519C62.2812 53.4519 66.605 57.7757 66.605 63.0919C66.605 68.408 62.2812 72.7319 56.965 72.7319ZM97.7923 49.8985C95.0262 52.6259 93.1636 54.7657 92.5316 59.5164C92.5261 59.5718 92.5039 59.6273 92.5039 59.6827V97.4667H68.5674C69.1661 92.2946 71.0342 88.514 74.1441 86.2246C84.8817 78.3197 87.3263 69.6608 86.3452 65.7694C85.8961 63.9733 84.7819 63.6296 84.3218 63.5631C83.579 63.4578 82.4758 63.6961 81.4448 65.4534C78.7507 70.0433 75.724 72.6099 72.4478 73.0701C69.6428 73.4692 67.2314 72.2108 65.9232 71.3239C67.9188 69.1564 69.1384 66.2627 69.1384 63.0863C69.1384 56.3733 63.6726 50.9074 56.9595 50.9074C50.2464 50.9074 44.7806 56.3733 44.7806 63.0863C44.7806 66.2627 46.0001 69.1564 48.0013 71.3239C46.7041 72.2108 44.3094 73.4525 41.4989 73.0701C38.2116 72.6155 35.1794 70.0544 32.4742 65.4478C31.4431 63.6906 30.3399 63.4467 29.5971 63.5575C29.137 63.6241 28.0228 63.9678 27.5738 65.7638C26.5981 69.6553 29.0372 78.3086 39.7749 86.2135C42.8847 88.5029 44.7528 92.2836 45.3515 97.4611H21.8253V63.94C21.8253 63.8846 21.8252 63.8236 21.8142 63.7682C21.088 58.3245 18.9482 55.8633 15.7663 52.7312C3.52641 40.6687 2.94435 22.8355 3.80358 8.64993C4.00314 5.32941 5.21161 3.53889 6.24823 3.53889C7.12963 3.53889 8.44897 4.99127 8.6319 8.20645C9.02549 15.1357 13.5101 36.4169 23.7433 40.0091C28.2057 41.5779 31.9087 40.4525 34.7359 38.5678C36.7925 39.5379 39.093 40.0811 41.5155 40.0811C45.5511 40.0811 49.243 38.5733 52.0591 36.101C59.0715 39.3938 67.0873 45.1367 70.2249 54.7989C70.4411 55.4641 71.1562 55.83 71.8214 55.6138C72.4866 55.3976 72.8525 54.6825 72.6363 54.0173C70.8735 48.5848 67.7359 44.3052 64.0883 40.957C65.707 39.937 67.492 38.8006 69.2271 37.6864C71.1673 38.7119 73.3791 39.294 75.724 39.294C78.0688 39.294 80.1809 38.7341 82.0933 37.7474C84.3939 39.0168 87.3208 39.8372 90.8741 39.2773C100.431 37.7806 103.768 23.4453 104.239 15.2078C104.389 12.5802 105.448 11.3496 106.119 11.3496C106.811 11.3496 107.87 12.6634 108.048 15.5903C108.746 27.1428 108.535 39.3106 97.7868 49.8985H97.7923Z" fill="#003970" stroke="#003970" stroke-width="0.5"/>
</svg>
