<svg width="266" height="114" viewBox="0 0 266 114" fill="none" xmlns="http://www.w3.org/2000/svg">
<path d="M132.965 113.5C128.658 113.472 125.856 110.86 123.851 107.17C121.848 103.484 120.578 98.619 119.352 93.9164L119.348 93.9009L132.965 113.5ZM132.965 113.5V113.5M132.965 113.5V113.5M132.965 113.5H133.035V113.5C137.331 113.472 140.127 110.859 142.132 107.17C144.123 103.506 145.395 98.6749 146.627 93.9977L146.652 93.9013L132.965 113.5ZM108.702 21.7673L108.702 21.7661C107.777 18.2338 106.801 14.5101 105.578 11.668C104.966 10.2466 104.307 9.08163 103.587 8.27891C102.87 7.48019 102.133 7.08262 101.351 7.08262C100.568 7.08262 99.8331 7.47906 99.1185 8.27561C98.4001 9.07639 97.743 10.2391 97.1326 11.6591C95.9322 14.4514 94.9689 18.0983 94.0467 21.5897L94 21.7664C92.3489 28.0598 90.5097 39.5418 88.7565 50.6728L88.7564 50.6739L88.6251 51.496C86.8713 62.4839 85.0712 73.7624 83.3773 80.2104L83.3772 80.2107L83.3517 80.3075C82.1202 84.9847 80.8482 89.8154 78.857 93.4795C76.8414 97.1883 74.0259 99.8098 69.6902 99.8098C69.2848 99.8098 68.9007 99.738 68.5597 99.6147C64.6659 99.1727 62.115 96.4757 60.2617 92.8669C58.4127 89.2665 57.199 84.6465 56.0225 80.1681L56.0032 80.0946L56.0031 80.0942C55.1483 76.8312 52.9052 67.2313 50.6684 57.6581L50.66 57.6221C48.4235 48.0503 46.1952 38.5133 45.3574 35.3175L45.3574 35.3173C44.4327 31.785 43.457 28.0613 42.2336 25.2192C41.6218 23.7978 40.9625 22.6328 40.2422 21.8301C39.5254 21.0314 38.7891 20.6338 38.0065 20.6338C37.2237 20.6338 36.4888 21.0302 35.7742 21.8268C35.0558 22.6276 34.3987 23.7903 33.7882 25.2103C32.5878 28.0026 31.6245 31.6496 30.7023 35.1411L30.6555 35.3181L108.702 21.7673ZM108.702 21.7673C110.323 27.8991 112.106 42.427 113.855 56.6785L113.943 57.3963M108.702 21.7673L113.943 57.3963M26.605 52.1613L26.6042 52.1649C26.0188 54.7471 24.8242 56.753 23.0104 58.1229C21.2014 59.4891 18.8257 60.1855 15.942 60.2449L15.9317 60.2451V60.245H3.78816C1.96568 60.245 0.5 58.7677 0.5 56.9421C0.5 55.1164 1.96568 53.6392 3.78816 53.6392H15.8343C17.4951 53.6048 18.4454 53.3047 19.0356 52.84C19.6176 52.3818 19.9346 51.6968 20.1678 50.6696L20.1686 50.6664C20.4443 49.4883 23.142 37.968 24.273 33.6058L24.2735 33.604L24.299 33.5073C25.5305 28.8301 26.8024 23.9993 28.7937 20.3352C30.8093 16.6264 33.6248 14.0048 37.9605 14.0048C42.2958 14.0048 45.1171 16.626 47.1357 20.3349C49.1438 24.0246 50.4194 28.8965 51.6476 33.6046C51.6476 33.6048 51.6477 33.605 51.6477 33.6051L51.1639 33.7313L26.605 52.1613ZM26.605 52.1613C26.8574 51.0079 29.5286 39.5955 30.6554 35.3184L26.605 52.1613ZM82.2385 49.637L82.2386 49.636L82.3699 48.8137C84.1237 37.8259 85.9239 26.5474 87.6177 20.0994L87.6178 20.0991L87.6433 20.0023C88.8748 15.3251 90.1468 10.4944 92.1381 6.83033C94.1536 3.12156 96.9691 0.5 101.305 0.5C105.64 0.5 108.461 3.12116 110.48 6.83006C112.488 10.5199 113.764 15.392 114.992 20.1002C116.754 26.7913 118.533 41.2915 120.397 56.6032L82.2385 49.637ZM82.2385 49.637C80.4853 60.7681 78.6461 72.25 76.995 78.5434C76.1171 81.8764 75.1921 85.38 74.0578 88.1521C73.4908 89.5377 72.8818 90.7143 72.2172 91.5861C71.5818 92.4197 70.9287 92.9318 70.2536 93.1217L82.2385 49.637ZM113.943 57.3963L113.943 57.3968C115.806 72.7085 117.585 87.2087 119.347 93.8997L113.943 57.3963ZM120.485 57.3211L120.397 56.6037L183.738 49.6591C181.966 38.4132 180.095 26.7553 178.359 20.1234C177.131 15.4151 175.856 10.5431 173.847 6.85322C171.829 3.14432 169.008 0.523152 164.672 0.523152C160.336 0.523152 157.521 3.14471 155.505 6.85349C153.514 10.5176 152.242 15.3483 151.011 20.0254L150.985 20.1223C149.223 26.8128 147.444 41.3371 145.58 56.6264C143.803 71.1037 141.964 85.9983 140.339 92.2344L140.283 92.4463C139.364 95.9155 138.403 99.5408 137.207 102.32C136.596 103.739 135.939 104.901 135.221 105.701C134.506 106.498 133.771 106.894 132.988 106.894C132.205 106.894 131.469 106.498 130.752 105.701C130.032 104.901 129.373 103.738 128.761 102.32C127.538 99.4839 126.562 95.7661 125.638 92.2339L125.637 92.2327C124.017 86.1008 122.234 71.5727 120.485 57.3211ZM183.865 50.4503L183.738 49.6601L177.244 50.697C179.016 61.943 180.887 73.6009 182.622 80.2327C182.623 80.2329 182.623 80.233 182.623 80.2331L182.627 80.2493C183.854 84.9519 185.123 89.8171 187.126 93.5027C189.142 97.2122 191.963 99.833 196.31 99.833C196.7 99.833 197.082 99.7588 197.435 99.6384C201.332 99.1983 203.884 96.5005 205.738 92.89C207.587 89.2897 208.801 84.6698 209.977 80.1915L209.997 80.1177L209.997 80.1174C210.852 76.8544 213.095 67.2545 215.332 57.6813L215.34 57.6465C217.576 48.0743 219.805 38.5366 220.643 35.3406L220.689 35.1637C221.612 31.6724 222.575 28.0256 223.775 25.2335C224.386 23.8134 225.043 22.6507 225.761 21.85C226.476 21.0534 227.211 20.657 227.993 20.657C228.776 20.657 229.512 21.0545 230.229 21.8533C230.949 22.656 231.609 23.821 232.221 25.2424C233.444 28.0845 234.42 31.8081 235.344 35.3405L235.344 35.3412C236.471 39.6181 239.143 51.031 239.395 52.1844L239.396 52.1881C239.981 54.7704 241.176 56.7768 242.999 58.1468C244.817 59.5129 247.21 60.2087 250.127 60.2681H250.137H262.212C264.034 60.2681 265.5 58.7909 265.5 56.9652C265.5 55.1396 264.034 53.6624 262.212 53.6624H250.213C248.517 53.6165 247.548 53.3108 246.948 52.844C246.359 52.3858 246.043 51.7076 245.81 50.6955C245.551 49.4904 242.857 37.9891 241.704 33.6283C240.475 28.92 239.2 24.0479 237.192 20.3581C235.173 16.6492 232.352 14.028 228.016 14.028C223.681 14.028 220.865 16.6496 218.85 20.3584C216.858 24.0224 215.587 28.8531 214.355 33.5303L214.33 33.6272L214.329 33.6278C213.475 36.8908 211.231 46.4907 208.995 56.0639L208.987 56.0984C206.75 65.6707 204.521 75.2086 203.684 78.4045L203.67 78.4566C202.738 81.985 201.76 85.6859 200.543 88.5113C199.931 89.9314 199.273 91.0944 198.555 91.8955C197.841 92.6926 197.109 93.0882 196.333 93.0882C196.128 93.0882 195.924 93.1074 195.721 93.1452C195.041 92.9604 194.386 92.4522 193.749 91.6214C193.084 90.7531 192.476 89.5785 191.911 88.1931C190.785 85.4343 189.869 81.9456 188.995 78.6148L188.982 78.5666C187.37 72.422 185.601 61.3331 183.865 50.4503ZM177.117 49.9058L177.243 50.696L146.652 93.9008C148.415 87.233 150.193 72.7086 152.057 57.42C153.834 42.9425 155.673 28.0248 157.298 21.7888L157.345 21.6129C158.267 18.1214 159.23 14.4745 160.431 11.6823C161.041 10.2623 161.698 9.09956 162.417 8.29878C163.131 7.50223 163.866 7.10579 164.649 7.10579C165.432 7.10579 166.168 7.50336 166.885 8.30208C167.605 9.1048 168.264 10.2698 168.876 11.6912C170.1 14.5333 171.075 18.2569 172 21.7893L172 21.7895C173.612 27.9342 175.381 39.023 177.117 49.9058Z" fill="#ED7C38" stroke="#ED845E"/>
</svg>
