<svg width="140" height="122" viewBox="0 0 140 122" fill="none" xmlns="http://www.w3.org/2000/svg">
<path d="M86.9363 103.289C96.9488 103.289 105.066 95.172 105.066 85.1595C105.066 75.147 96.9488 67.0303 86.9363 67.0303C76.9238 67.0303 68.8071 75.147 68.8071 85.1595C68.8071 95.172 76.9238 103.289 86.9363 103.289Z" fill="url(#paint0_linear_2507_1806)"/>
<path d="M41.2144 103.289C51.2269 103.289 59.3436 95.172 59.3436 85.1595C59.3436 75.147 51.2269 67.0303 41.2144 67.0303C31.2019 67.0303 23.0852 75.147 23.0852 85.1595C23.0852 95.172 31.2019 103.289 41.2144 103.289Z" fill="url(#paint1_linear_2507_1806)"/>
<path d="M69.0775 86.9536H59.348C58.7345 86.9536 58.2369 86.456 58.2369 85.8425C58.2369 85.2291 58.7345 84.7314 59.348 84.7314H69.0775C69.691 84.7314 70.1886 85.2291 70.1886 85.8425C70.1886 86.456 69.691 86.9536 69.0775 86.9536Z" fill="url(#paint2_linear_2507_1806)"/>
<path d="M21.1891 78.5407H21.1419C19.5847 78.5407 18.1604 77.6827 17.2424 76.1855C16.0198 74.1907 15.9211 71.531 16.9979 69.4117L36.1395 31.5403C37.2978 29.2495 38.9279 27.9883 40.734 27.9883C42.54 27.9883 44.1702 29.2495 45.3285 31.5403L46.0149 32.9002C46.2937 33.4493 46.0706 34.1186 45.5258 34.3931C44.9767 34.672 44.3075 34.4489 44.0329 33.9041L43.3465 32.5442C42.6001 31.0642 41.6477 30.2147 40.7383 30.2147C39.8288 30.2147 38.8764 31.0642 38.13 32.5442L19.0313 70.3298C18.1519 72.0586 18.465 73.9119 19.1428 75.0187C19.4388 75.5034 20.0952 76.3142 21.1462 76.3142C21.7597 76.3142 22.2788 76.8119 22.2788 77.4253C22.2788 78.0388 21.8026 78.5364 21.1891 78.5364V78.5407Z" fill="url(#paint3_linear_2507_1806)"/>
<path d="M108.438 83.5467C107.824 83.5467 107.326 83.049 107.326 82.4356C107.326 81.8221 107.824 81.3245 108.438 81.3245C111.535 81.3245 112.779 80.2649 113.98 76.6013C114.04 76.3739 121.608 47.9017 124.413 38.5754C125.181 36.0187 126.708 34.3456 128.596 33.9852C130.389 33.642 132.272 34.5343 133.769 36.4262L134.692 37.5888C135.074 38.0692 134.992 38.7685 134.512 39.1503C134.031 39.5321 133.332 39.4506 132.95 38.9701L132.028 37.8075C131.063 36.5892 129.964 35.9929 129.016 36.1731C127.97 36.3747 127.069 37.4858 126.55 39.2189C123.753 48.5109 116.194 76.9488 116.116 77.2362C114.602 81.8564 112.53 83.551 108.442 83.551L108.438 83.5467Z" fill="url(#paint4_linear_2507_1806)"/>
<path d="M111.632 18.8319C116.832 18.8319 121.048 14.6163 121.048 9.41596C121.048 4.21567 116.832 0 111.632 0C106.432 0 102.216 4.21567 102.216 9.41596C102.216 14.6163 106.432 18.8319 111.632 18.8319Z" fill="url(#paint5_linear_2507_1806)"/>
<path d="M9.41596 45.3807C14.6163 45.3807 18.8319 41.1651 18.8319 35.9648C18.8319 30.7645 14.6163 26.5488 9.41596 26.5488C4.21567 26.5488 0 30.7645 0 35.9648C0 41.1651 4.21567 45.3807 9.41596 45.3807Z" fill="url(#paint6_linear_2507_1806)"/>
<path d="M28.048 121.548C31.2499 121.548 33.8455 118.953 33.8455 115.751C33.8455 112.549 31.2499 109.953 28.048 109.953C24.8461 109.953 22.2505 112.549 22.2505 115.751C22.2505 118.953 24.8461 121.548 28.048 121.548Z" fill="url(#paint7_linear_2507_1806)"/>
<path d="M134.002 99.5569C137.204 99.5569 139.8 96.9613 139.8 93.7594C139.8 90.5576 137.204 87.9619 134.002 87.9619C130.801 87.9619 128.205 90.5576 128.205 93.7594C128.205 96.9613 130.801 99.5569 134.002 99.5569Z" fill="url(#paint8_linear_2507_1806)"/>
<defs>
<linearGradient id="paint0_linear_2507_1806" x1="96.3656" y1="72.3798" x2="76.2115" y2="99.6894" gradientUnits="userSpaceOnUse">
<stop stop-color="#FFE781"/>
<stop offset="0.6" stop-color="#FFBA6E"/>
<stop offset="1" stop-color="#FFA265"/>
</linearGradient>
<linearGradient id="paint1_linear_2507_1806" x1="50.2618" y1="72.5857" x2="30.3995" y2="100.187" gradientUnits="userSpaceOnUse">
<stop stop-color="#FFE781"/>
<stop offset="0.6" stop-color="#FFBA6E"/>
<stop offset="1" stop-color="#FFA265"/>
</linearGradient>
<linearGradient id="paint2_linear_2507_1806" x1="58.2326" y1="85.8425" x2="70.1886" y2="85.8425" gradientUnits="userSpaceOnUse">
<stop stop-color="#FFE781"/>
<stop offset="0.6" stop-color="#FFBA6E"/>
<stop offset="1" stop-color="#FFA265"/>
</linearGradient>
<linearGradient id="paint3_linear_2507_1806" x1="17.6971" y1="75.8552" x2="42.0896" y2="30.8711" gradientUnits="userSpaceOnUse">
<stop stop-color="#FFE781"/>
<stop offset="0.6" stop-color="#FFBA6E"/>
<stop offset="1" stop-color="#FFA265"/>
</linearGradient>
<linearGradient id="paint4_linear_2507_1806" x1="107.326" y1="58.7252" x2="134.932" y2="58.7252" gradientUnits="userSpaceOnUse">
<stop stop-color="#FFE781"/>
<stop offset="0.6" stop-color="#FFBA6E"/>
<stop offset="1" stop-color="#FFA265"/>
</linearGradient>
<linearGradient id="paint5_linear_2507_1806" x1="102.196" y1="9.41596" x2="121.048" y2="9.41596" gradientUnits="userSpaceOnUse">
<stop stop-color="#FFB8AE"/>
<stop offset="0.67" stop-color="#FF7599"/>
<stop offset="1" stop-color="#FF5991"/>
</linearGradient>
<linearGradient id="paint6_linear_2507_1806" x1="0" y1="35.9648" x2="18.8319" y2="35.9648" gradientUnits="userSpaceOnUse">
<stop stop-color="#FFB8AE"/>
<stop offset="0.67" stop-color="#FF7599"/>
<stop offset="1" stop-color="#FF5991"/>
</linearGradient>
<linearGradient id="paint7_linear_2507_1806" x1="22.2505" y1="115.751" x2="33.8455" y2="115.751" gradientUnits="userSpaceOnUse">
<stop stop-color="#FFB8AE"/>
<stop offset="0.67" stop-color="#FF7599"/>
<stop offset="1" stop-color="#FF5991"/>
</linearGradient>
<linearGradient id="paint8_linear_2507_1806" x1="128.205" y1="93.7594" x2="139.8" y2="93.7594" gradientUnits="userSpaceOnUse">
<stop stop-color="#FFB8AE"/>
<stop offset="0.67" stop-color="#FF7599"/>
<stop offset="1" stop-color="#FF5991"/>
</linearGradient>
</defs>
</svg>
