<svg width="80" height="83" viewBox="0 0 80 83" fill="none" xmlns="http://www.w3.org/2000/svg">
<g clip-path="url(#clip0_2507_1451)">
<path d="M75.141 27.0789C67.8673 16.5681 46.8811 14.2568 40.005 27.3479C38.5741 24.628 36.5271 22.5657 34.1225 21.1211C32.9002 20.3739 31.4892 20.0352 30.108 19.6068C25.7459 18.202 21.4234 18.4212 16.9022 19.7263C16.8923 19.7263 16.3458 19.8459 16.3458 19.8459C11.6458 21.2008 7.96919 23.831 5.4254 27.5073C1.98732 32.4887 0.347775 37.8287 0.635938 43.8263C0.824734 47.8015 1.30169 51.8962 3.29896 55.9112C8.25735 65.9138 18.9889 75.5479 36.4576 82.3226C38.7331 83.2092 41.2769 83.2092 43.5523 82.3226C78.6585 68.7134 86.5383 43.5673 75.141 27.0689V27.0789Z" fill="url(#paint0_linear_2507_1451)"/>
<path d="M32.7214 4.05486V5.42972C32.7214 6.08726 32.1848 6.63522 31.5191 6.63522H30.6943C30.2372 6.63522 29.8696 7.00384 29.8696 7.4422V8.27908C29.8696 8.93662 29.333 9.48458 28.6672 9.48458H27.3059C26.6501 9.48458 26.1036 8.94659 26.1036 8.27908V7.4422C26.1036 6.99388 25.7359 6.63522 25.2788 6.63522H24.4541C23.7983 6.63522 23.2518 6.09723 23.2518 5.42972V4.05486C23.2518 3.39731 23.7884 2.84936 24.4541 2.84936H25.2788C25.7359 2.84936 26.1036 2.48073 26.1036 2.04237V1.2055C26.1036 0.547953 26.6402 0 27.3059 0H28.6672C29.3231 0 29.8696 0.537991 29.8696 1.2055V2.04237C29.8696 2.4907 30.2372 2.84936 30.6943 2.84936H31.529C32.1749 2.84936 32.7115 3.38735 32.7115 4.05486H32.7214Z" fill="#8957C0"/>
<path d="M17.4587 9.09608V10.8396C17.4587 11.4373 17.1209 11.9454 16.6439 12.2045C16.4352 12.3141 16.1968 12.3938 15.9384 12.3938H15.0739C14.3982 12.3938 13.8418 12.9417 13.8418 13.6291V14.4859C13.8418 14.745 13.7822 14.9841 13.6729 15.1933C13.4145 15.6715 12.9077 16.0103 12.3115 16.0103H10.5726C9.99629 16.0103 9.46965 15.6715 9.23117 15.1933C9.12186 14.9841 9.06224 14.745 9.06224 14.4859V13.6291C9.06224 12.9318 8.50579 12.3938 7.8301 12.3938H6.95567C6.70726 12.3938 6.45884 12.334 6.26011 12.2045C5.76327 11.9554 5.43536 11.4373 5.43536 10.8396V9.09608C5.43536 8.49831 5.77321 7.99021 6.26011 7.7511C6.45884 7.63155 6.70726 7.58173 6.95567 7.58173H7.8301C8.50579 7.58173 9.06224 7.02381 9.06224 6.34634V5.46962C9.06224 5.22055 9.11193 4.99141 9.23117 4.77222C9.47958 4.27408 9.98635 3.94531 10.5726 3.94531H12.3115C12.9077 3.94531 13.4244 4.28405 13.6729 4.77222C13.7921 4.98144 13.8418 5.22055 13.8418 5.46962V6.34634C13.8418 7.02381 14.3982 7.58173 15.0739 7.58173H15.9384C16.1968 7.58173 16.4352 7.64151 16.6439 7.7511C17.1209 8.00017 17.4587 8.51823 17.4587 9.09608Z" fill="#8957C0"/>
<path d="M33.6554 20.8522C32.8406 20.3739 31.9861 19.9854 31.1017 19.6566C30.8135 19.547 30.5154 19.4474 30.2174 19.3577C28.9256 18.9393 27.5742 18.6603 26.2029 18.5009C23.848 18.2319 21.4234 18.3116 19.0585 18.7301C19.0585 18.7301 19.0552 18.7301 19.0486 18.7301C18.4027 18.8496 17.7568 18.9891 17.1208 19.1485C16.8625 19.2183 16.6041 19.298 16.3458 19.3677C14.8453 19.7961 13.3847 20.364 12.0233 21.0614C9.13177 22.5259 6.60786 24.5882 4.87888 27.0789C1.97738 31.2633 0.31796 36.0155 0.0496703 40.987C-0.00994967 41.9334 -0.0198863 42.8699 0.0297969 43.8263C0.0496703 44.1452 0.0695436 44.464 0.0993535 44.7927C0.119227 44.982 0.129163 45.1813 0.158973 45.3706C0.158973 45.3706 0.158973 45.3706 0.158973 45.3805C0.49682 48.6085 1.40106 51.9062 2.9313 55.154C3.0406 55.4031 3.16978 55.6621 3.28902 55.9112C3.28902 55.9112 9.13177 30.536 34.1225 21.1112C33.9734 21.0215 33.8144 20.9319 33.6554 20.8522Z" fill="url(#paint1_linear_2507_1451)"/>
<path d="M26.203 18.5009C25.9844 18.5607 25.7657 18.6205 25.5372 18.7002C19.7441 20.5931 13.3847 25.0564 8.33685 30.0976C9.09204 27.6169 10.1652 25.435 12.5897 22.765C14.0206 21.1909 15.1136 20.1647 16.3557 19.3577C14.8553 19.7861 13.3449 20.2544 12.0333 21.0514C11.9041 21.1311 10.4136 22.5458 9.9764 23.1037C7.64129 26.0727 6.29984 28.6929 5.83281 32.7477C3.76599 35.089 2.04695 37.4402 0.755185 39.7117C0.506768 40.1401 0.278225 40.5585 0.059619 40.977C-9.35979e-07 41.9235 -0.00993759 42.86 0.0397457 43.8164C0.059619 44.1352 0.0794923 44.454 0.109302 44.7828C0.129176 44.9721 0.139112 45.1713 0.168922 45.3606C1.7886 41.9832 4.71991 37.221 7.93939 33.6244C14.1995 26.6505 26.4812 19.8658 30.2273 19.3478C28.9355 18.9293 27.5842 18.6504 26.2129 18.491L26.203 18.5009Z" fill="#F2C4BB"/>
</g>
<defs>
<linearGradient id="paint0_linear_2507_1451" x1="40.3031" y1="18.3515" x2="40.3031" y2="83" gradientUnits="userSpaceOnUse">
<stop stop-color="#EFE5FF"/>
<stop offset="1" stop-color="#8957C0"/>
</linearGradient>
<linearGradient id="paint1_linear_2507_1451" x1="-1.30126e-05" y1="37.1314" x2="34.1225" y2="37.1314" gradientUnits="userSpaceOnUse">
<stop stop-color="#FFD3BD"/>
<stop offset="1" stop-color="#FFDDD4"/>
</linearGradient>
<clipPath id="clip0_2507_1451">
<rect width="80" height="83" fill="white"/>
</clipPath>
</defs>
</svg>
