<svg width="39" height="39" viewBox="0 0 39 39" fill="none" xmlns="http://www.w3.org/2000/svg">
<path d="M1.09001 12.7873H9.04667V38.3724H1.09001V12.7873ZM5.0824 0.0791016C7.64091 0.0791016 9.69333 2.13153 9.69333 4.69004C9.69333 7.24854 7.64091 9.30097 5.0824 9.30097C2.52389 9.30097 0.471466 7.22043 0.471466 4.69004C0.471466 2.15965 2.52389 0.0791016 5.0824 0.0791016Z" fill="white"/>
<path d="M14.0231 12.7873H21.6424V16.2736H21.7549C22.8233 14.2493 25.4099 12.1406 29.2898 12.1406C37.3308 12.1406 38.821 17.4263 38.821 24.3146V38.3442H30.8643V25.9172C30.8643 22.937 30.808 19.1414 26.7313 19.1414C22.6546 19.1414 21.9517 22.3747 21.9517 25.7204V38.3724H13.995V12.7873H14.0231Z" fill="white"/>
</svg>
