<svg width="285" height="154" viewBox="0 0 285 154" fill="none" xmlns="http://www.w3.org/2000/svg">
    <g clip-path="url(#clip0_2507_1738)">
    <path d="M96.3177 30.5378H56.5021C42.0068 30.5378 30.2561 42.3683 30.2561 56.9619V97.0476C30.2561 111.641 42.0068 123.472 56.5021 123.472H96.3177C110.813 123.472 122.564 111.641 122.564 97.0476V56.9619C122.564 42.3683 110.813 30.5378 96.3177 30.5378Z" fill="#003970"/>
    <path d="M75.9627 107.657C91.4551 107.657 104.014 95.0131 104.014 79.4156C104.014 63.8181 91.4551 51.1738 75.9627 51.1738C60.4703 51.1738 47.9112 63.8181 47.9112 79.4156C47.9112 95.0131 60.4703 107.657 75.9627 107.657Z" fill="#80EEC2"/>
    <path d="M104.223 56.6079C107.503 56.6079 110.162 53.9309 110.162 50.6285C110.162 47.3262 107.503 44.6492 104.223 44.6492C100.943 44.6492 98.2841 47.3262 98.2841 50.6285C98.2841 53.9309 100.943 56.6079 104.223 56.6079Z" fill="#80EEC2"/>
    <path d="M84.9629 60.7409C82.8438 59.6981 80.3637 61.2001 80.3637 63.5727V63.965C80.3637 65.2087 81.0954 66.2897 82.1977 66.8542C85.476 68.5284 87.9467 71.475 89.049 75.0053C89.1725 75.3975 88.8589 75.7898 88.4598 75.7898H83.7086C81.8651 75.7898 80.3637 77.3013 80.3637 79.1573C80.3637 81.0133 81.8651 82.5249 83.7086 82.5249H93.021C94.8645 82.5249 96.3659 81.0133 96.3659 79.1573C96.3659 71.1306 91.8047 64.0989 84.9629 60.7313V60.7409Z" fill="#003970"/>
    <path d="M82.9573 91.0395C80.8572 92.2928 78.4436 92.9721 75.9539 92.9721C69.5492 92.9721 64.1708 88.5234 62.6694 82.5345H62.7074C64.5129 82.5345 65.9763 81.0612 65.9763 79.2434V79.0904C65.9763 77.2726 64.5129 75.7993 62.7074 75.7993H55.8751C54.0696 75.7993 52.6062 77.2726 52.6062 79.0904V79.2434C52.6062 81.0516 54.0506 82.5153 55.8465 82.5249C57.4525 92.2546 65.8432 99.6977 75.9539 99.6977C79.6504 99.6977 83.2424 98.6931 86.3687 96.818C88.2027 95.7178 88.6113 93.2208 87.1764 91.6327C86.0931 90.4273 84.3351 90.2072 82.9478 91.03L82.9573 91.0395Z" fill="#003970"/>
    <path d="M149.275 44.7928C144.846 44.7928 141.179 46.2662 138.375 49.1554C135.582 52.0446 134.166 55.7184 134.166 60.0618C134.166 64.4052 135.61 68.1268 138.47 70.9969C141.321 73.867 145.075 75.3307 149.607 75.3307C154.14 75.3307 157.703 73.9244 160.402 71.1595C161.039 70.5089 161.333 69.6096 161.2 68.6912C161.067 67.7632 160.535 66.9692 159.727 66.5099C158.549 65.8402 157.057 66.0699 156.107 67.084C154.596 68.6817 152.449 69.4853 149.721 69.4853C147.26 69.4853 145.17 68.8347 143.507 67.5623C142.043 66.4334 141.036 64.8835 140.523 62.9319H160.849C162.407 62.9319 163.671 61.669 163.681 60.1192C163.681 55.9384 162.331 52.3029 159.68 49.318C157 46.314 153.513 44.7928 149.294 44.7928H149.275ZM157.39 57.4213H140.494C140.95 55.4792 141.882 53.8911 143.279 52.6856C144.846 51.3271 146.861 50.6479 149.275 50.6479C151.318 50.6479 153.133 51.2888 154.672 52.5612C156.04 53.6902 156.962 55.3357 157.399 57.4309L157.39 57.4213Z" fill="#003970"/>
    <path d="M194.896 44.8213C193.223 44.8213 191.855 46.199 191.855 47.8827V49.0308C189.422 46.2181 186.125 44.7926 182.048 44.7926C177.972 44.7926 174.541 46.2946 171.7 49.2413C168.868 52.1879 167.433 55.8234 167.433 60.0615C167.433 64.2997 168.868 67.9352 171.7 70.8818C174.541 73.838 178.019 75.3305 182.048 75.3305C186.077 75.3305 189.413 73.905 191.855 71.0923V72.2403C191.855 73.9241 193.223 75.3018 194.896 75.3018C196.568 75.3018 197.936 73.9241 197.936 72.2403V47.8827C197.936 46.199 196.568 44.8213 194.896 44.8213ZM191.855 60.0615C191.855 62.6925 190.971 64.9216 189.223 66.701C187.474 68.4709 185.269 69.3702 182.656 69.3702C180.043 69.3702 177.895 68.4709 176.147 66.701C174.399 64.9216 173.515 62.6925 173.515 60.0615C173.515 57.4306 174.399 55.2015 176.147 53.422C177.895 51.6521 180.081 50.7528 182.656 50.7528C185.231 50.7528 187.474 51.6521 189.223 53.422C190.971 55.2015 191.855 57.4306 191.855 60.0615Z" fill="#003970"/>
    <path d="M220.02 58.4543L215.497 57.1149C214.053 56.6844 212.798 56.1678 211.763 55.5555C210.689 54.9337 210.29 54.13 210.508 53.0298C210.641 52.3697 211.069 51.7574 211.687 51.3747C212.513 50.8486 213.54 50.5807 214.727 50.5807C216.704 50.5807 218.215 51.1643 219.194 52.3123C220.106 53.3838 221.645 53.6708 222.843 52.982C223.622 52.5419 224.154 51.7766 224.306 50.8773C224.448 50.0067 224.201 49.1361 223.622 48.4855C222.9 47.6723 222.025 46.9739 221.047 46.3999C219.203 45.3284 217.084 44.7831 214.737 44.7831C211.801 44.7831 209.311 45.6154 207.344 47.2705C205.339 48.9447 204.322 51.1164 204.322 53.7187C204.322 55.7277 204.921 57.4115 206.09 58.7126C207.23 59.985 208.636 60.8748 210.261 61.3627L214.784 62.7308C216.229 63.1709 217.474 63.697 218.49 64.3189C219.374 64.8547 219.783 65.5052 219.783 66.3471C219.783 67.4186 219.393 68.1553 218.547 68.6527C217.626 69.1981 216.409 69.4755 214.946 69.4755C213.388 69.4755 212.029 69.112 210.926 68.404C210.385 68.0596 209.919 67.6386 209.549 67.1699C208.617 65.9836 207.03 65.6487 205.786 66.3662L205.586 66.481C204.854 66.902 204.341 67.6195 204.18 68.4518C204.018 69.265 204.208 70.1069 204.712 70.7671C205.5 71.8003 206.508 72.6996 207.705 73.4458C209.71 74.6895 212.152 75.3209 214.946 75.3209C218.101 75.3209 220.733 74.5077 222.767 72.9005C224.857 71.255 225.912 69.045 225.912 66.3375C225.912 64.2519 225.332 62.5107 224.182 61.1618C223.052 59.8415 221.655 58.9231 220.02 58.4352V58.4543Z" fill="#003970"/>
    <path d="M254.135 46.8399C253.565 46.0076 252.634 45.5101 251.636 45.5101C250.391 45.5101 249.251 46.2946 248.804 47.4714L241.81 65.7635L233.838 47.3183C233.363 46.2181 232.289 45.5101 231.101 45.5101C230.094 45.5101 229.153 46.0172 228.602 46.8686C228.051 47.7201 227.956 48.7916 228.364 49.7196L238.494 73.0248C238.722 73.5414 238.694 74.1059 238.427 74.6512C237.24 77.7031 235.51 79.4538 233.287 79.8557C231.937 80.0948 230.958 81.2333 230.958 82.5631V82.764C230.958 83.6059 231.32 84.4096 231.956 84.9549C232.469 85.395 233.116 85.6437 233.781 85.6437C233.923 85.6437 234.056 85.6341 234.199 85.615C236.052 85.328 237.772 84.5818 239.302 83.3859C241.506 81.6734 243.236 79.1573 244.452 75.9045L254.468 49.6526C254.829 48.7151 254.705 47.6531 254.135 46.8304V46.8399Z" fill="#003970"/>
    <path d="M148.952 92.5128L141.853 82.3048C141.055 81.1472 139.782 80.4679 138.423 80.4679C136.066 80.4679 134.166 82.4961 134.166 84.9836V105.734C134.166 107.648 135.629 109.188 137.425 109.188C139.221 109.188 140.684 107.638 140.684 105.734V91.537L147.583 100.693C148.571 102.003 150.443 102.003 151.432 100.693L158.359 91.5561V105.754C158.359 107.648 159.803 109.188 161.599 109.188C163.386 109.188 164.84 107.648 164.84 105.754V84.9357C164.84 82.4579 162.949 80.4584 160.621 80.4584C159.271 80.4584 158.007 81.1376 157.219 82.2952L150.177 92.5032C149.873 92.9337 149.265 92.9433 148.961 92.5032L148.952 92.5128Z" fill="#003970"/>
    <path d="M194.934 84.5817C191.998 81.8551 188.292 80.4679 183.902 80.4679H174.865C172.679 80.4679 170.902 82.3526 170.902 84.6678V104.998C170.902 107.322 172.679 109.198 174.865 109.198H183.902C188.292 109.198 192.008 107.81 194.934 105.084C197.918 102.309 199.429 98.8652 199.429 94.828C199.429 90.7907 197.918 87.3466 194.934 84.5721V84.5817ZM190.573 100.807C188.843 102.453 186.667 103.256 183.892 103.256H178.219C177.773 103.256 177.412 102.874 177.412 102.405V87.2796C177.412 86.8108 177.773 86.4281 178.219 86.4281H183.892C186.658 86.4281 188.843 87.2318 190.573 88.8773C192.198 90.4271 193.015 92.3023 193.072 94.5888C193.129 96.8753 192.217 99.2479 190.573 100.817V100.807Z" fill="#003970"/>
    </g>
    <defs>
    <clipPath id="clip0_2507_1738">
    <rect width="285" height="154" fill="white"/>
    </clipPath>
    </defs>
</svg>
