<svg width="105" height="88" viewBox="0 0 105 88" fill="none" xmlns="http://www.w3.org/2000/svg">
<path d="M50.5654 78.5252C33.3869 95.6157 17.3774 83.7405 3.02771 86.7822C1.15732 87.178 -0.442241 85.3817 0.111007 83.5507C2.05316 77.127 4.65505 67.7912 11.1181 60.386C19.7779 50.4669 31.4957 46.7099 43.8477 49.196C53.4034 52.8604 55.6997 60.0527 55.8525 65.724C55.9821 70.5274 53.9705 75.1362 50.5654 78.5252Z" fill="url(#paint0_linear_2507_1407)"/>
<path d="M16.3487 75.1129C16.0362 75.1129 15.7214 74.9879 15.4922 74.7402C15.0524 74.2656 15.0802 73.5272 15.5524 73.0874C19.3302 69.5781 23.5293 66.9021 28.7678 64.6683C29.3628 64.4137 30.048 64.6914 30.3026 65.284C30.5549 65.8789 30.2794 66.5641 29.6868 66.8188C24.703 68.9438 20.7168 71.4809 17.145 74.8004C16.9205 75.0087 16.6334 75.1129 16.3487 75.1129Z" fill="url(#paint1_linear_2507_1407)"/>
<path d="M57.1499 79.0133C73.1386 94.9233 88.0416 83.8676 101.398 86.7009C103.139 87.0713 104.627 85.3977 104.111 83.694C102.303 77.7147 99.882 69.0225 93.8657 62.1335C85.8054 52.8996 74.8979 49.4018 63.4 51.7167C54.5064 55.1288 52.3675 61.8233 52.2263 67.1011C52.1059 71.5711 53.9786 75.8605 57.1476 79.0157L57.1499 79.0133Z" fill="url(#paint2_linear_2507_1407)"/>
<path d="M88.9993 75.8374C88.7331 75.8374 88.4669 75.7402 88.2585 75.5458C84.9344 72.4555 81.2237 70.0943 76.5847 68.1151C76.0315 67.879 75.7745 67.2401 76.0107 66.6869C76.2468 66.1359 76.8857 65.8767 77.4389 66.1128C82.3163 68.1938 86.2261 70.6846 89.74 73.9509C90.1798 74.3606 90.2053 75.0481 89.7956 75.4902C89.5826 75.7194 89.2909 75.8374 88.9993 75.8374Z" fill="url(#paint3_linear_2507_1407)"/>
<path d="M101.99 22.235C101.856 21.6563 102.296 20.7604 101.731 20.5498C101.219 20.36 100.798 21.2095 100.379 21.6355C96.4393 25.6286 92.4323 29.5615 88.6152 33.6704C85.7401 36.7653 82.6012 39.601 79.8326 42.7955C79.5595 43.1103 79.078 43.689 78.578 42.4066V46.5108C78.5294 46.5108 78.4784 46.5131 78.4298 46.5154C78.3951 45.8812 78.3581 45.2492 78.3257 44.6612C77.7794 44.2515 77.4275 46.233 76.7817 44.6335C77.2608 46.5386 75.5733 47.0131 74.6844 48.0039C71.527 51.5294 68.0431 54.7401 64.8023 58.1799C62.7143 60.3952 60.5569 62.5388 58.4319 64.7148C58.1726 64.981 57.9643 65.3328 57.4133 65.4648C58.7513 63.5874 60.0453 61.8189 61.2861 60.0156C63.0523 57.4461 64.4898 54.6892 65.7514 51.8442C66.5732 49.9923 67.3093 48.1057 68.0709 46.2284C68.1542 46.0224 68.1542 45.7816 68.1913 45.5548C68.3487 44.5825 68.3186 43.5756 68.9181 42.7029C69.2098 42.2793 69.2283 41.7631 68.9667 41.2769C68.8996 41.1519 68.7862 40.9135 68.8047 40.9019C69.1797 40.6704 69.6149 40.3325 69.3394 39.9413C69.1774 39.7098 68.5385 39.8579 68.1473 39.7352C67.4297 39.5107 66.3301 37.8278 66.351 37.0732C66.3811 36.0037 67.3695 34.7329 68.5617 34.587C69.5964 34.4597 69.7214 34.1009 69.6288 33.1333C69.5246 32.0592 68.9691 30.9504 69.5825 29.8555C69.5154 29.3416 69.976 29.242 70.2631 29.036C73.3441 26.8277 76.652 25.0637 80.21 23.7281C81.5364 23.2304 82.9091 22.8346 84.1845 22.2003C84.9531 22.6702 85.673 22.2188 86.3721 22.0244C89.768 21.0706 93.224 20.5104 96.7218 20.0868C98.2472 19.9016 99.7889 20.1053 101.294 19.7327C101.847 19.5961 102.222 19.8461 102.189 20.4503C102.159 21.0475 102.398 21.6794 101.995 22.2373L101.99 22.235Z" fill="url(#paint4_linear_2507_1407)"/>
<path d="M36.4807 30.0845C36.4737 32.2743 36.1057 34.4503 36.2492 36.6447C36.4089 39.0707 36.6635 41.4828 37.3487 43.8555C37.8649 43.6333 37.4622 43.1147 37.8186 42.786C37.9529 44.5129 37.9321 46.1935 38.4946 47.8069C40.4275 53.3602 43.247 58.4298 46.7424 63.1382C47.0572 63.5641 47.0665 63.5571 47.2053 64.2261C46.7748 64.2933 46.5942 63.9345 46.3905 63.696C44.159 61.0942 41.6104 58.8025 39.2446 56.3302C36.3811 53.3371 33.5408 50.3209 30.6843 47.3208C30.182 46.793 29.6333 46.3139 29.138 45.7814C28.6403 45.2467 28.381 45.3671 28.2722 46.1773C28.0708 45.4226 28.3185 44.6935 27.7467 44.1888C27.5106 44.4921 26.8463 43.9041 26.8787 44.7675C26.8023 44.6078 26.7745 44.5777 26.7768 44.5499C26.8301 43.6356 26.881 42.712 25.7351 42.3832C24.7722 42.1078 24.9018 41.3439 24.9087 40.624C24.9134 40.0198 24.9087 39.4179 24.6819 38.8068C24.6819 39.2559 24.7421 39.7165 24.6611 40.1517C24.6032 40.4596 25.0662 41.1749 24.1171 41.0013C23.8902 40.9596 23.999 41.3786 23.9944 41.58C23.9759 42.4527 23.9874 43.3231 23.7421 44.1958V38.5869C23.6356 38.5823 23.5314 38.5753 23.4249 38.5707V44.131L23.0777 44.1356C23.2768 42.9712 22.6448 41.8786 23.0059 40.6749C23.2073 40.0059 22.9782 39.4434 22.4087 38.8438C19.6865 35.9711 16.7535 33.3067 14.1308 30.3345C12.735 28.7511 11.1331 27.3506 9.67011 25.8251C7.97796 24.0589 6.17238 22.3899 4.74412 20.3853C4.59134 20.1723 4.24642 20.4524 4.18855 20.0913C4.48717 19.7487 4.91078 19.9825 5.26264 19.8853C10.0405 19.9501 14.7072 20.7649 19.3114 21.9894C20.0128 22.177 20.7374 22.3043 21.411 22.5658C21.918 22.7649 22.1055 22.4848 22.3439 22.1839C23.2235 22.9895 24.3648 23.3043 25.4365 23.6793C29.1472 24.9779 32.5014 26.9201 35.726 29.1215C36.0895 29.3692 36.402 29.6261 36.4807 30.0822V30.0845Z" fill="url(#paint5_linear_2507_1407)"/>
<path d="M84.1783 22.1977C84.0741 22.8482 83.4931 22.8505 83.044 23.001C80.7037 23.7927 78.4398 24.7603 76.2013 25.8089C73.8378 26.9154 71.7174 28.3946 69.5785 29.8529C68.9443 29.7927 69.0507 29.2094 69.0044 28.8714C68.4188 24.7163 66.9072 20.8667 65.2035 17.0727C64.8285 16.2393 64.2034 15.5287 64.0322 14.6004C68.5114 11.0518 73.3193 8.04245 78.5347 5.68362C79.537 5.22991 79.9629 5.40121 80.3472 6.44984C82.2176 11.5587 83.6227 16.7717 84.1806 22.1954L84.1783 22.1977Z" fill="url(#paint6_linear_2507_1407)"/>
<path d="M36.4805 30.0845C35.1518 28.9201 33.6286 28.0266 32.1286 27.1331C29.2999 25.4502 26.2651 24.1793 23.1424 23.133C22.6493 22.9687 22.3137 22.7534 22.3437 22.1862C22.6493 17.9894 23.7442 13.957 24.9479 9.95459C25.3461 8.63281 25.8901 7.3527 26.3183 6.03787C26.573 5.25314 26.9179 5.18601 27.6563 5.53092C32.6842 7.88512 37.4643 10.6328 41.807 14.1121C42.2769 15.1815 41.3255 15.8436 40.9482 16.575C38.8694 20.6145 37.5338 24.8761 36.7074 29.3206C36.6588 29.5799 36.5569 29.8299 36.4782 30.0845H36.4805Z" fill="url(#paint7_linear_2507_1407)"/>
<path d="M102.083 20.9846C102.092 20.7346 102.187 20.4129 101.835 20.2948C101.544 20.1953 101.317 20.3712 101.101 20.5356C100.824 20.7462 100.588 21.0008 100.342 21.2462C98.326 23.2578 96.363 25.3227 94.3745 27.3597C89.5319 32.3204 84.7216 37.3113 79.8674 42.2604C79.6498 42.4803 79.4507 42.7789 79.1012 42.6678C78.3164 42.4155 78.3558 43.0011 78.3419 43.4317C78.3303 43.8067 78.3789 44.1771 78.4252 44.5428C78.3396 44.3276 78.1475 44.2674 77.7493 44.4942C77.6174 44.5706 77.4669 44.7118 77.328 44.6308C76.5201 44.1586 76.5224 44.7882 76.4808 45.2697C76.4345 45.8021 76.2678 46.2813 75.8488 46.5845C74.4576 47.5915 73.4923 49.0082 72.2932 50.1957C68.0246 54.4272 63.9019 58.8023 59.6704 63.0709C59.1009 63.6473 58.5546 64.2445 58.1055 64.7862C60.8579 61.6125 63.1056 57.9805 64.9876 54.1286C66.5732 50.8809 68.057 47.5938 68.7631 43.9988C68.9737 42.9294 69.233 41.8622 69.4668 40.7951C69.6589 39.9131 69.5941 39.6261 68.7029 39.4895C67.6797 39.3321 66.7098 38.1076 66.6913 37.1029C66.6751 36.2279 67.4783 35.2418 68.4737 34.9108C68.6566 34.8506 68.8464 34.8089 69.0339 34.7742C69.7885 34.633 70.02 34.1978 69.9298 33.4408C69.7862 32.2232 69.5941 31.0033 69.645 29.7695C69.1728 28.9385 69.277 27.9801 69.0547 27.0935C68.1913 23.6305 67.0756 20.2555 65.5038 17.0425C65.0871 16.1906 64.77 15.2693 64.0315 14.6096C63.8973 14.4753 63.719 14.3642 63.6334 14.2045C60.9435 9.14652 57.4851 4.65109 53.5846 0.479736C52.624 0.632516 52.9295 1.39642 52.9272 1.94503C52.9133 14.4221 52.9318 26.9014 52.8855 39.3784C52.8809 40.3391 53.0545 41.2928 52.9388 42.2581C52.8902 42.6586 52.6379 42.941 52.6008 43.4062C52.4642 45.1516 52.992 46.8114 52.9642 48.5475C52.8485 55.4018 52.9203 62.256 52.911 69.1126C52.911 69.3256 52.9133 69.5316 52.955 69.7214C53.1564 69.7099 53.3578 69.7006 53.5592 69.6867C58.5477 69.7423 63.4783 69.2793 68.3163 68.0246C68.7932 67.902 69.2538 67.7654 69.7052 67.8302C72.3488 67.0524 74.9391 66.1218 77.4692 64.9737C83.7008 62.1449 88.9231 58.0939 92.9069 52.5522C95.863 48.4434 97.9047 43.8692 99.3353 38.9895C100.944 33.5056 101.937 27.9546 101.99 22.2393C102.189 21.8365 102.067 21.4059 102.083 20.9893V20.9846ZM78.4947 45.9387C78.4623 45.6841 78.4831 45.3692 78.4877 45.0544C78.5178 45.353 78.5317 45.647 78.4947 45.9387Z" fill="url(#paint8_linear_2507_1407)"/>
<path d="M36.8806 67.8744C39.8459 69.0086 43.0195 68.8211 46.0728 69.379C48.4826 69.8188 50.9409 69.8443 53.3924 69.6892C53.3438 69.3628 53.2743 69.0364 53.2789 68.7031C53.4039 61.6196 53.015 54.5293 53.485 47.4481C53.4989 47.2537 53.5035 47.0546 53.4086 46.8833C53.0035 46.1356 53.022 45.3208 53.0475 44.5129C53.1169 42.3046 53.2789 40.1008 53.2789 37.8878C53.2743 26.2511 53.2766 14.6121 53.2789 2.97532C53.2789 2.1304 53.2211 1.27622 53.5799 0.472972C53.0058 -0.464541 52.5752 0.211394 52.1678 0.625752C48.5196 4.33645 45.5126 8.53327 42.832 12.9755C42.5658 13.4176 42.4246 13.9847 41.8066 14.1144C41.5843 14.3921 41.5658 14.7602 41.3968 15.0634C38.795 19.7533 37.163 24.7765 36.2417 30.0428C36.1213 30.8067 36.1583 31.5799 36.0843 32.3484C35.7208 36.0985 36.0287 39.8068 36.9199 43.4666C36.9847 43.7282 37.0519 44.0476 37.3898 44.0314C37.5797 44.0222 37.6722 43.955 37.7139 43.8555C37.5866 44.9713 37.6167 46.094 37.9801 47.1472C38.9107 49.8394 39.9547 52.4853 41.2741 55.027C42.8089 57.983 44.6723 60.7169 46.5636 63.4414C45.8275 62.5965 45.0636 61.7863 44.2858 60.9831C42.3274 58.9645 40.3065 57.0061 38.3644 54.9714C35.494 51.9621 32.6907 48.888 29.7069 45.9875C29.3643 45.6565 29.0911 45.256 28.4754 45.2398C28.2462 45.2352 28.392 44.4921 28.0888 44.1796C27.6906 43.7699 27.2647 43.9041 26.8874 44.0754C27.1142 43.3509 27.1883 42.7305 26.2161 42.3624C25.4707 42.08 25.1374 41.4457 25.1975 40.6008C25.2392 40.0314 25.2855 39.4411 25.0725 38.8832C25.0008 38.6957 24.8665 38.5522 24.635 38.5915C24.4568 38.624 24.3758 38.7652 24.3804 38.9249C24.4105 39.8717 24.061 40.7768 23.8711 41.6402C23.8758 41.1518 23.9082 40.6425 24.0262 40.1332C24.1211 39.7281 24.0795 39.286 23.9869 38.8693C23.9267 38.6031 23.8364 38.3091 23.4822 38.3531C23.1466 38.3948 23.0424 38.6934 23.0818 38.9596C23.1142 39.1795 23.135 39.4017 23.1466 39.6217C23.0517 39.2142 22.8202 38.8439 22.4637 38.4874C18.0169 34.0521 13.7252 29.4664 9.2876 25.0196C7.90101 23.6284 6.58849 22.1631 5.27598 20.7024C5.06764 20.4686 4.64634 20.1654 5.26209 19.8853C4.37319 19.4686 3.85697 19.501 3.80836 20.7279C3.66947 24.2395 4.04448 27.7187 4.61624 31.1516C5.54218 36.6934 7.14174 42.0407 9.66029 47.1148C12.6951 53.226 16.9868 58.1427 22.6998 61.8604C26.8272 64.5456 31.2717 66.4507 35.95 67.8095C36.2648 67.7239 36.5982 67.7679 36.8783 67.8744H36.8806ZM37.7486 43.6055C37.744 43.5152 37.7324 43.4226 37.7301 43.337C37.7301 43.2999 37.7278 43.2814 37.7093 43.2791C37.5542 43.2745 37.8204 43.1564 37.7926 43.3115C37.7764 43.4087 37.7648 43.5083 37.751 43.6078L37.7486 43.6055ZM23.1558 40.4781C23.1443 40.8948 23.1211 41.3045 23.1072 41.7004C23.0818 41.3069 23.0818 40.8948 23.1558 40.4781Z" fill="url(#paint9_linear_2507_1407)"/>
<defs>
<linearGradient id="paint0_linear_2507_1407" x1="12.0186" y1="71.2982" x2="44.5607" y2="66.4278" gradientUnits="userSpaceOnUse">
<stop stop-color="#57AD9D"/>
<stop offset="0.18" stop-color="#53A29A"/>
<stop offset="0.49" stop-color="#498793"/>
<stop offset="0.89" stop-color="#3A5B88"/>
<stop offset="0.99" stop-color="#364F86"/>
</linearGradient>
<linearGradient id="paint1_linear_2507_1407" x1="33.5712" y1="61.5548" x2="7.98053" y2="80.9092" gradientUnits="userSpaceOnUse">
<stop stop-color="#473051"/>
<stop offset="1" stop-color="#42D1C2"/>
</linearGradient>
<linearGradient id="paint2_linear_2507_1407" x1="98.47" y1="104.403" x2="64.5505" y2="54.5223" gradientUnits="userSpaceOnUse">
<stop stop-color="#57AD9D"/>
<stop offset="0.18" stop-color="#53A29A"/>
<stop offset="0.49" stop-color="#498793"/>
<stop offset="0.89" stop-color="#3A5B88"/>
<stop offset="0.99" stop-color="#364F86"/>
</linearGradient>
<linearGradient id="paint3_linear_2507_1407" x1="93.8396" y1="81.819" x2="81.6265" y2="69.5457" gradientUnits="userSpaceOnUse">
<stop stop-color="#57AD9D"/>
<stop offset="0.18" stop-color="#53A29A"/>
<stop offset="0.49" stop-color="#498793"/>
<stop offset="0.89" stop-color="#3A5B88"/>
<stop offset="0.99" stop-color="#364F86"/>
</linearGradient>
<linearGradient id="paint4_linear_2507_1407" x1="57.411" y1="42.5779" x2="102.229" y2="42.5779" gradientUnits="userSpaceOnUse">
<stop stop-color="#FFE0D3"/>
<stop offset="1" stop-color="#FF72A4"/>
</linearGradient>
<linearGradient id="paint5_linear_2507_1407" x1="4.19087" y1="42.0592" x2="47.2053" y2="42.0592" gradientUnits="userSpaceOnUse">
<stop stop-color="#FFE0D3"/>
<stop offset="1" stop-color="#FF72A4"/>
</linearGradient>
<linearGradient id="paint6_linear_2507_1407" x1="64.0322" y1="17.6514" x2="84.1783" y2="17.6514" gradientUnits="userSpaceOnUse">
<stop stop-color="#D83B74"/>
<stop offset="1" stop-color="#FF86B1"/>
</linearGradient>
<linearGradient id="paint7_linear_2507_1407" x1="22.3437" y1="17.707" x2="41.9366" y2="17.707" gradientUnits="userSpaceOnUse">
<stop stop-color="#D83B74"/>
<stop offset="1" stop-color="#FF86B1"/>
</linearGradient>
<linearGradient id="paint8_linear_2507_1407" x1="77.5225" y1="8.6442" x2="76.8141" y2="76.0224" gradientUnits="userSpaceOnUse">
<stop stop-color="#FFE0D3"/>
<stop offset="1" stop-color="#FF72A4"/>
</linearGradient>
<linearGradient id="paint9_linear_2507_1407" x1="28.9846" y1="8.13511" x2="28.274" y2="75.511" gradientUnits="userSpaceOnUse">
<stop stop-color="#FFE0D3"/>
<stop offset="1" stop-color="#FF72A4"/>
</linearGradient>
</defs>
</svg>

