<svg width="121" height="86" viewBox="0 0 121 86" fill="none" xmlns="http://www.w3.org/2000/svg">
<path d="M112.77 0H7.76929C3.47843 0 0 3.47843 0 7.76929V78.2295C0 82.5203 3.47843 85.9987 7.76929 85.9987H112.77C117.06 85.9987 120.539 82.5203 120.539 78.2295V7.76929C120.539 3.47843 117.06 0 112.77 0Z" fill="#302F2F"/>
<path d="M72.6381 22.9707H48.0767V63.0301H72.6381V22.9707Z" fill="#FF5F00"/>
<path d="M50.5565 42.999C50.5565 35.1937 54.1278 27.8122 60.2512 22.9693C49.8035 14.7581 34.8015 15.9486 25.7877 25.7109C16.7739 35.4732 16.7739 50.5248 25.7877 60.2826C34.8015 70.045 49.808 71.2399 60.2512 63.0242C54.1278 58.1814 50.5565 50.8044 50.5565 42.9945V42.999Z" fill="#EB001B"/>
<path d="M101.514 43.0011C101.523 52.7499 95.9589 61.6465 87.1931 65.9077C78.4273 70.1733 67.9931 69.055 60.332 63.0308C66.4555 58.188 70.0267 50.811 70.0267 43.0011C70.0267 35.1912 66.4555 27.8143 60.332 22.9714C67.9976 16.9472 78.4273 15.8289 87.1931 20.0946C95.9589 24.3602 101.519 33.2523 101.514 43.0011Z" fill="#F79E1B"/>
</svg>
