<svg width="177" height="177" viewBox="0 0 177 177" fill="none" xmlns="http://www.w3.org/2000/svg">
<path d="M126.673 0H50.3267C22.532 0 0 22.5321 0 50.3267V126.673C0 154.468 22.532 177 50.3267 177H126.673C154.468 177 177 154.468 177 126.673V50.3267C177 22.5321 154.468 0 126.673 0Z" fill="#003970"/>
<path d="M87.5764 146.802C117.16 146.802 141.142 122.657 141.142 92.8731C141.142 63.0888 117.16 38.9438 87.5764 38.9438C57.9928 38.9438 34.0105 63.0888 34.0105 92.8731C34.0105 122.657 57.9928 146.802 87.5764 146.802Z" fill="#80EEC2"/>
<path d="M141.541 49.3203C147.805 49.3203 152.882 44.2083 152.882 37.9023C152.882 31.5964 147.805 26.4844 141.541 26.4844C135.278 26.4844 130.2 31.5964 130.2 37.9023C130.2 44.2083 135.278 49.3203 141.541 49.3203Z" fill="#80EEC2"/>
<path d="M104.763 57.213C100.716 55.2217 95.9804 58.0899 95.9804 62.6206V63.3696C95.9804 65.7445 97.3776 67.8089 99.4825 68.8867C105.743 72.0838 110.461 77.7105 112.566 84.4517C112.801 85.2007 112.203 85.9497 111.44 85.9497H102.368C98.8474 85.9497 95.9804 88.8362 95.9804 92.3803C95.9804 95.9244 98.8474 98.8109 102.368 98.8109H120.15C123.671 98.8109 126.538 95.9244 126.538 92.3803C126.538 77.0528 117.828 63.6253 104.763 57.1947V57.213Z" fill="#003970"/>
<path d="M100.933 115.07C96.9228 117.463 92.3138 118.76 87.5597 118.76C75.3295 118.76 65.0591 110.265 62.1921 98.8289H62.2647C65.7124 98.8289 68.5068 96.0156 68.5068 92.5445V92.2522C68.5068 88.7811 65.7124 85.9678 62.2647 85.9678H49.218C45.7703 85.9678 42.9759 88.7811 42.9759 92.2522V92.5445C42.9759 95.9973 45.734 98.7924 49.1635 98.8107C52.2302 117.39 68.2527 131.603 87.5597 131.603C94.6183 131.603 101.477 129.685 107.447 126.104C110.949 124.003 111.73 119.235 108.99 116.203C106.921 113.901 103.564 113.48 100.915 115.052L100.933 115.07Z" fill="#003970"/>
</svg>
