<svg width="330" height="766" viewBox="0 0 330 766" fill="none" xmlns="http://www.w3.org/2000/svg">
<path d="M140.517 108.768C150.396 175.106 142.358 243.268 116.557 306.383C50.0444 469.05 -118.076 559.712 -284.655 536.024L-284.223 534.955C-265.495 489.164 -287.44 436.858 -333.24 418.138L-336.99 416.603C-382.781 397.875 -435.086 419.821 -453.815 465.612L-524.793 639.205C-543.521 684.996 -521.575 737.302 -475.776 756.022L-472.026 757.557C-426.445 776.192 -374.481 754.502 -355.528 709.148C-93.5655 768.78 181.412 632.506 286.375 375.818C324.78 281.879 336.726 180.422 321.99 81.6652C313.344 23.7408 254.601 -12.3807 199.551 7.59428C158.022 22.6702 134.024 65.0633 140.534 108.767L140.517 108.768Z" stroke="#80EEC2" stroke-width="3" stroke-miterlimit="10"/>
</svg>
