<svg width="493" height="688" viewBox="0 0 493 688" fill="none" xmlns="http://www.w3.org/2000/svg">
<path d="M648.149 104.481C657.65 168.288 649.919 233.85 625.102 294.556C561.128 451.017 399.422 538.221 239.199 515.436L239.614 514.408C257.628 470.364 236.519 420.054 192.467 402.048L188.861 400.571C144.816 382.558 94.5065 403.666 76.4928 447.711L8.22272 614.68C-9.79095 658.724 11.3174 709.034 55.3694 727.04L58.9761 728.516C102.818 746.441 152.799 725.578 171.029 681.955C422.997 739.311 687.483 608.237 788.442 361.343C825.381 270.987 836.872 173.402 822.698 78.4127C814.381 22.6984 757.879 -12.045 704.93 7.16786C664.986 21.6686 641.903 62.4442 648.164 104.481L648.149 104.481Z" stroke="#80EEC2" stroke-width="3" stroke-miterlimit="10"/>
</svg>
