<svg width="201" height="201" viewBox="0 0 201 201" fill="none" xmlns="http://www.w3.org/2000/svg">
<g clip-path="url(#clip0_2522_455)">
<g style="mix-blend-mode:screen">
<path d="M134.101 146.047C171.049 146.047 201.001 125.655 201.001 100.5C201.001 75.3451 171.049 54.9529 134.101 54.9529C97.1525 54.9529 67.2002 75.3451 67.2002 100.5C67.2002 125.655 97.1525 146.047 134.101 146.047Z" fill="#51D8E7"/>
</g>
<g style="mix-blend-mode:screen">
<path d="M66.9003 146.047C103.848 146.047 133.801 125.655 133.801 100.5C133.801 75.3451 103.848 54.9529 66.9003 54.9529C29.9523 54.9529 0 75.3451 0 100.5C0 125.655 29.9523 146.047 66.9003 146.047Z" fill="#51D8E7"/>
</g>
<g style="mix-blend-mode:screen">
<path d="M100.5 201C125.655 201 146.048 171.048 146.048 134.1C146.048 97.1518 125.655 67.1995 100.5 67.1995C75.3453 67.1995 54.9531 97.1518 54.9531 134.1C54.9531 171.048 75.3453 201 100.5 201Z" fill="#51D8E7"/>
</g>
<g style="mix-blend-mode:screen">
<path d="M100.5 133.801C125.655 133.801 146.048 103.848 146.048 66.9004C146.048 29.9524 125.655 0.00012207 100.5 0.00012207C75.3453 0.00012207 54.9531 29.9524 54.9531 66.9004C54.9531 103.848 75.3453 133.801 100.5 133.801Z" fill="#51D8E7"/>
</g>
<g style="mix-blend-mode:screen">
<path d="M108.946 156.47C135.072 130.344 141.832 94.7451 124.045 76.9577C106.257 59.1704 70.6584 65.9304 44.5322 92.0566C18.406 118.183 11.646 153.782 29.4333 171.569C47.2206 189.356 82.8195 182.596 108.946 156.47Z" fill="#51D8E7"/>
</g>
<g style="mix-blend-mode:screen">
<path d="M156.466 108.944C182.592 82.8174 189.352 47.2184 171.565 29.4311C153.778 11.6438 118.179 18.4038 92.0527 44.53C65.9265 70.6562 59.1665 106.255 76.9538 124.042C94.7411 141.83 130.34 135.07 156.466 108.944Z" fill="#51D8E7"/>
</g>
<g style="mix-blend-mode:screen">
<path d="M171.568 171.566C189.355 153.779 182.595 118.18 156.469 92.0538C130.343 65.9276 94.7441 59.1676 76.9568 76.9549C59.1695 94.7422 65.9295 130.341 92.0557 156.467C118.182 182.593 153.781 189.353 171.568 171.566Z" fill="#51D8E7"/>
</g>
<g style="mix-blend-mode:screen">
<path d="M124.042 124.045C141.829 106.258 135.069 70.659 108.943 44.5328C82.8166 18.4066 47.2177 11.6466 29.4304 29.4339C11.6431 47.2212 18.4031 82.8201 44.5293 108.946C70.6555 135.072 106.254 141.832 124.042 124.045Z" fill="#51D8E7"/>
</g>
</g>
<defs>
<clipPath id="clip0_2522_455">
<rect width="201" height="201" fill="white"/>
</clipPath>
</defs>
</svg>
