<svg width="86" height="113" viewBox="0 0 86 113" fill="none" xmlns="http://www.w3.org/2000/svg">
<path d="M81.2803 16.7495C77.9269 17.0617 77.1918 21.0496 77.4637 27.4945C77.7155 33.3252 75.3993 40.4248 74.644 42.9121C74.493 43.4257 73.9894 43.7379 73.4658 43.6573C72.9321 43.5768 72.5393 43.1236 72.5494 42.5798C72.6098 39.2566 73.0428 8.68324 71.2503 5.93406C69.5988 3.40641 64.9765 3.41649 64.04 7.67622C63.6775 8.77388 63.0733 37.8971 61.1398 42.1468C60.7772 42.8114 59.8608 42.3281 59.8306 41.9957C59.0854 35.2184 60.9283 7.85748 60.5355 5.5816C60.4852 -1.56831 52.5599 -1.43739 51.0695 3.63803C50.284 6.27645 49.0856 36.6988 47.7362 41.0793C47.6456 41.3714 46.8802 41.462 46.5177 41.18C44.131 39.3573 41.835 7.85748 40.2137 5.62188C38.4816 3.23522 35.5814 3.20501 33.8594 5.07808C30.1736 9.1062 32.8221 20.0224 34.1514 38.8941C34.3024 41.6735 34.2521 48.0681 34.0104 50.6159C33.6177 54.8454 31.4223 57.3126 30.2643 58.1082C24.5544 62.0356 18.8043 56.6581 13.1951 55.4899C7.38457 54.2815 -0.661586 54.2412 0.0433337 60.807C0.526707 65.3185 15.2092 65.5703 24.645 76.0534C28.3006 80.1118 32.8322 84.3916 36.0748 87.7551C37.0214 88.7319 39.0053 90.9877 39.4182 92.035C41.3919 97.0399 41.0596 106.113 40.7877 110.242C40.7071 111.41 41.6336 112.387 42.8018 112.387H73.6974C74.9159 112.387 75.8524 111.32 75.6913 110.121C75.1274 105.902 74.8152 98.6713 74.9965 93.2636C75.1073 90.2324 75.3691 87.6645 75.8424 86.2849C78.6621 79.0242 82.2169 67.6045 83.8583 53.1335C84.3618 49.1356 84.8251 41.8246 85.1373 39.9313C86.819 29.3878 86.2953 16.2662 81.2904 16.7395L81.2803 16.7495Z" fill="url(#paint0_linear_2507_1807)"/>
<path d="M84.1907 49.8411C84.1907 49.8411 52.0564 50.0224 34.3025 41.6641H34.2219C34.2622 44.7355 34.1816 48.7233 34.0004 50.6065C33.8997 51.6639 33.6882 52.6205 33.4062 53.4664C32.5704 55.9639 31.1303 57.5046 30.2643 58.1088C40.3447 63.3756 43.9095 76.6684 43.9095 76.6684C37.4545 77.5747 30.8887 77.5546 24.635 76.0541C28.2905 80.1225 32.8222 84.4024 36.0648 87.7558C37.0013 88.7326 38.9952 90.9883 39.4081 92.0356C52.2276 99.0345 74.5635 93.375 74.9864 93.2743C75.0972 90.2431 75.359 87.6752 75.8323 86.2855C76.6178 84.2714 77.4537 81.9351 78.2895 79.3068C79.8806 74.3321 81.4616 68.3 82.6701 61.3716C83.1232 58.7533 83.526 56.0142 83.8483 53.1442C83.8483 53.114 83.8584 53.0938 83.8584 53.0636C83.9792 52.1372 84.09 51.0194 84.2007 49.8411H84.1907Z" fill="#EFEFEF"/>
<path d="M36.0748 87.7566C49.851 90.7877 70.3742 86.0547 78.2894 79.3076C77.4536 81.936 76.6178 84.2723 75.8323 86.2863C75.359 87.676 75.0972 90.2439 74.9864 93.2751C74.5634 93.3758 52.2275 99.0353 39.4081 92.0365C38.9952 90.9891 37.0013 88.7334 36.0647 87.7566H36.0748Z" fill="url(#paint1_linear_2507_1807)"/>
<path d="M82.67 61.3701C81.4616 68.2985 79.8806 74.3306 78.2895 79.3053C70.3742 86.0524 49.851 90.7854 36.0748 87.7543C32.8322 84.4009 28.3006 80.121 24.6451 76.0526C30.8987 77.5531 37.4645 77.5732 43.9196 76.6669C53.1943 75.4182 62.1669 72.0849 69.196 68.8121C76.0337 65.6299 81.0286 62.4879 82.6801 61.3701H82.67Z" fill="url(#paint2_linear_2507_1807)"/>
<path d="M69.1859 68.8139C62.1569 72.0868 53.1843 75.42 43.9095 76.6687C43.9095 76.6687 40.3446 63.376 30.2643 58.1092C31.1303 57.505 32.5704 55.9642 33.4062 53.4668C42.6407 64.2521 64.8456 68.7636 69.1658 68.7636L69.1859 68.8139Z" fill="url(#paint3_linear_2507_1807)"/>
<path d="M83.8583 53.0626C83.8583 53.0626 83.8482 53.113 83.8482 53.1432C83.526 56.0132 83.1231 58.7523 82.67 61.3706C81.0185 62.4884 76.0236 65.6303 69.1859 68.8125L69.1657 68.7622C64.8456 68.7622 42.6406 64.2507 33.4062 53.4654C33.6881 52.6195 33.8996 51.6628 34.0003 50.6055C45.4301 54.1502 68.9744 58.9739 83.8583 53.0626Z" fill="url(#paint4_linear_2507_1807)"/>
<path d="M84.2007 49.8411C84.0899 51.0194 83.9792 52.1372 83.8583 53.0636C68.9744 58.9749 45.4301 54.1512 34.0003 50.6065C34.1816 48.7233 34.2622 44.7355 34.2219 41.6641C51.9758 50.0224 84.1906 49.8411 84.1906 49.8411H84.2007Z" fill="url(#paint5_linear_2507_1807)"/>
<path d="M77.3428 81.793C77.1716 82.3066 76.9904 82.8302 76.8192 83.374C76.9904 82.8302 77.1716 82.3066 77.3428 81.793Z" fill="#FF977B"/>
<path d="M35.5008 78.2891C31.5835 78.2891 27.8776 77.8762 24.3933 77.0404C23.8495 76.9094 23.5172 76.3657 23.6481 75.8219C23.779 75.2781 24.3228 74.9457 24.8666 75.0767C30.5462 76.4361 36.9006 76.6275 43.7685 75.6708C63.607 72.9921 81.9248 60.6661 82.1061 60.5352C82.5693 60.223 83.1937 60.3438 83.5059 60.797C83.8181 61.2602 83.6972 61.8846 83.244 62.1968C83.0527 62.3277 64.3421 74.9155 44.0505 77.6546C41.12 78.0675 38.2702 78.2689 35.521 78.2689L35.5008 78.2891Z" fill="url(#paint6_linear_2507_1807)"/>
<path d="M43.8994 77.6751C43.4563 77.6751 43.0535 77.3831 42.9327 76.93C42.9025 76.799 39.3678 64.0299 29.8312 59.0149C29.4888 58.8538 29.2572 58.5114 29.2572 58.1086C29.2572 57.5547 29.7003 57.1016 30.2542 57.1016H30.2643C30.4254 57.1016 30.5865 57.1418 30.7275 57.2123C41.0797 62.6301 44.7252 75.8424 44.8762 76.4063C45.0172 76.94 44.7051 77.4939 44.1613 77.6349C44.0706 77.655 43.9901 77.6651 43.8994 77.6651V77.6751Z" fill="url(#paint7_linear_2507_1807)"/>
<path d="M83.9087 50.8482C80.4445 50.8482 50.858 50.6065 33.7989 42.5805C33.2954 42.3388 33.0839 41.7446 33.3156 41.2411C33.5572 40.7376 34.1514 40.5261 34.6549 40.7578C51.9959 48.9147 83.9087 48.8341 84.1906 48.8341C84.7344 48.814 85.1977 49.2772 85.2077 49.8311C85.2077 50.385 84.7646 50.8381 84.2108 50.8482C84.1604 50.8482 84.0597 50.8482 83.9187 50.8482H83.9087Z" fill="url(#paint8_linear_2507_1807)"/>
<path d="M69.1657 69.7701C65.2383 69.7701 42.3889 65.5103 32.6509 54.1309C32.2884 53.708 32.3387 53.0735 32.7617 52.711C33.1846 52.3485 33.819 52.3988 34.1816 52.8218C43.0031 63.1237 64.614 67.756 69.1657 67.756C69.7196 67.756 70.1728 68.2092 70.1728 68.763C70.1728 69.3169 69.7196 69.7701 69.1657 69.7701Z" fill="url(#paint9_linear_2507_1807)"/>
<path d="M56.4973 96.5571C50.4451 96.5571 44.0102 95.7011 38.9247 92.9217C38.4312 92.6599 38.26 92.0456 38.5219 91.5521C38.7837 91.0587 39.398 90.8875 39.8914 91.1493C52.3282 97.9367 74.5131 92.3477 74.7346 92.2873C75.359 92.1261 75.9934 92.6196 75.9934 93.2641C75.9934 93.7575 75.6409 94.1704 75.1676 94.261C74.1908 94.5128 65.8123 96.5571 56.4872 96.5571H56.4973Z" fill="url(#paint10_linear_2507_1807)"/>
<path d="M66.5576 56.8597C51.3514 56.8597 36.0144 52.2979 33.7083 51.5829C33.1746 51.4218 32.8825 50.8578 33.0437 50.3241C33.2048 49.7904 33.7687 49.4983 34.3024 49.6595C37.4847 50.6464 65.9433 59.1054 83.4958 52.1368C84.0094 51.9354 84.5934 52.1871 84.8049 52.7007C85.0063 53.2143 84.7546 53.7984 84.241 54.0098C78.9642 56.1045 72.781 56.8698 66.5676 56.8698L66.5576 56.8597Z" fill="url(#paint11_linear_2507_1807)"/>
<path d="M45.7021 89.7282C42.2782 89.7282 38.9449 89.4261 35.8634 88.7413C35.3196 88.6205 34.9772 88.0867 35.0981 87.543C35.2189 86.9992 35.7526 86.6568 36.2964 86.7776C50.2538 89.849 70.334 84.7837 77.645 78.5401C78.068 78.1776 78.7024 78.2279 79.0649 78.6509C79.4274 79.0738 79.3771 79.7083 78.9541 80.0708C72.771 85.3476 58.6424 89.7282 45.7121 89.7282H45.7021Z" fill="url(#paint12_linear_2507_1807)"/>
<path d="M78.6419 46.1946C78.5815 46.1946 78.5211 46.1946 78.4607 46.1745C78.2693 46.1442 59.2264 42.6801 42.7011 42.6801C42.1472 42.6801 41.6941 42.2269 41.6941 41.673C41.6941 41.1192 42.1472 40.666 42.7011 40.666C59.4077 40.666 78.6319 44.1604 78.8232 44.2007C79.367 44.3014 79.7295 44.825 79.6288 45.3688C79.5382 45.8522 79.1152 46.1946 78.6419 46.1946Z" fill="url(#paint13_linear_2507_1807)"/>
<defs>
<linearGradient id="paint0_linear_2507_1807" x1="42.9931" y1="126.123" x2="42.9931" y2="-2.03154" gradientUnits="userSpaceOnUse">
<stop stop-color="#FF9A77"/>
<stop offset="1" stop-color="#FFCD9F"/>
</linearGradient>
<linearGradient id="paint1_linear_2507_1807" x1="36.0647" y1="87.4243" x2="78.2894" y2="87.4243" gradientUnits="userSpaceOnUse">
<stop stop-color="#DADEE5"/>
<stop offset="1" stop-color="#F6F6F6"/>
</linearGradient>
<linearGradient id="paint2_linear_2507_1807" x1="24.635" y1="75.0355" x2="82.67" y2="75.0355" gradientUnits="userSpaceOnUse">
<stop stop-color="#DADEE5"/>
<stop offset="1" stop-color="#F6F6F6"/>
</linearGradient>
<linearGradient id="paint3_linear_2507_1807" x1="30.2643" y1="65.0678" x2="69.1859" y2="65.0678" gradientUnits="userSpaceOnUse">
<stop stop-color="#DADEE5"/>
<stop offset="1" stop-color="#F6F6F6"/>
</linearGradient>
<linearGradient id="paint4_linear_2507_1807" x1="33.4062" y1="59.709" x2="83.8583" y2="59.709" gradientUnits="userSpaceOnUse">
<stop stop-color="#DADEE5"/>
<stop offset="1" stop-color="#F6F6F6"/>
</linearGradient>
<linearGradient id="paint5_linear_2507_1807" x1="34.0003" y1="48.7535" x2="84.2007" y2="48.7535" gradientUnits="userSpaceOnUse">
<stop stop-color="#DADEE5"/>
<stop offset="1" stop-color="#F6F6F6"/>
</linearGradient>
<linearGradient id="paint6_linear_2507_1807" x1="23.628" y1="69.3265" x2="83.6771" y2="69.3265" gradientUnits="userSpaceOnUse">
<stop stop-color="#D8D8D8"/>
<stop offset="1" stop-color="#BCBFC1"/>
</linearGradient>
<linearGradient id="paint7_linear_2507_1807" x1="29.2572" y1="67.3934" x2="44.9165" y2="67.3934" gradientUnits="userSpaceOnUse">
<stop stop-color="#D8D8D8"/>
<stop offset="1" stop-color="#BCBFC1"/>
</linearGradient>
<linearGradient id="paint8_linear_2507_1807" x1="33.2149" y1="45.7526" x2="85.1977" y2="45.7526" gradientUnits="userSpaceOnUse">
<stop stop-color="#D8D8D8"/>
<stop offset="1" stop-color="#BCBFC1"/>
</linearGradient>
<linearGradient id="paint9_linear_2507_1807" x1="32.3991" y1="61.1197" x2="70.1728" y2="61.1197" gradientUnits="userSpaceOnUse">
<stop stop-color="#D8D8D8"/>
<stop offset="1" stop-color="#BCBFC1"/>
</linearGradient>
<linearGradient id="paint10_linear_2507_1807" x1="38.401" y1="93.7978" x2="75.9934" y2="93.7978" gradientUnits="userSpaceOnUse">
<stop stop-color="#D8D8D8"/>
<stop offset="1" stop-color="#BCBFC1"/>
</linearGradient>
<linearGradient id="paint11_linear_2507_1807" x1="32.9933" y1="53.2344" x2="84.8653" y2="53.2344" gradientUnits="userSpaceOnUse">
<stop stop-color="#D8D8D8"/>
<stop offset="1" stop-color="#BCBFC1"/>
</linearGradient>
<linearGradient id="paint12_linear_2507_1807" x1="35.0678" y1="84.0183" x2="79.2965" y2="84.0183" gradientUnits="userSpaceOnUse">
<stop stop-color="#D8D8D8"/>
<stop offset="1" stop-color="#BCBFC1"/>
</linearGradient>
<linearGradient id="paint13_linear_2507_1807" x1="41.7041" y1="43.4253" x2="79.649" y2="43.4253" gradientUnits="userSpaceOnUse">
<stop stop-color="#F1DDB5"/>
<stop offset="0.05" stop-color="#F3D2AB"/>
<stop offset="0.18" stop-color="#F8C09A"/>
<stop offset="0.33" stop-color="#FCB48E"/>
<stop offset="0.53" stop-color="#FEAD87"/>
<stop offset="1" stop-color="#FFAB86"/>
</linearGradient>
</defs>
</svg>
