<svg width="347" height="149" viewBox="0 0 347 149" fill="none" xmlns="http://www.w3.org/2000/svg">
<path d="M6.5 92.3201C2.91 92.3201 0 89.4101 0 85.8201V50.0801C0 46.4901 2.91 43.5801 6.5 43.5801C10.09 43.5801 13 46.4901 13 50.0801V85.8201C13 89.4101 10.09 92.3201 6.5 92.3201Z" fill="#EF2E4F"/>
<path d="M33.0498 91.3C29.4598 91.3 26.5498 88.39 26.5498 84.8V35.27C26.5498 31.68 29.4598 28.77 33.0498 28.77C36.6398 28.77 39.5498 31.68 39.5498 35.27V84.8C39.5498 88.39 36.6398 91.3 33.0498 91.3Z" fill="#EF2E4F"/>
<path d="M338.5 58.8501C334.91 58.8501 332 61.7601 332 65.3501V114.88C332 118.47 334.91 121.38 338.5 121.38C342.09 121.38 345 118.47 345 114.88V65.3501C345 61.7601 342.09 58.8501 338.5 58.8501Z" fill="#EF2E4F"/>
<path d="M60.6299 108.66C57.0399 108.66 54.1299 105.75 54.1299 102.16V49.5601C54.1299 45.9701 57.0399 43.0601 60.6299 43.0601C64.2199 43.0601 67.1299 45.9701 67.1299 49.5601V102.16C67.1299 105.75 64.2199 108.66 60.6299 108.66Z" fill="#EF2E4F"/>
<path d="M117.31 72.4C113.72 72.4 110.81 69.49 110.81 65.9V35.26C110.81 31.67 113.72 28.76 117.31 28.76C120.9 28.76 123.81 31.67 123.81 35.26V65.9C123.81 69.49 120.9 72.4 117.31 72.4Z" fill="#EF2E4F"/>
<path d="M88.71 102.02C85.12 102.02 82.21 99.11 82.21 95.52V69.48C82.21 65.89 85.12 62.98 88.71 62.98C92.3 62.98 95.21 65.89 95.21 69.48V95.52C95.21 99.11 92.3 102.02 88.71 102.02Z" fill="#EF2E4F"/>
<path d="M144.37 122.45C140.78 122.45 137.87 119.54 137.87 115.95V85.3101C137.87 81.7201 140.78 78.8101 144.37 78.8101C147.96 78.8101 150.87 81.7201 150.87 85.3101V115.95C150.87 119.54 147.96 122.45 144.37 122.45Z" fill="#EF2E4F"/>
<path d="M200.03 146.96C196.44 146.96 193.53 144.05 193.53 140.46V68.97C193.53 65.38 196.44 62.47 200.03 62.47C203.62 62.47 206.53 65.38 206.53 68.97V140.46C206.53 144.05 203.62 146.96 200.03 146.96Z" fill="#EF2E4F"/>
<path d="M172.46 140.32C168.87 140.32 165.96 137.41 165.96 133.82V104.71C165.96 101.12 168.87 98.2102 172.46 98.2102C176.05 98.2102 178.96 101.12 178.96 104.71V133.82C178.96 137.41 176.05 140.32 172.46 140.32Z" fill="#EF2E4F"/>
<path d="M226.58 105.6C222.99 105.6 220.08 102.69 220.08 99.1002V79.7002C220.08 76.1102 222.99 73.2002 226.58 73.2002C230.17 73.2002 233.08 76.1102 233.08 79.7002V99.1002C233.08 102.69 230.17 105.6 226.58 105.6Z" fill="#EF2E4F"/>
<path d="M254.67 64.7401C251.08 64.7401 248.17 61.8301 248.17 58.2401V17.9001C248.17 14.3101 251.08 11.4001 254.67 11.4001C258.26 11.4001 261.17 14.3101 261.17 17.9001V58.2401C261.17 61.8301 258.26 64.7401 254.67 64.7401Z" fill="#EF2E4F"/>
<path d="M283.27 2.35001C279.68 2.35001 276.77 5.26002 276.77 8.85001V101.27C276.77 104.86 279.68 107.77 283.27 107.77C286.86 107.77 289.77 104.86 289.77 101.27V8.84002C289.77 5.25002 286.86 2.34002 283.27 2.34002V2.35001Z" fill="#EF2E4F"/>
<path d="M142.84 43.5502C139.25 43.5502 136.34 40.6402 136.34 37.0502V31.6902C136.34 28.1002 139.25 25.1902 142.84 25.1902C146.43 25.1902 149.34 28.1002 149.34 31.6902V37.0502C149.34 40.6402 146.43 43.5502 142.84 43.5502Z" fill="#EF2E4F"/>
<path d="M227.78 31.7001C224.19 31.7001 221.28 28.7901 221.28 25.2001V19.8401C221.28 16.2501 224.19 13.3401 227.78 13.3401C231.37 13.3401 234.28 16.2501 234.28 19.8401V25.2001C234.28 28.7901 231.37 31.7001 227.78 31.7001Z" fill="#EF2E4F"/>
<path d="M309.31 121.26C305.72 121.26 302.81 118.35 302.81 114.76V89.23C302.81 85.64 305.72 82.73 309.31 82.73C312.9 82.73 315.81 85.64 315.81 89.23V114.76C315.81 118.35 312.9 121.26 309.31 121.26Z" fill="#EF2E4F"/>
<path d="M311.35 44.32C307.76 44.32 304.85 41.41 304.85 37.82V6.5C304.85 2.91 307.76 0 311.35 0C314.94 0 317.85 2.91 317.85 6.5V37.82C317.85 41.41 314.94 44.32 311.35 44.32Z" fill="#EF2E4F"/>
<path d="M282.22 121.19C285.837 121.19 288.77 124.123 288.77 127.74C288.77 131.358 285.837 134.29 282.22 134.29C278.602 134.29 275.67 131.358 275.67 127.74C275.67 124.123 278.602 121.19 282.22 121.19Z" fill="#EF2E4F"/>
<path d="M7.26965 127.43C10.7932 127.43 13.6496 124.574 13.6496 121.05C13.6496 117.527 10.7932 114.67 7.26965 114.67C3.74607 114.67 0.889648 117.527 0.889648 121.05C0.889648 124.574 3.74607 127.43 7.26965 127.43Z" fill="#EF2E4F"/>
<path d="M33.9897 148.04C37.8668 148.04 41.0097 144.897 41.0097 141.02C41.0097 137.143 37.8668 134 33.9897 134C30.1127 134 26.9697 137.143 26.9697 141.02C26.9697 144.897 30.1127 148.04 33.9897 148.04Z" fill="#EF2E4F"/>
<path d="M339.02 28.7701C342.897 28.7701 346.04 31.913 346.04 35.7901C346.04 39.6671 342.897 42.8101 339.02 42.8101C335.143 42.8101 332 39.6671 332 35.7901C332 31.913 335.143 28.7701 339.02 28.7701Z" fill="#EF2E4F"/>
</svg>
