<svg width="261" height="235" viewBox="0 0 261 235" fill="none" xmlns="http://www.w3.org/2000/svg">
<path d="M260.293 96.0507C260.358 100.378 260.358 104.64 260.293 108.967C260.228 161.614 217.476 204.886 165.522 205.017H122.575C122.575 205.017 77.3438 239.11 76.6258 234.587C75.5815 227.833 83.5443 204.231 83.5443 204.231C36.877 198.527 0.065269 157.812 0 108.967V96.0507C0.065269 43.4031 42.8165 0.196691 94.7706 0C118.398 0 141.895 0 165.522 0C217.411 0.131127 260.228 43.3375 260.293 95.9851V96.0507Z" fill="url(#paint0_linear_2507_1462)"/>
<path d="M177.401 72.7758C192.674 95.0018 182.1 128.833 134.911 147.19C131.843 148.371 128.449 148.371 125.382 147.19C78.1922 128.833 67.6186 95.0674 82.9568 72.7758C92.6819 58.614 120.878 55.5325 130.146 73.1691C139.349 55.5325 167.611 58.614 177.401 72.7758Z" fill="url(#paint1_linear_2507_1462)"/>
<defs>
<linearGradient id="paint0_linear_2507_1462" x1="130.212" y1="3.47487" x2="130.212" y2="251.305" gradientUnits="userSpaceOnUse">
<stop stop-color="#FFE0E3"/>
<stop offset="1" stop-color="#FFC9AE"/>
</linearGradient>
<linearGradient id="paint1_linear_2507_1462" x1="130.146" y1="47.0093" x2="130.146" y2="220.491" gradientUnits="userSpaceOnUse">
<stop stop-color="#FFA489"/>
<stop offset="1" stop-color="#FF6363"/>
</linearGradient>
</defs>
</svg>
