<svg width="802" height="624" viewBox="0 0 802 624" fill="none" xmlns="http://www.w3.org/2000/svg">
<path d="M571.109 447.681L573.657 447.982L573.327 445.437C554.336 299.272 438.489 178.572 285.652 160.523C226.352 153.52 166.957 162.692 113.286 186.575C78.9833 201.837 38.8785 191.798 17.1483 161.271C-11.6521 120.79 4.52183 64.5209 49.9763 44.2777C129.051 9.06633 216.553 -4.47936 303.919 5.83783C542.622 34.0267 720.154 232.208 731.03 464.94L731.109 466.621L732.778 466.831C774.134 472.037 803.637 509.609 798.738 551.097L798.324 554.6C793.401 596.288 755.631 626.093 713.965 621.173L551.867 602.031C510.201 597.11 480.412 559.327 485.335 517.638L485.749 514.136C490.672 472.447 528.442 442.642 570.109 447.563L571.109 447.681Z" stroke="white" stroke-opacity="0.25" stroke-width="4"/>
</svg>

