<svg width="385" height="321" viewBox="0 0 385 321" fill="none" xmlns="http://www.w3.org/2000/svg">
<path d="M292.463 793.63C245.683 757.7 209.123 709.67 186.883 653.98C129.573 510.44 180.533 350.37 300.383 263.58L300.763 264.521C316.893 304.931 362.733 324.61 403.143 308.47L406.453 307.151C446.863 291.021 466.543 245.181 450.413 204.771L389.253 51.5905C373.123 11.1805 327.283 -8.4995 286.873 7.6405L283.563 8.96051C243.343 25.0205 223.723 70.4905 239.443 110.76C37.2928 233.09 -53.3972 487.301 37.0328 713.811C70.1328 796.701 124.563 868.181 194.223 921.651C235.083 953.011 294.313 939.97 316.933 893.7C333.993 858.79 323.273 817.311 292.453 793.641L292.463 793.63Z" stroke="#fff" stroke-width="3" stroke-miterlimit="10"/>
</svg>
