<?xml version="1.0" encoding="UTF-8"?>
<svg xmlns="http://www.w3.org/2000/svg" xmlns:xlink="http://www.w3.org/1999/xlink" width="300px" height="506px" viewBox="0 0 300 506" version="1.1">
<g id="surface1">
<path style="fill:none;stroke-width:3;stroke-linecap:butt;stroke-linejoin:miter;stroke:rgb(50.196078%,93.333333%,76.078431%);stroke-opacity:1;stroke-miterlimit:10;" d="M 210.78125 90.560916 C 215.585938 149.362129 204.560547 208.687041 178.227539 262.569391 C 110.366211 401.428157 -42.456055 471.192805 -187.250977 440.681172 L -186.801758 439.770815 C -167.705078 400.67442 -183.901367 353.497386 -223.00293 334.399473 L -226.206055 332.838162 C -265.292969 313.735354 -312.475586 329.940682 -331.572266 369.027289 L -403.979492 517.219658 C -423.085938 556.311158 -406.884766 603.488192 -367.788086 622.591 L -364.584961 624.147417 C -325.668945 643.157231 -278.803711 627.157467 -259.526367 588.467307 C -33.125 656.078423 216.123047 552.537583 323.203125 333.405911 C 362.397461 253.21621 378.789062 164.877348 371.611328 77.360743 C 367.402344 26.028371 317.963867 -9.103567 268.500977 5.217421 C 231.166992 16.02913 207.636719 51.826706 210.795898 90.560916 Z M 210.78125 90.560916 " transform="matrix(0.8,0,0,0.798107,0,0)"/>
</g>
</svg>