<svg width="213" height="140" viewBox="0 0 213 140" fill="none" xmlns="http://www.w3.org/2000/svg">
<g clip-path="url(#clip0_2522_491)">
<g style="mix-blend-mode:color-dodge">
<path d="M106.494 212.988C165.309 212.988 212.988 165.309 212.988 106.494C212.988 47.6789 165.309 0 106.494 0C47.6789 0 0 47.6789 0 106.494C0 165.309 47.6789 212.988 106.494 212.988Z" fill="#7A3AA6"/>
</g>
<g style="mix-blend-mode:color-dodge">
<path d="M113.527 193.942C157.939 193.942 193.942 157.939 193.942 113.528C193.942 69.1157 157.939 33.1128 113.527 33.1128C69.1152 33.1128 33.1123 69.1157 33.1123 113.528C33.1123 157.939 69.1152 193.942 113.527 193.942Z" fill="#7A3AA6"/>
</g>
<g style="mix-blend-mode:color-dodge">
<path d="M111.497 166.934C140.992 166.934 164.903 143.023 164.903 113.528C164.903 84.0322 140.992 60.1216 111.497 60.1216C82.0015 60.1216 58.0908 84.0322 58.0908 113.528C58.0908 143.023 82.0015 166.934 111.497 166.934Z" fill="#7A3AA6"/>
</g>
<g style="mix-blend-mode:color-dodge">
<path d="M115.717 146.163C132.708 146.163 146.481 132.389 146.481 115.399C146.481 98.4083 132.708 84.6348 115.717 84.6348C98.7267 84.6348 84.9531 98.4083 84.9531 115.399C84.9531 132.389 98.7267 146.163 115.717 146.163Z" fill="#7A3AA6"/>
</g>
<g style="mix-blend-mode:color-dodge">
<path d="M115.717 129.919C123.736 129.919 130.237 123.418 130.237 115.399C130.237 107.38 123.736 100.879 115.717 100.879C107.698 100.879 101.197 107.38 101.197 115.399C101.197 123.418 107.698 129.919 115.717 129.919Z" fill="#7A3AA6"/>
</g>
</g>
<defs>
<clipPath id="clip0_2522_491">
<rect width="213" height="213" fill="white"/>
</clipPath>
</defs>
</svg>
