<svg width="94" height="108" viewBox="0 0 94 108" fill="none" xmlns="http://www.w3.org/2000/svg">
<path d="M64.5049 57.0432C80.4635 57.0432 93.4005 44.2737 93.4005 28.5216C93.4005 12.7696 80.4635 0 64.5049 0C48.5464 0 35.6094 12.7696 35.6094 28.5216C35.6094 44.2737 48.5464 57.0432 64.5049 57.0432Z" fill="url(#paint0_radial_2507_1385)"/>
<path d="M64.505 48.6889C75.7892 48.6889 84.9368 39.6597 84.9368 28.5216C84.9368 17.3835 75.7892 8.35425 64.505 8.35425C53.2209 8.35425 44.0732 17.3835 44.0732 28.5216C44.0732 39.6597 53.2209 48.6889 64.505 48.6889Z" fill="url(#paint1_radial_2507_1385)"/>
<path d="M64.503 41.1124C71.5479 41.1124 77.259 35.4753 77.259 28.5215C77.259 21.5678 71.5479 15.9307 64.503 15.9307C57.4581 15.9307 51.7471 21.5678 51.7471 28.5215C51.7471 35.4753 57.4581 41.1124 64.503 41.1124Z" fill="url(#paint2_radial_2507_1385)"/>
<path d="M64.5045 32.8406C66.9211 32.8406 68.8801 30.9069 68.8801 28.5216C68.8801 26.1363 66.9211 24.2026 64.5045 24.2026C62.0879 24.2026 60.1289 26.1363 60.1289 28.5216C60.1289 30.9069 62.0879 32.8406 64.5045 32.8406Z" fill="#6AA0EF"/>
<path d="M34.1627 38.8526C35.8684 40.4265 38.4919 40.4265 40.2069 38.8526C43.7296 35.5951 48.1608 32.8408 52.9721 32.8408C64.458 32.8408 72.7735 42.0827 73.7747 53.3833C76.8061 87.4409 50.0242 107.361 44.7401 107.361C38.1767 107.361 42.6635 83.7076 37.1848 83.7076C31.706 83.7076 36.1836 107.361 29.6295 107.361C24.3454 107.361 -2.43655 87.4409 0.594845 53.3833C1.59604 42.0827 9.91151 32.8408 21.3974 32.8408C26.218 32.8408 30.6399 35.5951 34.1627 38.8526Z" fill="url(#paint3_linear_2507_1385)"/>
<defs>
<radialGradient id="paint0_radial_2507_1385" cx="0" cy="0" r="1" gradientUnits="userSpaceOnUse" gradientTransform="translate(64.2546 28.4484) scale(28.7565 28.3844)">
<stop stop-color="#3779E2"/>
<stop offset="0.3" stop-color="#3575DF"/>
<stop offset="0.57" stop-color="#3069D7"/>
<stop offset="0.84" stop-color="#2757C9"/>
<stop offset="1" stop-color="#2148BF"/>
</radialGradient>
<radialGradient id="paint1_radial_2507_1385" cx="0" cy="0" r="1" gradientUnits="userSpaceOnUse" gradientTransform="translate(62.8364 28.0641) scale(19.8848 19.6275)">
<stop stop-color="#3779E2"/>
<stop offset="0.3" stop-color="#3575DF"/>
<stop offset="0.57" stop-color="#3069D7"/>
<stop offset="0.84" stop-color="#2757C9"/>
<stop offset="1" stop-color="#2148BF"/>
</radialGradient>
<radialGradient id="paint2_radial_2507_1385" cx="0" cy="0" r="1" gradientUnits="userSpaceOnUse" gradientTransform="translate(64.503 28.5215) scale(12.756 12.5909)">
<stop stop-color="#3779E2"/>
<stop offset="0.3" stop-color="#3575DF"/>
<stop offset="0.57" stop-color="#3069D7"/>
<stop offset="0.84" stop-color="#2757C9"/>
<stop offset="1" stop-color="#2148BF"/>
</radialGradient>
<linearGradient id="paint3_linear_2507_1385" x1="37.1848" y1="106.327" x2="37.1848" y2="30.3794" gradientUnits="userSpaceOnUse">
<stop stop-color="#C3C7C9"/>
<stop offset="0.04" stop-color="#C8CCCE"/>
<stop offset="0.23" stop-color="#E0E2E3"/>
<stop offset="0.44" stop-color="#F1F2F2"/>
<stop offset="0.66" stop-color="#FBFBFC"/>
<stop offset="0.94" stop-color="white"/>
</linearGradient>
</defs>
</svg>
