<svg width="72" height="49" viewBox="0 0 72 49" fill="none" xmlns="http://www.w3.org/2000/svg">
<path d="M51.7175 7.63546H43.2676V4.37766C43.2676 1.95977 41.1806 0 38.61 0H4.65763C2.08703 0 0 1.95977 0 4.37766V17.8161C0 19.2159 1.14532 20.3612 2.54515 20.3612C3.94499 20.3612 5.09031 19.2159 5.09031 17.8161V5.09031H38.1773V35.6321H24.5607C23.1354 32.6289 20.0813 30.5418 16.5435 30.5418C13.0057 30.5418 9.977 32.6289 8.52626 35.6321H5.09031V27.9967C5.09031 26.5968 3.94499 25.4515 2.54515 25.4515C1.14532 25.4515 0 26.5968 0 27.9967V36.3448C0 38.7627 2.08703 40.7225 4.65763 40.7225H7.76272C8.399 45.0238 12.064 48.3579 16.5435 48.3579C21.023 48.3579 24.688 45.0238 25.3243 40.7225H45.94C46.5763 45.0238 50.2413 48.3579 54.7208 48.3579C59.2003 48.3579 62.8653 45.0238 63.5016 40.7225H68.7191C70.119 40.7225 71.2643 39.5771 71.2643 38.1773V25.6297C71.2643 15.7036 62.509 7.63546 51.7175 7.63546ZM16.5435 43.2676C14.431 43.2676 12.7258 41.5624 12.7258 39.4499C12.7258 37.3374 14.431 35.6321 16.5435 35.6321C18.656 35.6321 20.3612 37.3374 20.3612 39.4499C20.3612 41.5624 18.656 43.2676 16.5435 43.2676ZM54.7208 43.2676C52.6083 43.2676 50.9031 41.5624 50.9031 39.4499C50.9031 37.3374 52.6083 35.6321 54.7208 35.6321C56.8333 35.6321 58.5385 37.3374 58.5385 39.4499C58.5385 41.5624 56.8333 43.2676 54.7208 43.2676ZM66.174 35.6321H62.738C61.3127 32.6289 58.2585 30.5418 54.7208 30.5418C51.183 30.5418 48.1543 32.6289 46.7036 35.6321H43.2676V12.7258H51.7175C59.6838 12.7258 66.174 18.5033 66.174 25.6297V35.6321Z" fill="#003970"/>
</svg>